<svg id="Layer_1" data-name="Layer 1" xmlns="http://www.w3.org/2000/svg" viewBox="0 0 3248 2000"><defs><style>.cls-1{fill:#fff;}.cls-2{fill:#ebf3fa;}.cls-3{fill:#2e3552;}.cls-4{fill:#82b378;}.cls-5{fill:#a8d29f;}.cls-6{fill:#f99746;}.cls-7{fill:#ffac6e;}.cls-8{fill:#ed7d2b;}.cls-9{fill:#8eb2dd;}.cls-10{fill:#d7e6fa;}.cls-11{fill:#2a4e96;}.cls-12{fill:#699ff0;}.cls-13{fill:#ffb27d;}.cls-14{fill:#ed975d;}.cls-15{fill:#a9453d;}.cls-16{fill:#2c3a64;}.cls-17{fill:#2b478b;}.cls-18{fill:#233862;}.cls-19{fill:#b7d3f3;}.cls-20{fill:#d2e3fc;}.cls-21{fill:#c5dcf8;}.cls-22{fill:#1c468a;}.cls-23{fill:#163560;}.cls-24{fill:#f9ddbf;}.cls-25{fill:#ed893e;}.cls-26{fill:#95c0f4;}.cls-27{fill:#78acea;}</style></defs><rect class="cls-1" width="3248" height="2000" transform="translate(3248 2000) rotate(180)"/><path class="cls-2" d="M2915.64,1787s350.12-375.92,59.21-782.9C2716.74,643,2415.8,667.69,2195,814.23c-94,62.41-365.16,7.69-595.92-359.75C1284.4-46.6,131.34,210.08,334.49,1031.58c92.5,374-235,383.3-36.67,756.22Z" transform="translate(0 0)"/><rect class="cls-3" x="146.05" y="1782.81" width="2955.9" height="7.98" rx="3.38" transform="translate(3248 3573.61) rotate(180)"/><path class="cls-4" d="M1362.19,1529s-41.13-48-2.53-78.46c0,0,28.19-17.07,51.17-15.68,0,0-32.57,54.61-22,60s31.9-63.48,31.9-63.48,64.16-6.22,84.79,3.7c0,0-54.84,44.88-43.29,47.55s70.79-41.38,70.79-41.38,59.71,10.17,56.52,46.59-23.76,47.67-32.8,46.7-61.93-21.16-63.09-13.75,30.69,31.62,53,32.75c0,0-42.1,46.43-70.07,33s-30.37-34.64-47.81-42.6-32.32-8-25.12.18,38.76,16,48.73,33.66,18.92,29.54-10,25.18-76-25.53-78.06-49.79Z" transform="translate(0 0)"/><path class="cls-4" d="M1560.17,1488.9s-162.16-6.25-198,40.13c0,0-7.92,23.72-32.29,45.32l-3.8,10.36s28.1-29.63,38.16-31.43C1364.26,1553.28,1348.53,1495.82,1560.17,1488.9Z" transform="translate(0 0)"/><path class="cls-4" d="M1329.9,1574.35s-34.81,25.74-37.23,71.74l6.32.56s11.12-47.55,31.21-66.15S1329.9,1574.35,1329.9,1574.35Z" transform="translate(0 0)"/><path class="cls-5" d="M1218.39,1468.69s65.43-36.64,34.89-86.37c0,0-24.42-30.53-50.59-38.38,0,0,14,74.15,0,75.89s-9.6-83.74-9.6-83.74-68.92-33.15-96-30.53c0,0,42.75,72.4,28.79,70.66s-61.94-75-61.94-75-70.66-13.08-82,28.79,7,62.81,17.45,65.43,77.64,1.74,75.89,10.47-47.11,22.68-72.4,14.83c0,0,27.91,68.91,64.55,65.42s48-26.17,70.66-27.91,39.26,4.36,27.92,10.47-49.73,2-68,17.57-33.15,25.17.88,32.15,95.08,2.62,107.3-23.55Z" transform="translate(0 0)"/><path class="cls-4" d="M1014.26,1343.07s183.19,59.32,204.13,125.62c0,0-.87,29.66,17.45,63.68v13.08s-19.2-44.49-29.66-50.59C1206.18,1494.86,1247.18,1437.28,1014.26,1343.07Z" transform="translate(0 0)"/><path class="cls-4" d="M1235.84,1532.37s28.25,42.9,12.14,95.12l-7.27-2s7.06-57.52-7.72-86.45S1235.84,1532.37,1235.84,1532.37Z" transform="translate(0 0)"/><path class="cls-5" d="M1322.48,1418.16s-86.25-48.3-46-113.85c0,0,32.2-40.25,66.7-50.6,0,0-18.4,97.75,0,100s12.65-110.39,12.65-110.39,90.84-43.7,126.49-40.25c0,0-56.35,95.44-38,93.14s81.64-98.89,81.64-98.89,93.15-17.25,108.1,38-9.2,82.79-23,86.24-102.34,2.3-100,13.8,62.09,29.9,95.44,19.55c0,0-36.8,90.84-85.09,86.24s-63.25-34.49-93.15-36.79-51.75,5.75-36.8,13.8,65.55,2.63,89.7,23.16,43.7,33.18-1.15,42.38-125.34,3.45-141.44-31Z" transform="translate(0 0)"/><path class="cls-4" d="M1591.56,1252.57s-241.48,78.19-269.08,165.59c0,0,1.15,39.09-23,83.94v17.25s25.3-58.65,39.1-66.7C1338.58,1452.65,1284.53,1376.76,1591.56,1252.57Z" transform="translate(0 0)"/><path class="cls-4" d="M1299.48,1502.1s-37.24,56.55-16,125.39l9.58-2.57s-9.3-75.82,10.18-114S1299.48,1502.1,1299.48,1502.1Z" transform="translate(0 0)"/><path class="cls-6" d="M1319.57,1776.78a168.94,168.94,0,0,0,168.94-168.94H1150.63A168.94,168.94,0,0,0,1319.57,1776.78Z" transform="translate(0 0)"/><path class="cls-7" d="M1269.68,1775.48a169,169,0,0,0,189.92-167.65h-42A169,169,0,0,1,1269.68,1775.48Z" transform="translate(0 0)"/><path class="cls-8" d="M1490.84,1785.37H1148.3a20.84,20.84,0,0,1,20.84-20.84H1470a20.84,20.84,0,0,1,20.84,20.84Z" transform="translate(0 0)"/><rect class="cls-8" x="1145.08" y="1607.83" width="347.28" height="5.18"/><rect class="cls-9" x="1160.38" y="109.89" width="755.04" height="1065.78" transform="translate(2180.49 -895.21) rotate(89.99)"/><rect class="cls-10" x="1019.02" y="279.25" width="1037.78" height="727.04" transform="translate(3075.88 1285.36) rotate(179.99)"/><path class="cls-9" d="M1650.27,866.25l-364,0a13.05,13.05,0,0,1-13-13h0a13.05,13.05,0,0,1,13-13l364,0a13,13,0,0,1,13,13h0A13.05,13.05,0,0,1,1650.27,866.25Z" transform="translate(0 0)"/><path class="cls-9" d="M1650.28,943l-364,0a13.05,13.05,0,0,1-13-13h0a13,13,0,0,1,13-13.05l364,0a13,13,0,0,1,13,13h0A13.06,13.06,0,0,1,1650.28,943Z" transform="translate(0 0)"/><rect class="cls-9" x="1095.49" y="788.22" width="842.54" height="6.74"/><polygon class="cls-9" points="1928.6 805.31 1928.6 777.77 1966.37 791.54 1928.6 805.31"/><rect class="cls-9" x="914.32" y="609.39" width="447.94" height="7.05" transform="translate(525.51 1751.28) rotate(-90.01)"/><polygon class="cls-9" points="1123.86 401.72 1152.66 401.72 1138.26 367.44 1123.86 401.72"/><path class="cls-11" d="M1223.82,880.07h-2.17A23.68,23.68,0,0,1,1198,856.4h0a23.67,23.67,0,0,1,23.67-23.67h2.18a23.67,23.67,0,0,1,23.67,23.67h0A23.67,23.67,0,0,1,1223.82,880.07Z" transform="translate(0 0)"/><rect class="cls-6" x="1197.98" y="900.71" width="49.52" height="47.34" rx="23.67"/><polygon class="cls-12" points="1893.18 409.39 1844.79 413.43 1851.15 425.97 1699.27 497.48 1557.39 735.96 1389.94 592.41 1254.86 657.92 1254.47 658.1 1168.36 738.31 1172.29 742.18 1257.79 662.53 1389.05 598.89 1558.83 744.43 1703.31 501.58 1853.61 430.82 1859.89 443.2 1893.18 409.39"/><path class="cls-11" d="M1255.85,679.62h-1.61a17.53,17.53,0,0,1-17.52-17.51h0a17.51,17.51,0,0,1,17.51-17.51h1.61a17.51,17.51,0,0,1,17.51,17.51h0A17.5,17.5,0,0,1,1255.85,679.62Z" transform="translate(0 0)"/><path class="cls-11" d="M1701.3,520.63h-1.61a17.51,17.51,0,0,1-17.51-17.51h0a17.5,17.5,0,0,1,17.5-17.51h1.61a17.51,17.51,0,0,1,17.51,17.51h0A17.5,17.5,0,0,1,1701.3,520.63Z" transform="translate(0 0)"/><path class="cls-11" d="M1389.49,617.63h-1.61a17.51,17.51,0,0,1-17.51-17.51h0a17.51,17.51,0,0,1,17.51-17.51h1.61A17.5,17.5,0,0,1,1407,600.12h0A17.51,17.51,0,0,1,1389.49,617.63Z" transform="translate(0 0)"/><path class="cls-6" d="M1558.11,752.76h-1.61A17.51,17.51,0,0,1,1539,735.25h0a17.51,17.51,0,0,1,17.51-17.51h1.61a17.5,17.5,0,0,1,17.51,17.5h0A17.53,17.53,0,0,1,1558.11,752.76Z" transform="translate(0 0)"/><path class="cls-13" d="M618.83,612.15s37.73,44.77,85.79,26c0,0,10.34-25,10.48-43.43,0-2.27,0-4.47.08-6.56.26-20.75,1-32.4,1-32.4h0c-2.19-.91-73.46-30.17-73.4-27.74C643.91,584.18,618.83,612.15,618.83,612.15Z" transform="translate(0 0)"/><path class="cls-14" d="M649.84,541.43c6.88,12.74,30.46,37.67,65.34,46.77.26-20.75,1-32.4,1-32.4h0C714.12,555.26,647.8,537.68,649.84,541.43Z" transform="translate(0 0)"/><path class="cls-13" d="M731.07,553.65s-80.16,18.84-91.13-31.26-28.7-81.4,22-95.55,64.87,2.78,72.6,18.61S751.63,547.45,731.07,553.65Z" transform="translate(0 0)"/><path class="cls-15" d="M642.69,536c-1.1.7-18.35,6-51-59.07-5.13-10.21-8.62-32.31,3.33-51.83s54.33-34.88,89.54-41.56,43.67,13.13,52,33.05c8.7,20.9,33.84,38.11,33.84,38.11-30.36,17-66.93-7.3-79.6-3.31s-17.15,23.95-18.1,30.36-2.41,11.71-18.34,6-7.2,22.57-4.65,28C649.66,515.78,651.82,530.19,642.69,536Z" transform="translate(0 0)"/><path class="cls-16" d="M436.2,1785.37H387.66c-10.17,0-21.48-10.19-24.31-28.84s-23.74-28.84-28.27-44.1,18.67-36.77,18.67-36.77l3.87-5,4-5.19,38.44,9s.95,9.16,1.54,20.82a266.58,266.58,0,0,1,.16,26.68c-1.13,20.37,5.7,42.29,23.79,46.25S436.2,1785.37,436.2,1785.37Z" transform="translate(0 0)"/><path class="cls-16" d="M774.08,1785.37H645.43a11.69,11.69,0,0,1-2.73-.79c-8.59-4.3-5.9-37.19-4.87-47.35.2-1.88.34-3,.34-3s45.24-36.19,51.46-8.48c.2.86.43,1.71.67,2.55h0c7.85,25.93,43,37.7,63.24,41C769,1771.83,773.05,1780.86,774.08,1785.37Z" transform="translate(0 0)"/><path class="cls-17" d="M748.15,1043.46s-6.87,85.72-14.94,188.76c-11,140-24.18,311.91-25.48,344.48-2.26,56.56-11.32,147-11.32,147s-21.48,21.49-64.46,12.43c0,0-38.31-129.15-49.25-265.79-.17-2.24-.34-4.5-.51-6.76-10.18-139.1-26-432-26-432Z" transform="translate(0 0)"/><path class="cls-18" d="M748.15,1043.46s-6.87,85.72-14.94,188.76L582.7,1470.37c-.17-2.24-.34-4.5-.51-6.76-10.18-139.1-26-432-26-432Z" transform="translate(0 0)"/><path class="cls-17" d="M716.78,1053.64S592.94,1364.08,511.51,1510s-106.88,186.61-106.88,186.61-46.65-18.66-50.89-31.39c0,0,31.14-281.65,85.67-350.31,30.81-38.8,67-155.23,68.7-195.94s11-121.3,11-121.3Z" transform="translate(0 0)"/><path class="cls-13" d="M434.36,997.23l-1.31,20s13.17,35.47-23.73,53.66c0,0-15.79,6.37-16.43-5.92s1.38-7.67.09-25,5.53-33.67,17-39.18l9.39-10.84Z" transform="translate(0 0)"/><path class="cls-8" d="M420,1011.77c13.7,4.4,15.9,3.4,15.9,3.4s66.72-121.46,73.47-132.58S651,746.38,651,746.38L616.31,617.11s-153.43,198.68-170,227.19c-27.38,47.11-43.42,156.52-43.42,156.52A40.11,40.11,0,0,0,420,1011.77Z" transform="translate(0 0)"/><path class="cls-6" d="M523.12,1050.88c33.91,20,65.91,34.89,103.06,42.73,44,9.59,97.82,5.49,115.86,7.76a7.72,7.72,0,0,0,5.27-1.35c1.32-.83,8.41-55.15,15.17-123.89.18-1.58.36-3.25.49-4.91.09-1.11.16-2.22.18-3.3l.12-1c.74-7.14,1.45-14.42,2.11-21.78,1.66-18.34,3.1-37.17,4.43-55.95.13-1.79.26-3.59.38-5.39,2.08-30.3,3.63-60.15,4.11-86.7,0-.63,0-1.26,0-1.9.36-22.23,0-42.1-1.42-57.88-.29-3.33-.63-6.45-1-9.4-5.26-39.85-24.55-67.88-42.66-88.93l-17.71-20.1c-17,1.49-31.71,2.1-48.31-8.55C645.21,598.84,633.6,588,630,590c-27.83,16.29-58,56.33-73.08,110.69-8.12,29.27-14.17,62.21-18,96.89q-2.16,20-3.32,40.58c-3.94,73.61-15.47,136.5-22.15,173.06-1.92,10.52-3.44,18.88-4.26,24.67C508.37,1041.17,518.63,1048.22,523.12,1050.88Z" transform="translate(0 0)"/><path class="cls-8" d="M651,706.83s15.14,167.41,112,264.39c.09-1.11.16-2.22.18-3.3l.12-1c.74-7.14,1.45-14.42,2.11-21.78,1.66-18.34,3.1-37.17,4.43-55.95.13-1.79.26-3.59.38-5.39,2.08-30.3,3.63-60.15,4.11-86.7,0-.63,0-1.26,0-1.9-.19-15.87-.66-30.34-1.42-43.05C741.88,727.42,701.63,710.13,651,706.83Z" transform="translate(0 0)"/><path class="cls-11" d="M973.86,1041.42l180.2-529.65c.83-2.41,1.93-4.71-.46-5.59l-2.19-.79c-2.46-.9-3.18.69-4.07,3.15l-192.09,522a10.11,10.11,0,0,0,5.39,12.69l4.45,2A6.49,6.49,0,0,0,973.86,1041.42Z" transform="translate(0 0)"/><path class="cls-13" d="M1022.26,813.82c.09-7.75,20.54-25.67,21.9-23.51,1,1.55-1.14,9.69-2.28,13.12,8.49-5.68,10.43-25.78,24.77-34.74,4-2.49,18.13,36.35,4.71,50.44s-19.86,12.53-42.21,25.57L1013,845.78l-8-25.16S1013.6,817.46,1022.26,813.82Z" transform="translate(0 0)"/><path class="cls-6" d="M1030.63,834.17c1.06-15.27-19.08-24.11-19.08-24.11s-153.43,16-166.63,11.85-111.8-145.66-111.8-145.66-43.26-48.79-78.68-38c-30.78,9.36-42.81,33.37-46.91,56.24a67.37,67.37,0,0,0,31.29,69.16c53,32.5,145.65,122.07,170.63,129.39,55.61,16.3,214.41-37,214.41-37A54.85,54.85,0,0,0,1030.63,834.17Z" transform="translate(0 0)"/><path class="cls-19" d="M2741.84,1306.92c2.78-68.54,8.79-128.16,16-169.74,11.46-66.28,21.78-104.41,21.9-104.81,1.51-5.83,23.32-29.41,71.82-28.69s43.89,31.66,43.89,31.66h0a10,10,0,0,1-.34,2.75c-.47,1.59-45,163-43.06,371.4,0,2.93.36,8,.15,11.36,0,0-112.38,2.9-112.41,0C2735.85,1402.63,2737.76,1352.16,2741.84,1306.92Z" transform="translate(0 0)"/><path class="cls-20" d="M2727.7,1408.47c0,2.9,1.57,5.23,3.44,5.23h.05c1.86,0,3.35-2.37,3.38-5.23h96.31c0,2.9,1.56,5.23,3.43,5.23h.05c1.9,0,3.41-2.45,3.39-5.39a1453.82,1453.82,0,0,1,8-164.52c12.8-122.62,36.47-204.56,36.81-205.7a10.32,10.32,0,0,0,.34-2.75s4.6-30.93-43.89-31.66-70.31,22.86-71.82,28.69c-.09.31-5.93,21.9-13.7,60.72-2.58,12.86-5.35,27.6-8.2,44.09-7.19,41.58-13.2,101.2-16,169.73C2725.22,1352.16,2723.79,1390.26,2727.7,1408.47Z" transform="translate(0 0)"/><path class="cls-21" d="M2844.87,1413.7h-377.6s8.8-35.58,227.47-30.28C2849.5,1387.17,2844.87,1413.7,2844.87,1413.7Z" transform="translate(0 0)"/><path class="cls-19" d="M2875.6,1785.37c-43.78-221.63-32.52-357.63-32.47-359.34.11-3.42-6.18-6.51-9.56-6.62s-18.54-1-20.28,1.91c-2.3,3.82-11.11,171.39,54.14,364Z" transform="translate(0 0)"/><path class="cls-19" d="M2523.05,1785.37c43.78-221.63,32.52-357.63,32.46-359.34-.11-3.42,6.18-6.51,9.57-6.62s18.53-1,20.28,1.91c2.29,3.82,11.11,171.39-54.14,364Z" transform="translate(0 0)"/><path class="cls-19" d="M2453.18,1785.37c43.78-221.63,32.52-357.63,32.47-359.34-.11-3.42,6.18-6.51,9.56-6.62s18.54-1,20.28,1.91c2.29,3.82,11.11,171.39-54.14,364Z" transform="translate(0 0)"/><path class="cls-19" d="M2805.26,1785.37c-43.78-221.63-32.52-357.63-32.47-359.34.11-3.42-6.17-6.51-9.56-6.62s-18.53-1-20.28,1.91c-2.29,3.82-11.11,171.39,54.14,364Z" transform="translate(0 0)"/><path class="cls-19" d="M2467.05,1404.5h377.59a7.74,7.74,0,0,1,7.74,7.74v5.08a7.73,7.73,0,0,1-7.73,7.73H2467.05a7.74,7.74,0,0,1-7.74-7.74v-5.08A7.74,7.74,0,0,1,2467.05,1404.5Z" transform="translate(5311.69 2829.56) rotate(-180)"/><path class="cls-13" d="M2480.32,1084.06l-125.52-27.19-7.39,18s138.49,82.41,151.47,78.37S2480.32,1084.06,2480.32,1084.06Z" transform="translate(0 0)"/><path class="cls-13" d="M2594.43,1651.71c3.14,3.6,3.54,7.63,2,11.93a.09.09,0,0,1,0,.06c-2.87,8-12.38,16.83-23.42,25.69-1.41,1.14-2.66,2.18-3.76,3.14l-.84.75-.65.59c-10.3,9.49-6.42,11.67-24.92,30.93-21.09,21.94-35.61,22.34-39.74,20.34-3.5-1.71,3.6-13.35,11.47-26.43.38-.63.75-1.27,1.15-1.91,1-1.73,2.08-3.5,3.12-5.25,9.23-15.74,6.86-23.13,4.67-46.56-1.77-19-29.62-106.37-29.62-106.37l40.42-7s12.17,69.55,25.58,80.26c7.17,5.7,15.2,5.78,22.09,10q.74.43,1.44.9C2587.28,1645.42,2591.27,1648.1,2594.43,1651.71Z" transform="translate(0 0)"/><path class="cls-22" d="M2594.43,1651.71c3.14,3.6,3.54,7.63,2,11.93a.09.09,0,0,1,0,.06c-3.52,7.94-12.78,16.77-23.46,25.61-1.39,1.16-2.62,2.22-3.72,3.22l-.84.75-.65.59c-10.3,9.49-6.42,11.67-24.92,30.93-21.09,21.94-35.61,22.34-39.74,20.34-3.5-1.71,3.6-13.35,11.47-26.43a89.82,89.82,0,0,0,37.6-27.7c12.7-16.21,21.17-37,29.81-49.09q.74.43,1.44.9C2587.28,1645.42,2591.27,1648.1,2594.43,1651.71Z" transform="translate(0 0)"/><path class="cls-13" d="M2268.51,1626.47c-2.49,12.47-20.28,10.39-40.15,5.54s-15.14.91-43.42-2.22-36.85-13.67-37.71-17.88c-.77-3.73,13.2-5,28.19-6.77,1.88-.21,3.78-.44,5.67-.68,16.92-2.12,29.31-13,44.68-22,14.56-8.49,36.29-43.1,36.29-43.1l38.78,3.08s-20.35,30.91-28.22,44.34c-4.63,7.91-4.39,18.36-3.81,26.43C2269.11,1617.59,2269.4,1622.07,2268.51,1626.47Z" transform="translate(0 0)"/><path class="cls-22" d="M2228.36,1632c-19.87-4.86-15.14.91-43.42-2.22s-36.85-13.67-37.71-17.88c-.77-3.73,13.2-5,28.19-6.77l.14.29a79.79,79.79,0,0,0,40.5,12.59c19.18.46,39.5-5,52.75-4.82.3,4.39.59,8.87-.3,13.27C2266,1638.94,2248.23,1636.86,2228.36,1632Z" transform="translate(0 0)"/><path class="cls-13" d="M2354.8,1056.87s-9.24-22.64-19.4-23.56-42.5-6-44.81-1.39,0,21.26,6.93,27.26,49.89,15.71,49.89,15.71Z" transform="translate(0 0)"/><path class="cls-23" d="M2417.13,1378.49l83.58,224.93s12.84,1.25,25.15-2.3c11.33-3.27,24.31-11.84,24.31-11.84s-20.74-216-58.75-260.89S2417.13,1378.49,2417.13,1378.49Z" transform="translate(0 0)"/><path class="cls-22" d="M2747.71,1287.5s-240.16-81.21-293.72-63.93-214.38,337.23-214.38,337.23,3.63,4.83,13.54,8.54c9.21,3.46,31.52,3.24,31.52,3.24s145.13-124.4,162.41-160.68,24.19-70.84,41.46-67.39,222.89,84.66,269.54,36.29,34.45-111.24,34.45-111.24Z" transform="translate(0 0)"/><path class="cls-16" d="M2601,909.72c-3.84-7.92-8.13-22-10.22-47.05.32,2.48,4.64,34.1,16.8,52,49.95,32.8,145.68,142.29,143.78,163,0,0,33.72-57.2,34.31-57.54,0,0,62.2-79.09-11.52-124.4-37.47-23-37.28-52.58-35.72-78.26s-10.22-136.19-85.27-107.27c0,0-12.05-5.35-17.44-4.55,0,0,4.4.85,6.65,3.16-8.71-.52-21.15.13-31.53,6C2583.28,730.51,2558.65,870.79,2601,909.72Z" transform="translate(0 0)"/><path class="cls-13" d="M2610.49,916.31c-.25.11,24.11,12.76,42.44,7.75,17.24-4.7,28.5-27.06,28.26-27.11-7.3-1.45-9.4-11.48-9.25-54.59l-3.3.65-55.49,11s1.26,17.46,1.3,33.92C2614.49,901.73,2613.65,914.83,2610.49,916.31Z" transform="translate(0 0)"/><path class="cls-14" d="M2613.15,854s1.26,17.46,1.3,33.92c31.05-.88,47.47-29.21,54.19-44.91Z" transform="translate(0 0)"/><path class="cls-16" d="M2674.37,837s16.28-25.72,20.18-47.7c2.79-15.7-5.2-73.89-63.67-65.51a79.56,79.56,0,0,0-33,12.46c-12.69,8.57-31,27.08-10.53,77.86l5.32,17.15Z" transform="translate(0 0)"/><path class="cls-13" d="M2602.78,869.58s73.47,1.21,73.52-44.56,9.57-76.43-37.34-79.14-56,14.74-59.77,30S2583.67,868.08,2602.78,869.58Z" transform="translate(0 0)"/><path class="cls-16" d="M2605.5,744.76s20.11,53.69,51,61.63,44.26-.33,44.26-.33a293.9,293.9,0,0,1-16.21-60.46S2620.67,719.2,2605.5,744.76Z" transform="translate(0 0)"/><path class="cls-16" d="M2610.48,749.12s-15,12-18.68,23.64-5.31,35.65-12.31,34.83c0,0-15.15-36.5,1.88-57.14C2599.43,728.56,2610.48,749.12,2610.48,749.12Z" transform="translate(0 0)"/><path class="cls-5" d="M2774.1,1114c7.24-30.38-17.41-89.35-43.14-138.17-23.35-44.24-47.59-80.14-49.77-78.85-61.58,36.55-67.14,6.17-67.14,6.17h0s-55.94,7.43-71.78,34.69c-19.64,33.83-40.87,128.35-61.95,146.25,3.23,9.9,1.84,15.18-1.59,27.46q-1.09,3.95-2.44,7.5a144.93,144.93,0,0,1-10.58,21.74c10.72,6.51,31.41,18.89,46.66,10,23.24-13.61,41.38-55,51.59-71.51l.11-.19c22.19,125.58-8,154.18,7.29,167.43,16.13,14,39.17-6.66,89.85,15.31,33.24,14.42,79.38,35.27,110.43,38.9,16.29,1.91,28.44-.93,32.41-11.93C2815.56,1256.8,2760.27,1171.9,2774.1,1114Z" transform="translate(0 0)"/><path class="cls-1" d="M2619.11,841.83s-1.37,5.82-15.83,4.92c0,0-12.15-.75-11.77-7.14C2591.51,839.61,2603.28,835.06,2619.11,841.83Z" transform="translate(0 0)"/><path class="cls-4" d="M2804.05,1288.76c-4,11-16.12,13.84-32.41,11.93-21.49-9.37-114.35-45.34-113.31-69.72,1.54-36.09,17.85-37.24,6.34-81.78-9.25-35.77,76.54-102.27,90.23-116.73,25.73,48.82,26.44,51.13,19.2,81.51C2760.27,1171.9,2815.56,1256.8,2804.05,1288.76Z" transform="translate(0 0)"/><path class="cls-5" d="M2814.54,1158.6c-16.46-23.12-33.62-35.35-44.91-41.5,2.6-6.69-69.26-94.79-69.26-108.45,0-13.82-19.17-111.7-19.17-111.7s59.87,3.69,80.61,32.61C2787.73,965.72,2841.58,1104.87,2814.54,1158.6Z" transform="translate(0 0)"/><path class="cls-13" d="M2769.63,1117.1,2650,1148.32l11.23,20.16s145.62-1,153.33-9.88S2769.63,1117.1,2769.63,1117.1Z" transform="translate(0 0)"/><path class="cls-4" d="M2564,1079.24c-10.21,16.49-28.35,57.9-51.59,71.51-15.25,8.9-35.94-3.48-46.66-10a144.93,144.93,0,0,0,10.58-21.74c8.56,2,19,4.46,25.72,6.49C2515.11,1129.47,2564,1079.24,2564,1079.24Z" transform="translate(0 0)"/><path class="cls-13" d="M2650,1148.32s-37.58-10.63-46.53-8.14-39.61,22.79-35.3,28.3,31.32-3.3,43.76-1.63,22,7.8,31,6.47a103.51,103.51,0,0,0,18.31-4.84Z" transform="translate(0 0)"/><path class="cls-13" d="M2650,1148.32s-18.39-9.44-23.62-14.82a1.47,1.47,0,0,0-2.28.26c-1.4,2.21-2.71,6.48,3.74,10.72C2637.1,1150.59,2650,1148.32,2650,1148.32Z" transform="translate(0 0)"/><path class="cls-8" d="M2476.33,1201.19h175.31a14,14,0,0,0-14-14H2476.33Z" transform="translate(0 0)"/><polygon class="cls-8" points="2476.83 1010.26 2205.79 1010.26 2270.8 1201.19 2543.6 1201.19 2476.83 1010.26"/><polygon class="cls-6" points="2201.8 1010.26 2266.82 1201.18 2539.61 1201.18 2472.84 1010.26 2201.8 1010.26"/><path class="cls-24" d="M2347.93,1104c1.68,7.29,9,13.21,16.26,13.21s11.84-5.92,10.16-13.21-9-13.21-16.26-13.21S2346.24,1096.66,2347.93,1104Z" transform="translate(0 0)"/><path class="cls-25" d="M2201.79,1010.26l65,190.92h180.65c-119.67-40.84-151.52-165.39-156.87-190.92Z" transform="translate(0 0)"/><path class="cls-26" d="M2988.66,1785.37a7,7,0,0,1-6.94-5.69l-34-193-49-277.5-13.69-77.6,34.87-1,6.06,45.05,42.48,316.57,25.19,187.64A4.91,4.91,0,0,1,2988.66,1785.37Z" transform="translate(0 0)"/><path class="cls-27" d="M2926,1275.67c-22.6,10-27.24,33.55-27.24,33.55l-13.69-77.6,34.87-1Z" transform="translate(0 0)"/><path class="cls-26" d="M2121.2,1785.37a7,7,0,0,0,6.94-5.69l34-193,49-277.5,13.69-77.6-34.88-1-6.05,45.05-42.48,316.57-25.19,187.64A4.91,4.91,0,0,0,2121.2,1785.37Z" transform="translate(0 0)"/><path class="cls-27" d="M2183.91,1275.67c22.6,10,27.24,33.55,27.24,33.55l13.69-77.6-34.88-1Z" transform="translate(0 0)"/><rect class="cls-27" x="2097.55" y="1201.15" width="935.66" height="60.93" rx="21.27"/></svg>