<svg id="Слой_1" data-name="Слой 1" xmlns="http://www.w3.org/2000/svg" viewBox="0 0 3500 2000"><defs><style>.cls-1{fill:#fff;}.cls-2{fill:#e7f3fe;}.cls-3{fill:#9ec8ff;}.cls-4{opacity:0.8;}.cls-5{fill:#f37168;}.cls-6{fill:#cce2ff;}.cls-14,.cls-7{fill:#99bbeb;}.cls-8{fill:#9bd6e8;}.cls-9{fill:#3a384d;}.cls-10{fill:#f09959;}.cls-11{fill:#e38540;}.cls-12{fill:#7a4e34;}.cls-13{fill:#d54a41;}.cls-14{opacity:0.2;}.cls-15{fill:#2e2d3d;}.cls-16{fill:#d5e1e8;}.cls-17{fill:#bdccd4;}.cls-18{fill:#2e5b9a;}.cls-19{fill:#6791c9;}.cls-20{fill:#75a1de;}.cls-21{fill:#f2e5de;}.cls-22{fill:#303c60;}.cls-23{fill:#74b570;}.cls-24{fill:#9cd499;}</style></defs><rect class="cls-1" width="3500" height="2000"/><path class="cls-2" d="M670.22,284.79C1085.7,130.55,1508,266.92,1794.36,563.92s887.44-205,1206.2,91.52c217.54,202.36,117.9,722.64-180.39,948C2414.74,1909.72,1181.75,1754.3,915,1702.18c-307.28-60.06-531.92-242.26-623.19-463.4C71.92,705.94,486.62,353,670.22,284.79Z"/><path class="cls-3" d="M2090.33,499.07a343.3,343.3,0,0,0,2.16-38.29c0-6.83-.23-13.61-.62-20.34L2028.59,420a278.22,278.22,0,0,0-22.41-75.81l42-51.63a342,342,0,0,0-33.23-48.32l-63.29,20.65A281.32,281.32,0,0,0,1889,216.7l3.6-66.49a338.29,338.29,0,0,0-55.24-19.58l-39.08,53.93a281.26,281.26,0,0,0-79-2.07l-36.18-55.93a339,339,0,0,0-56.21,16.61l.08,66.59a281,281,0,0,0-65.11,44.79l-62.08-24A342.39,342.39,0,0,0,1464,277.08l39.18,53.79a278.34,278.34,0,0,0-26.41,74.52l-64.26,17.1a343.3,343.3,0,0,0-2.16,38.29c0,6.83.23,13.61.62,20.34l63.28,20.48a278.32,278.32,0,0,0,22.41,75.81l-42,51.63a342,342,0,0,0,33.23,48.32l63.29-20.65a281.32,281.32,0,0,0,62.65,48.15l-3.6,66.49a338.29,338.29,0,0,0,55.24,19.58L1704.58,737a281.26,281.26,0,0,0,79,2.07L1819.76,795A339,339,0,0,0,1876,778.39l-.08-66.59A280.78,280.78,0,0,0,1941,667l62.08,24a342.39,342.39,0,0,0,35.76-46.49l-39.18-53.79a278,278,0,0,0,26.41-74.52Zm-338.91,95.48a133.78,133.78,0,1,1,133.77-133.77A133.77,133.77,0,0,1,1751.42,594.55Z"/><path class="cls-1" d="M1933.87,613.35a5,5,0,0,1-3.84-8.2,226.31,226.31,0,0,0,39.88-218,5,5,0,1,1,9.45-3.26,236.3,236.3,0,0,1-41.64,227.64A5,5,0,0,1,1933.87,613.35Z"/><path class="cls-1" d="M1914.5,297.61a5,5,0,0,1-3.42-1.36,224.77,224.77,0,0,0-77.79-47.93,5,5,0,0,1,3.42-9.4A234.69,234.69,0,0,1,1917.93,289a5,5,0,0,1-3.43,8.64Z"/><path class="cls-1" d="M1699.53,241.85a5,5,0,0,1-1.22-9.85,237,237,0,0,1,57.92-7.16,5,5,0,0,1,0,10,227,227,0,0,0-55.48,6.86A5.15,5.15,0,0,1,1699.53,241.85Z"/><path class="cls-3" d="M1015.14,1346.11a237,237,0,0,0,1.49-26.52q0-7.1-.43-14.09l-43.82-14.18a192.89,192.89,0,0,0-15.52-52.52L985.92,1203a236.57,236.57,0,0,0-23-33.46l-43.84,14.3a194.44,194.44,0,0,0-43.39-33.35l2.49-46.06a234.65,234.65,0,0,0-38.26-13.56l-27.07,37.35a195.12,195.12,0,0,0-54.72-1.43l-25.06-38.74a236,236,0,0,0-38.93,11.51l.06,46.12a194.87,194.87,0,0,0-45.1,31l-43-16.59a237.07,237.07,0,0,0-24.77,32.2l27.14,37.25a193,193,0,0,0-18.3,51.62l-44.51,11.84a239.59,239.59,0,0,0-1.49,26.53c0,4.73.16,9.43.43,14.09l43.83,14.18a192.72,192.72,0,0,0,15.52,52.51l-29.06,35.76a236.67,236.67,0,0,0,23,33.47l43.83-14.31a194.77,194.77,0,0,0,43.4,33.36l-2.5,46a233.49,233.49,0,0,0,38.27,13.56L748,1510.91a194.9,194.9,0,0,0,32.44,2.72,197.36,197.36,0,0,0,22.28-1.28l25.06,38.73a234.42,234.42,0,0,0,38.93-11.5l0-46.13a194.56,194.56,0,0,0,45.1-31l43,16.59a236.91,236.91,0,0,0,24.76-32.19l-27.13-37.26A192.57,192.57,0,0,0,970.63,1358Zm-234.75,66.14a92.66,92.66,0,1,1,92.66-92.66A92.67,92.67,0,0,1,780.39,1412.25Z"/><path class="cls-1" d="M906.77,1426.8a5,5,0,0,1-3.84-8.2,155.28,155.28,0,0,0,27.35-149.5,5,5,0,0,1,9.45-3.26A165.28,165.28,0,0,1,910.62,1425,5,5,0,0,1,906.77,1426.8Z"/><path class="cls-1" d="M893.35,1208.11a5,5,0,0,1-3.42-1.36,154.11,154.11,0,0,0-53.35-32.87,5,5,0,0,1,3.41-9.4,164,164,0,0,1,56.79,35,5,5,0,0,1-3.43,8.65Z"/><path class="cls-1" d="M744.45,1169.49a5,5,0,0,1-1.22-9.85,165.78,165.78,0,0,1,40.5-5,5,5,0,0,1,0,10,155.63,155.63,0,0,0-38.05,4.7A4.72,4.72,0,0,1,744.45,1169.49Z"/><path class="cls-3" d="M2294.58,753.84q0-3.87-.21-7.7l32.84-26.37a175.42,175.42,0,0,0-11.93-37.72l-42.4-3.21a141.15,141.15,0,0,0-36.71-38.94l-.14-42.26a175.14,175.14,0,0,0-37.59-14.5l-29,31.19a140.72,140.72,0,0,0-52.11,4.08l-33.23-26.31A176.23,176.23,0,0,0,2049,612.48l6.29,41.89a140.71,140.71,0,0,0-29.6,43.19l-41.34,9.59a176.14,176.14,0,0,0-6.11,39.85l36.41,21a139.52,139.52,0,0,0,15.58,51.45L2012,857.68a177.23,177.23,0,0,0,26.79,29.15l39-15.29A139.5,139.5,0,0,0,2129.28,892l18.4,37.89c2.19.08,4.39.14,6.61.14a177.07,177.07,0,0,0,32.28-3L2199,886.89a140.11,140.11,0,0,0,48.44-28.12l41,9.22a176.8,176.8,0,0,0,21.86-32.28l-23.79-34.94A140,140,0,0,0,2294.58,753.84Zm-141.87,61.83a59.11,59.11,0,1,1,59.11-59.11A59.11,59.11,0,0,1,2152.71,815.67Z"/><g class="cls-4"><path class="cls-3" d="M2841,413.32h-50.8a35.62,35.62,0,0,1-35.58-35.58v-50.8a35.62,35.62,0,0,1,35.58-35.57H2841a35.62,35.62,0,0,1,35.58,35.57v50.8A35.62,35.62,0,0,1,2841,413.32Zm-50.8-107.95a21.6,21.6,0,0,0-21.58,21.57v50.8a21.6,21.6,0,0,0,21.58,21.58H2841a21.6,21.6,0,0,0,21.58-21.58v-50.8A21.6,21.6,0,0,0,2841,305.37Z"/></g><g class="cls-4"><path class="cls-3" d="M2601.94,413.32h-50.81a35.62,35.62,0,0,1-35.57-35.58v-50.8a35.61,35.61,0,0,1,35.57-35.57h50.81a35.61,35.61,0,0,1,35.57,35.57v50.8A35.62,35.62,0,0,1,2601.94,413.32Zm-50.81-107.95a21.6,21.6,0,0,0-21.57,21.57v50.8a21.6,21.6,0,0,0,21.57,21.58h50.81a21.6,21.6,0,0,0,21.57-21.58v-50.8a21.6,21.6,0,0,0-21.57-21.57Z"/></g><path class="cls-5" d="M2579.71,383.74h-.29a6,6,0,0,1-4.47-2.35l-36.51-47.62a6,6,0,0,1,9.52-7.3l32.2,42,84.07-90.07a6,6,0,1,1,8.77,8.19l-88.9,95.25A6,6,0,0,1,2579.71,383.74Z"/><path class="cls-6" d="M3008.89,1725.26c-208-10.17-915.46,7.06-1130.63,13.77s-464.93-8.86-594.67-31.76-879.67,2-845.64,63.53,334.13,27.54,674.45,52.29,1105.7-3.09,1278.34,0,331-6.18,553.45-18.56S3129.45,1731.15,3008.89,1725.26Z"/><rect class="cls-7" x="448.4" y="437.6" width="434.74" height="712.57"/><rect class="cls-1" x="471.17" y="452.12" width="397.68" height="670.89"/><path class="cls-8" d="M590.12,721.15c15-32.21,40.3-42.52,81.9-42.52,49.54,0,75.26,18,82.55,44.07C665.86,723.92,590.12,721.15,590.12,721.15Z"/><path class="cls-9" d="M654.73,522c-21,5.88-20.05,17.67-27,28.6s-22.18,18.23-24,25.52,4.68,22.48-3,31-10.33,12.75-7.29,21.26,9.72,21.87,10.33,23.7,9.11,14.58,19.44,16.4,29.77,4.86,39.49,9.11,41-5.44,58.33-4.83,29.16-12.18,27.95-20.68,12.79-25.52,12.76-40.1c0-15.66-18.23-27.34-23.09-37.67S739.18,545.76,721,535c-11.52-6.83-19.44-6.22-28.55-9.26S668.09,518.27,654.73,522Z"/><path class="cls-10" d="M680.24,704.34c-4.74,7-8.22,7.29-13.36,0-4.1-5.8-12.15-19-12.15-25.65V612a12.18,12.18,0,0,1,12.15-12.15h13.36A12.18,12.18,0,0,1,692.4,612v66.7C692.4,685.37,684.5,698.06,680.24,704.34Z"/><path class="cls-11" d="M680.24,599.84H666.88A12.18,12.18,0,0,0,654.73,612V671.5c15,4.78,28.7-4.72,37.67-15.42V612A12.18,12.18,0,0,0,680.24,599.84Z"/><ellipse class="cls-10" cx="673.56" cy="600.51" rx="40.4" ry="55.05"/><path class="cls-9" d="M692.4,556.7c-25.52,43.14-63.19,38.88-63.19,38.88s.91-57.11,30.83-60.15,47.54,9,53.62,28.79,0,32.88,0,32.88a52.4,52.4,0,0,1-14.58-19.75A141.63,141.63,0,0,1,692.4,556.7Z"/><ellipse class="cls-10" cx="627.69" cy="604.22" rx="10.63" ry="15.95" transform="translate(-198.52 327.72) rotate(-25.41)"/><path class="cls-10" d="M708,599.66c-3.77,8-2.54,16.45,2.77,19s12.66-1.89,16.44-9.84,2.55-16.45-2.76-19S711.78,591.71,708,599.66Z"/><path class="cls-1" d="M688.75,630.37s-6.8,8.81-15.19,8.81-15.19-8.81-15.19-8.81Z"/><path class="cls-7" d="M721.66,808.48h-102a11.87,11.87,0,0,1,0-23.73h102a11.87,11.87,0,0,1,0,23.73Z"/><path class="cls-7" d="M740.34,844.93H600.94a11.87,11.87,0,0,1,0-23.73h139.4a11.87,11.87,0,0,1,0,23.73Z"/><path class="cls-7" d="M840.18,976H501.1a6.89,6.89,0,0,1,0-13.77H840.18a6.89,6.89,0,0,1,0,13.77Z"/><path class="cls-7" d="M840.18,1008H501.1a6.89,6.89,0,0,1,0-13.77H840.18a6.89,6.89,0,0,1,0,13.77Z"/><path class="cls-7" d="M840.18,1040H501.1a6.89,6.89,0,0,1,0-13.77H840.18a6.89,6.89,0,0,1,0,13.77Z"/><path class="cls-7" d="M792.75,729.06H548.53a12.3,12.3,0,0,1-12.29-12.29V491.68a12.3,12.3,0,0,1,12.29-12.29H792.75A12.3,12.3,0,0,1,805,491.68V716.77A12.3,12.3,0,0,1,792.75,729.06ZM548.53,489.39a2.32,2.32,0,0,0-2.29,2.29V716.77a2.32,2.32,0,0,0,2.29,2.29H792.75a2.32,2.32,0,0,0,2.29-2.29V491.68a2.32,2.32,0,0,0-2.29-2.29Z"/><polygon class="cls-7" points="583.77 875.88 590.84 890.21 606.65 892.51 595.21 903.66 597.91 919.4 583.77 911.97 569.63 919.4 572.33 903.66 560.89 892.51 576.7 890.21 583.77 875.88"/><polygon class="cls-7" points="641.68 875.88 648.75 890.21 664.56 892.51 653.12 903.66 655.82 919.4 641.68 911.97 627.54 919.4 630.24 903.66 618.8 892.51 634.61 890.21 641.68 875.88"/><polygon class="cls-7" points="699.6 875.88 706.67 890.21 722.48 892.51 711.04 903.66 713.74 919.4 699.6 911.97 685.46 919.4 688.16 903.66 676.72 892.51 692.53 890.21 699.6 875.88"/><polygon class="cls-7" points="757.51 875.88 764.58 890.21 780.39 892.51 768.95 903.66 771.65 919.4 757.51 911.97 743.37 919.4 746.07 903.66 734.63 892.51 750.44 890.21 757.51 875.88"/><rect class="cls-7" x="1417.62" y="437.6" width="434.74" height="712.57"/><rect class="cls-1" x="1440.38" y="452.12" width="397.68" height="670.89"/><path class="cls-12" d="M1578.23,596.88c0,31.91,19.21,83.41,64.54,81.76s55.36-50.74,57.12-64.59S1578.23,596.88,1578.23,596.88Z"/><path class="cls-13" d="M1559.34,721.15c15-32.21,40.3-42.52,81.9-42.52,49.53,0,75.25,18,82.54,44.07C1635.08,723.92,1559.34,721.15,1559.34,721.15Z"/><path class="cls-10" d="M1649.46,704.34c-4.75,7-8.22,7.29-13.37,0-4.09-5.8-12.15-19-12.15-25.65V612a12.18,12.18,0,0,1,12.15-12.15h13.37A12.18,12.18,0,0,1,1661.61,612v66.7C1661.61,685.37,1653.71,698.06,1649.46,704.34Z"/><path class="cls-11" d="M1649.46,599.84h-13.37A12.18,12.18,0,0,0,1623.94,612V671.5c15,4.78,28.71-4.72,37.67-15.42V612A12.18,12.18,0,0,0,1649.46,599.84Z"/><ellipse class="cls-10" cx="1642.77" cy="600.51" rx="40.4" ry="55.05"/><path class="cls-12" d="M1665,558.67c-4.8,16.93-15.32,16.73-30,22.29s-21.68,11.15-26.48,22c-6.13,13.81,2.78,54.08,2.78,54.08s-37.15-27.79-32.86-71.51,30.08-60.65,54.33-60.65,33.49,14.78,33.49,14.78,12.92.06,25.14,14.53c16.43,19.46,11.37,66.72,0,83.65s-19,22.23-18.7,21.48,10.61-39.64,5.06-63.68S1665,558.67,1665,558.67Z"/><path class="cls-1" d="M1658,630.37s-6.8,8.81-15.19,8.81-15.18-8.81-15.18-8.81Z"/><path class="cls-7" d="M1690.87,808.48h-102a11.87,11.87,0,1,1,0-23.73h102a11.87,11.87,0,0,1,0,23.73Z"/><path class="cls-7" d="M1709.55,844.93H1570.16a11.87,11.87,0,1,1,0-23.73h139.39a11.87,11.87,0,0,1,0,23.73Z"/><path class="cls-7" d="M1809.39,976H1470.32a6.89,6.89,0,1,1,0-13.77h339.07a6.89,6.89,0,1,1,0,13.77Z"/><path class="cls-7" d="M1809.39,1008H1470.32a6.89,6.89,0,1,1,0-13.77h339.07a6.89,6.89,0,1,1,0,13.77Z"/><path class="cls-7" d="M1809.39,1040H1470.32a6.89,6.89,0,1,1,0-13.77h339.07a6.89,6.89,0,1,1,0,13.77Z"/><path class="cls-7" d="M1762,729.06H1517.74a12.3,12.3,0,0,1-12.29-12.29V491.68a12.3,12.3,0,0,1,12.29-12.29H1762a12.3,12.3,0,0,1,12.29,12.29V716.77A12.3,12.3,0,0,1,1762,729.06ZM1517.74,489.39a2.32,2.32,0,0,0-2.29,2.29V716.77a2.32,2.32,0,0,0,2.29,2.29H1762a2.32,2.32,0,0,0,2.29-2.29V491.68a2.32,2.32,0,0,0-2.29-2.29Z"/><polygon class="cls-7" points="1552.98 875.88 1560.05 890.21 1575.86 892.51 1564.42 903.66 1567.12 919.4 1552.98 911.97 1538.84 919.4 1541.54 903.66 1530.1 892.51 1545.91 890.21 1552.98 875.88"/><polygon class="cls-7" points="1610.9 875.88 1617.97 890.21 1633.78 892.51 1622.34 903.66 1625.04 919.4 1610.9 911.97 1596.76 919.4 1599.46 903.66 1588.02 892.51 1603.83 890.21 1610.9 875.88"/><polygon class="cls-7" points="1668.81 875.88 1675.88 890.21 1691.69 892.51 1680.25 903.66 1682.95 919.4 1668.81 911.97 1654.67 919.4 1657.37 903.66 1645.93 892.51 1661.74 890.21 1668.81 875.88"/><polygon class="cls-7" points="1726.72 875.88 1733.8 890.21 1749.61 892.51 1738.17 903.66 1740.87 919.4 1726.72 911.97 1712.58 919.4 1715.28 903.66 1703.84 892.51 1719.65 890.21 1726.72 875.88"/><polygon class="cls-14" points="1466.49 1143.04 780.39 1143.04 828.92 440.24 1491.22 440.24 1466.49 1143.04"/><rect class="cls-7" x="852.46" y="307.25" width="593.79" height="973.26"/><rect class="cls-1" x="883.56" y="327.08" width="543.18" height="916.34"/><path class="cls-15" d="M1104.53,519.55c-.38-1.13-9.89-55.72-11-76.94s34.12-24.26,34.12-24.26,28.8-15.54,49.65-7.58,35,21.35,44.51,38-8.33,68.65-8.33,68.65Z"/><path class="cls-16" d="M1039.17,694.93c-.13-.9,2.44-22.38,2.53-23.25,4.8-45.23,60.56-58,116.19-58,65.37,0,109.72,12,116.8,59,.21,1.38,4,22.91,3.79,24.36C1157.32,698.71,1039.17,694.93,1039.17,694.93Z"/><path class="cls-10" d="M1169.12,648.83c-6.48,9.56-11.23,10-18.26,0-5.59-7.91-24.25-26-24.25-35.11l7.66-91a16.65,16.65,0,0,1,16.59-16.6h18.26a16.65,16.65,0,0,1,16.6,16.6l3.56,91C1189.28,622.85,1174.93,640.26,1169.12,648.83Z"/><path class="cls-11" d="M1169.12,506.1h-18.26a16.65,16.65,0,0,0-16.59,16.6l-6.65,80.75c20.5,6.53,48.18-6.74,60.42-21.35l-2.32-59.4A16.65,16.65,0,0,0,1169.12,506.1Z"/><path class="cls-17" d="M1097.34,620.36l29.27,54.1s15.66-12.89,17.18-10.36-2.78,34.42-2.78,34.42,34.87.47,36.39-1-7.08-34.64-3.54-34.64,14.18,9.61,14.18,9.61l32.68-52.08-7.18-1.75L1160,647.42l-57.26-28.18Z"/><polygon class="cls-13" points="1130.81 645.29 1152.55 659.87 1145.81 698.59 1175.12 696.95 1167.8 661.74 1185.82 645.29 1177.36 637.31 1139.27 637.31 1130.81 645.29"/><path class="cls-16" d="M1128.12,593.85l-26.88,25.58s27.39,48.71,28.9,48.71,23.25-26.86,23.25-26.86l13.91-.24,22,23.06,25.53-45.18-26-27.6s-22.24,43-26.28,44-4.07,1.52-7.34-1S1128.12,593.85,1128.12,593.85Z"/><ellipse class="cls-10" cx="1159.99" cy="507.02" rx="55.18" ry="75.19"/><path class="cls-10" d="M1110.46,505.86c5.16,10.87,3.47,22.47-3.78,25.91s-17.3-2.58-22.46-13.45-3.47-22.46,3.77-25.9S1105.3,495,1110.46,505.86Z"/><path class="cls-10" d="M1207,505.86c-5.16,10.87-3.47,22.47,3.77,25.91s17.3-2.58,22.46-13.45,3.48-22.46-3.77-25.9S1212.2,495,1207,505.86Z"/><path class="cls-1" d="M1184.47,537.88s-11,17.75-24.48,17.75-24.48-17.75-24.48-17.75Z"/><path class="cls-15" d="M1127.62,455.87c22.74-15.92,33-13.26,50,12.89s37.53,26.62,37.53,26.62l2.65-27.12s-25.41-49.16-59.52-42.71-53.5,37.15-53.5,37.15-1.66,57.54,3.1,59.51,5.3-18.58,8.71-22.75-3.41-23.88,1.14-33S1127.62,455.87,1127.62,455.87Z"/><path class="cls-15" d="M1200.77,485.44c7.94,8.69,4.93,43.21,9.1,42.83s5.69-33,4.55-36.39S1200.77,485.44,1200.77,485.44Z"/><path class="cls-7" d="M1282.74,813.82H1029.26a16.21,16.21,0,0,1,0-32.41h253.48a16.21,16.21,0,1,1,0,32.41Z"/><path class="cls-7" d="M1251.2,863.61H1060.81a16.21,16.21,0,1,1,0-32.41H1251.2a16.21,16.21,0,0,1,0,32.41Z"/><path class="cls-7" d="M1387.57,1042.66H924.44a9.4,9.4,0,1,1,0-18.8h463.13a9.4,9.4,0,1,1,0,18.8Z"/><path class="cls-7" d="M1387.57,1086.36H924.44a9.4,9.4,0,0,1,0-18.8h463.13a9.4,9.4,0,1,1,0,18.8Z"/><path class="cls-7" d="M1387.57,1130.07H924.44a9.41,9.41,0,0,1,0-18.81h463.13a9.41,9.41,0,0,1,0,18.81Z"/><path class="cls-7" d="M1322.79,703.52H989.21a15,15,0,0,1-15-15V381.12a15,15,0,0,1,15-15h333.58a15,15,0,0,1,15,15V688.56A15,15,0,0,1,1322.79,703.52ZM989.21,376.16a5,5,0,0,0-5,5V688.56a5,5,0,0,0,5,5h333.58a5,5,0,0,0,5-5V381.12a5,5,0,0,0-5-5Z"/><polygon class="cls-7" points="997.17 905.88 1006.83 925.45 1028.42 928.59 1012.8 943.82 1016.49 965.33 997.17 955.17 977.86 965.33 981.54 943.82 965.92 928.59 987.51 925.45 997.17 905.88"/><polygon class="cls-7" points="1076.27 905.88 1085.93 925.45 1107.53 928.59 1091.9 943.82 1095.59 965.33 1076.27 955.17 1056.96 965.33 1060.65 943.82 1045.02 928.59 1066.62 925.45 1076.27 905.88"/><polygon class="cls-7" points="1155.37 905.88 1165.03 925.45 1186.63 928.59 1171 943.82 1174.69 965.33 1155.37 955.17 1136.06 965.33 1139.75 943.82 1124.12 928.59 1145.72 925.45 1155.37 905.88"/><polygon class="cls-7" points="1234.48 905.88 1244.13 925.45 1265.73 928.59 1250.1 943.82 1253.79 965.33 1234.48 955.17 1215.16 965.33 1218.85 943.82 1203.22 928.59 1224.82 925.45 1234.48 905.88"/><polygon class="cls-7" points="1314.84 905.88 1324.49 925.45 1346.09 928.59 1330.46 943.82 1334.15 965.33 1314.84 955.17 1295.52 965.33 1299.21 943.82 1283.58 928.59 1305.18 925.45 1314.84 905.88"/><rect class="cls-18" x="1629.66" y="1220.22" width="778.55" height="29.01" rx="8.29"/><path class="cls-10" d="M2596.11,831.41c10.32,36.39-14.89,73.9-42.67,81.78s-47.6-16.85-57.92-53.25,3.82-72.29,31.6-80.17S2585.78,795,2596.11,831.41Z"/><path class="cls-10" d="M2440.37,1536.71s71.19,110.57,80.81,115.37,33.65,6,24.63,24-12.62,88.94-21,92.54-80.52,12-69.71,0,17.47-6,22.93-27.64,13.13-62.49,2.91-70.91S2408.2,1586,2408.2,1586Z"/><path class="cls-10" d="M2082.07,1584.19s-86.53,142.63-102.56,155.45-68.91,32-25.64,35.25,64.1-14.42,91.34-22.43,60.9-12.82,48.08-33.66-7.5-66.31,20.14-95.15S2082.07,1584.19,2082.07,1584.19Z"/><path class="cls-19" d="M2523.68,1253.46s-214.22-5.6-299.15,64.1c-49.68,75.32-169.86,297.55-179.21,322,6.41,6.41,42.47,18,58.5,16.38,47.27-56.37,109.76-105.1,134.61-149.32,30.62-54.48,40.06-81.73,89.74-86.54s161.86-20.83,195.51-20.83S2523.68,1253.46,2523.68,1253.46Z"/><polygon class="cls-18" points="2710.49 1775.28 2699.26 1775.28 2618.74 1439.32 2643.44 1439.32 2710.49 1775.28"/><polygon class="cls-18" points="2374.11 1775.28 2385.34 1775.28 2477.74 1427.44 2453.04 1427.44 2374.11 1775.28"/><path class="cls-20" d="M2645.72,1238.79l-124.54,21.5s-165.51,1.52-241.16,15.61c-68.83,12.82-79,91,0,198.71,44.86,61.18,82.79,110,160.35,165,19.73-14.48,27.28-20,32.73-54.82-5.61-7.7-20.14-55.87-24.65-65.3-42.91-89.68-100.17-122.29-101-131.12,9.62-15.62,254.69,81.44,303.41,24.35C2697.42,1358.19,2645.72,1238.79,2645.72,1238.79Z"/><path class="cls-5" d="M2650.89,956.83c-32.8-4.61-66.2,1.63-97.45,24.25-27.3,27.83-58.19,73.72-56.3,149.43,2.4,96.15-14.88,102.32,3.15,128.76,75.19,31,203.78,164.45,173.5,21.44-21.93-103.56,48.09-180.75-8.39-295.62C2660.8,975.74,2655.05,966.67,2650.89,956.83Z"/><path class="cls-13" d="M2497.12,1166.69c-1.46,50.13-8.54,64.89-3.13,80.61,30.65,3.13,86.72,15.39,100.73,35,16,22.43,32.06,25.64,24.58,9.08s-27.25-40.06,3.2-120.72,44.87-135.15,15-191.24Z"/><path class="cls-10" d="M2650.89,956.83c-20.19-47.82-25.15-101.54-25.15-101.54l-52.89,15.62s30.05,67.31,1.21,91.34a272.45,272.45,0,0,0-20.62,18.83C2584.69,958.46,2618.09,952.22,2650.89,956.83Z"/><path class="cls-11" d="M2627.33,868c-3.13-2.79-7-6.26-11.17-9.9L2573,870.86l-.09.24c1,2.38,12,28,13.47,52.67,12.85-7.79,26.93-20.51,43-42.72C2628.56,876.12,2627.87,871.73,2627.33,868Z"/><path class="cls-10" d="M2613.72,971.87c-54.47,19-48.43,76.42-98.55,161-26,43.8-50,43.14-50,43.14a1159.74,1159.74,0,0,1-134.42-8.51c-46.09-5.63-49,8.09-17,19.54,64.63,23.11,131.71,48,185.79,42s146.59-144,151.35-179.92C2657.49,999.46,2641.15,962.27,2613.72,971.87Z"/><path class="cls-18" d="M2585.67,1453.32c-3.39,0-6.85,0-10.41-.13-44.39-1.09-74.61-7.23-98.88-12.17-28.35-5.76-44-8.93-62.14-.25a14,14,0,1,1-12.07-25.26c26.63-12.73,48.93-8.2,79.78-1.93,23.2,4.72,52.08,10.59,94,11.62,46.92,1.17,75.52-5.79,90-21.87,12.92-14.33,16.7-38.4,11.9-75.75-1.64-12.79-3.29-23.42-4.74-32.8-4.09-26.47-6.8-44-3.45-71,3.11-25.1,11.42-58.53,30.68-123.37a14,14,0,0,1,26.84,8c-35.88,120.82-34.06,132.58-26.4,182.11,1.48,9.55,3.15,20.37,4.84,33.51,5.92,46.06-.07,77.23-18.87,98.07C2667.41,1443.55,2636,1453.32,2585.67,1453.32Z"/><path class="cls-13" d="M2088,1704.4c-57.42,28.08-88.33,44.18-106.74,42.64-4.34-.36-7.94-.8-11-1.28-20.48,12.11-53.17,26.41-16.39,29.13,43.27,3.21,64.1-14.42,91.34-22.43s60.9-12.82,48.08-33.66A43.61,43.61,0,0,1,2088,1704.4Z"/><path class="cls-13" d="M2527.44,1654.43c-1.41,45.46-7.66,90.51-35.46,99a46.68,46.68,0,0,1-20,1.79c-4.38,5.41-9.71,5.47-16.88,13.42-10.81,12,61.3,3.61,69.71,0s12-74.51,21-92.54C2553.22,1661.31,2538.32,1657.86,2527.44,1654.43Z"/><path class="cls-20" d="M2306.26,1224.19H2123.85a14,14,0,0,1-12.7-8.1l-73.71-158.65a14,14,0,0,1,25.39-11.8l70,150.55h173.48a14,14,0,0,1,0,28Z"/><path class="cls-10" d="M2344.43,1169.13c-36.86-.53-73.42-22.5-91.58-19.3s-77.45,44.34-70,45.94,54.48-22.76,56.08-23.13,11.76,16.87,36.86,23.21.18-18.82,78,4.69C2404.43,1215.82,2344.43,1169.13,2344.43,1169.13Z"/><path class="cls-21" d="M2645.47,913.19l5.42,43.64s-47.69,2.84-71.43,16.19S2520.7,1025,2520.7,1025l28.62-49.27,4.12-31.52Z"/><path class="cls-21" d="M2625.17,966.61c-35.42-6.64-51.81,25.11-74.78,76.92s-62.18,114.75-70,122.86-131.41,0-131.41,0-3.74,35.79,0,40.07,25.11,3.73,25.11,3.73,8.55,6.83,16.56,12.23,75.85,15.55,107.37,13.95,60.36-4.27,64.63-9.08S2653,1090,2658.29,1042.46,2643.25,970,2625.17,966.61Z"/><path class="cls-22" d="M2520.7,748.67c-67,3.2-56.49,104-56.49,104s17.4,5.37,53.86-.64c-2.8-10.82-1.6-38.46-1.6-38.46s4.23,22.43,9.61,36.06c7.71,3.53,16.43.4,31.25-3.19,7.62,32,29.13,45.56,43.85,50.19,16.28,5.12,33.5,11.22,52.73,1.61s8.66-107.91-1.56-127.67c-15.32-29.67-40.8-56.22-84.87-42.2C2545.38,735.4,2520.7,748.67,2520.7,748.67Z"/><path class="cls-22" d="M2637.22,868.37l27.39,40s-30.36,75.86,57.94,110.22c69.15,26.92,61,74.34,29.76,122S2771,1230,2771,1230s7.62-52.83,74.81-62.8c91.61-13.6,117.55-136.59,49.12-198.09-56.62-50.9-73.85-8.75-112.18-54.42s-110.68-14.82-110.68-14.82l-26.52-38.68Z"/><path class="cls-22" d="M2926.45,1093a2.44,2.44,0,0,1-2.14-3.61c23-42.1,4.24-93.1-5.21-106.92-1-1.46-2-3-3-4.52-9.29-14.49-20.85-32.54-82.54-43.64-14.85-2.68-26.88-11.51-39.61-20.86-26.31-19.31-56.12-41.19-120.9-11.38a2.44,2.44,0,0,1-2-4.43c67.38-31,98.43-8.22,125.82,11.89,12.27,9,23.85,17.51,37.6,20,63.77,11.48,76,30.52,85.77,45.82,1,1.53,1.92,3,2.88,4.39,9.9,14.48,29.59,67.91,5.47,112A2.45,2.45,0,0,1,2926.45,1093Z"/><path class="cls-22" d="M2622.59,909.37a97,97,0,0,1-14.23-1.14c-23.44-3.52-54.89-16.84-57.35-91.64a2.44,2.44,0,1,1,4.87-.16c1,30.83,7.13,53.65,18.18,67.81,8.39,10.75,19.52,16.85,35,19.17,21.7,3.25,36.08-.76,42.74-11.91A2.44,2.44,0,0,1,2656,894C2649.89,904.23,2638.68,909.37,2622.59,909.37Z"/><polygon class="cls-18" points="1711.33 1775.28 1729.33 1775.28 1799.36 1239.98 1759.76 1239.98 1711.33 1775.28"/><polygon class="cls-18" points="2322.18 1775.28 2304.18 1775.28 2234.15 1239.98 2273.76 1239.98 2322.18 1775.28"/><path class="cls-23" d="M3028.14,1323.43c31.14,28.44,17.6,56.87-5.42,109.69s-27.08,247.8-27.08,247.8l19-2.71s-2.71-200.41,23-254.57,36.56-81.25,59.58-63.65S3028.14,1323.43,3028.14,1323.43Z"/><path class="cls-24" d="M3011,1286.61c3.78-16.85,26.24-35.09,56.28-50.55-4.47,24.85-18.79,65.49-4,73.83,20,11.24,1.95-45.5,9.66-76.69a371.35,371.35,0,0,1,93.38-30.63l-.12.34c-17.61,44.69-40.63,62.29-31.15,69.06,7.13,5.1,30.36-46.52,61-73,23-1.23,42.5,1.89,54,11,17.81,14.1,29.76,26.61,11.85,69.54-10.23,7.32-23.49,12.56-38.89,14.1-40.62,4.06-59.58,5.42-31.14,19,13.92,6.63,37.26-.38,56.19-4.64-6.14,11.31-13.69,24.11-22.86,38.7a143.57,143.57,0,0,1-19,24.22c-13.09,2.51-24.51,2.54-30.55-.05-19-8.13-67.71-33.86-79.9-23-11.92,10.61,90.29,17.32,83.2,44.27-49.54,28.54-106.23,15-116.25-11.25C3049.33,1345.62,2999.64,1337.34,3011,1286.61Z"/><path class="cls-23" d="M3113.45,1479.16c-54.17-40.63-109.69-2.71-138.12,40.62s-8.13,140.83-8.13,140.83,10.83,0,10.83-4.06-29.79-115.1,40.63-165.21c44.05-31.34,75.83-16.25,79.89-1.35s-17.6,42-17.6,42Z"/><path class="cls-24" d="M2988.87,1395.65c54.16,0,71.77,84,56.87,132.71s-35.21,139.47-35.21,139.47L2997,1654.29s51.46-127.29,39.27-184.16-42-66.36-47.39-66.36S2988.87,1395.65,2988.87,1395.65Z"/><path class="cls-23" d="M3034.3,1528.73a39.33,39.33,0,0,1,14.25-12,105.36,105.36,0,0,1-2.81,11.61c-6.79,22.21-14.7,53.13-21.3,80.22-.6-3.47-1.52-8.82-3-17.06-.34-2-.6-4.07-.79-6.31A523.85,523.85,0,0,0,3034.3,1528.73Z"/><path class="cls-24" d="M3049.11,1529.14c102.91-43.33,48.69-102.8,139.42-63.53,6.39,2.77,14.18,9.75,22,19.36a67.57,67.57,0,0,1-28.74,2.31c-27.09-4.06-17.61,17.6,27.08,23a100.3,100.3,0,0,1,20.94,4.42c21.29,40.89,30.88,94.69-14.17,113.39-8.88,3.69-19.85,5.79-32.07,6.58-13.9-11,3.4-75-18-66.16-20.58,8.47,6.44,54.81,2.74,66.48-20.31-.37-42.8-3.68-64.29-9-8.5-4.76-15-11.15-17-19.56-6.77-28.43,37.91-46,39.27-70.41,1.24-22.41-16.38,49.3-63.07,59.85C3021,1576.16,3001,1549.4,3049.11,1529.14Z"/><path class="cls-24" d="M2975.78,1452.52c10.83-23-17.61-28.43-16.25-10.83,1.2,15.6,1.33,53.52-14.67,63.84-27.59-3-65.13-14.11-93.5-31a11.45,11.45,0,0,1,1.19-7.06c12.19-24.38,90.73-44.69,66.35-52.81-19.41-6.47-53.43,31.72-80.84,51-16.46-12.49-27.49-27.38-27.49-44,0-22.5,27.34-48,62.69-60.14,15.91,1.61,30.68,10.31,53.77,23.39,34.1,19.32,26.21-11.92-6-30.46,27.83,1.44,55.58,13.33,76.05,41.74,0,0-1.94,12.14,10.91,30.93,35.07,51.24-5.4,81.16-53.77,79.21C2956.93,1492.74,2968.29,1468.43,2975.78,1452.52Z"/><path class="cls-23" d="M3110.19,1476.86c26.48,20.46,55.9,44.39,92,60.64s28.89,69.21,28.89,69.21,5.41-45.74-24.68-61.39-49.95-34.3-72.82-37.92-35.51-7.22-35.51-7.22,7.22-14.44,3-19.86S3110.19,1476.86,3110.19,1476.86Z"/><path class="cls-23" d="M3240.72,1236.56c-96.9,25.88-167.92,87.88-181.16,102.92s-13.24,19.26-13.24,19.26l10.23,19.26,4.81-2.4s-7.82-16.26,12.64-37.32c35.29-36.33,78.24-65,107.74-77.64S3240.72,1236.56,3240.72,1236.56Z"/><path class="cls-20" d="M2973.24,1640.2h37a47.67,47.67,0,0,1,47.67,47.67v85.06a0,0,0,0,1,0,0H2925.57a0,0,0,0,1,0,0v-85.06A47.67,47.67,0,0,1,2973.24,1640.2Z" transform="translate(5983.5 3413.13) rotate(180)"/><rect class="cls-1" x="2925.57" y="1655.41" width="132.35" height="9.32"/><rect class="cls-1" x="2925.57" y="1672.4" width="132.35" height="5.48"/><rect class="cls-3" x="546.8" y="1606.98" width="55.73" height="50.16" rx="12.08" transform="translate(1149.34 3264.11) rotate(180)"/><rect class="cls-3" x="445.47" y="1606.98" width="55.73" height="50.16" rx="12.08" transform="translate(946.68 3264.11) rotate(180)"/><rect class="cls-3" x="344.15" y="1606.98" width="55.73" height="50.16" rx="12.08" transform="translate(744.02 3264.11) rotate(180)"/><path class="cls-3" d="M3199.05,681.55h31.58a12.08,12.08,0,0,1,12.08,12.08v26a12.08,12.08,0,0,1-12.08,12.08h-31.58A12.08,12.08,0,0,1,3187,719.63v-26A12.07,12.07,0,0,1,3199.05,681.55Z" transform="translate(3921.47 -2508.22) rotate(90)"/><path class="cls-3" d="M3199.05,782.88h31.58A12.07,12.07,0,0,1,3242.71,795v26A12.08,12.08,0,0,1,3230.63,833h-31.58A12.08,12.08,0,0,1,3187,821V795A12.07,12.07,0,0,1,3199.05,782.88Z" transform="translate(4022.8 -2406.89) rotate(90)"/><path class="cls-3" d="M3199.05,884.21h31.58a12.07,12.07,0,0,1,12.07,12.07v26a12.08,12.08,0,0,1-12.08,12.08h-31.58A12.07,12.07,0,0,1,3187,922.29v-26A12.07,12.07,0,0,1,3199.05,884.21Z" transform="translate(4124.13 -2305.56) rotate(90)"/></svg>