<svg xmlns="http://www.w3.org/2000/svg" xmlns:xlink="http://www.w3.org/1999/xlink" viewBox="0 0 750 500"><defs><style>.cls-1{fill:#9b97f8;}.cls-2{fill:#fff;}.cls-3{fill:#8182ee;}.cls-19,.cls-4,.cls-56,.cls-67,.cls-68{fill:none;}.cls-4,.cls-56{stroke:#fff;}.cls-4,.cls-67,.cls-68{stroke-miterlimit:10;}.cls-5{fill:#a6d0f4;}.cls-6{fill:#cbdceb;}.cls-7{fill:#333;}.cls-8{fill:url(#linear-gradient);}.cls-9{fill:#615d6c;}.cls-10{fill:url(#linear-gradient-2);}.cls-11{fill:#4d4d4d;}.cls-12{fill:url(#linear-gradient-3);}.cls-13{isolation:isolate;}.cls-14{fill:#535685;}.cls-15{fill:#696fa3;}.cls-16{fill:#7b81b3;}.cls-17{fill:#e72e34;}.cls-18{fill:#ff5f55;}.cls-20{fill:url(#linear-gradient-4);}.cls-21{fill:url(#linear-gradient-5);}.cls-22{fill:url(#linear-gradient-6);}.cls-23{fill:#ff8d02;}.cls-24{fill:#ffc757;}.cls-25{fill:#ffe3ab;}.cls-26{fill:#ff4540;}.cls-27{fill:#ff9554;}.cls-28{fill:#e1e8f2;}.cls-29{fill:#171e26;}.cls-30{fill:#1f2f3f;}.cls-31{fill:#f9fbfc;}.cls-32{fill:#673e29;}.cls-33{fill:#113570;}.cls-34{fill:url(#linear-gradient-7);}.cls-35{fill:url(#linear-gradient-8);}.cls-36{fill:url(#linear-gradient-9);}.cls-37{fill:#c7bfce;}.cls-38{fill:#113c7a;}.cls-39{fill:#ff7240;}.cls-40{fill:#cb6a50;}.cls-41{fill:#dbdbdb;}.cls-42{fill:#f58688;}.cls-43{fill:#f5a588;}.cls-44{fill:#cf7a68;}.cls-45{fill:#f5b99c;}.cls-46{fill:#e18b70;}.cls-47{fill:#d78c63;}.cls-48{fill:#ffc5a8;}.cls-49{fill:#bac0d2;}.cls-50{fill:#c7c9d7;}.cls-51{fill:#777db2;opacity:0.2;}.cls-52{fill:url(#linear-gradient-10);}.cls-53{fill:url(#linear-gradient-11);}.cls-54{fill:url(#linear-gradient-12);}.cls-55{fill:#f2f8fd;}.cls-56{stroke-linecap:round;stroke-linejoin:round;stroke-width:2px;stroke-dasharray:0 5;}.cls-57{fill:#f2f9ff;}.cls-58{opacity:0.53;}.cls-59{fill:#bdc5cb;}.cls-60{fill:#eaf1f7;}.cls-61{fill:#4385ff;}.cls-62{fill:#94c3ff;}.cls-63{fill:#dfdfdf;}.cls-64{fill:#1196c3;}.cls-65{fill:#ea5e7a;}.cls-66{fill:#86e563;}.cls-67{stroke:#f9fbfc;}.cls-67,.cls-68{stroke-width:0.78px;}.cls-68{stroke:#c7d8f2;}.cls-69{fill:#e6f4ff;}.cls-70{fill:#aec4e1;}.cls-71{fill:#c7d8f2;}.cls-72{fill:#4b5cc0;}.cls-73{fill:#ff8161;}.cls-74{fill:#575973;}.cls-75{fill:#63687a;}.cls-76{opacity:0.41;}.cls-77{fill:#dedfff;}.cls-78{fill:#2ab774;}.cls-79{fill:#fbc93b;}</style><linearGradient id="linear-gradient" x1="104.23" y1="366.28" x2="167.24" y2="366.28" gradientUnits="userSpaceOnUse"><stop offset="0.16" stop-color="#443f54"/><stop offset="0.55" stop-color="#2a253a"/></linearGradient><linearGradient id="linear-gradient-2" x1="132.46" y1="350.13" x2="138.62" y2="350.13" gradientUnits="userSpaceOnUse"><stop offset="0.05" stop-color="#e5e5e5"/><stop offset="0.55" stop-color="#ccc"/></linearGradient><linearGradient id="linear-gradient-3" x1="131.02" y1="338.41" x2="140.05" y2="338.41" xlink:href="#linear-gradient"/><linearGradient id="linear-gradient-4" x1="634.95" y1="153.64" x2="681.43" y2="153.64" xlink:href="#linear-gradient"/><linearGradient id="linear-gradient-5" x1="655.77" y1="141.73" x2="660.31" y2="141.73" xlink:href="#linear-gradient-2"/><linearGradient id="linear-gradient-6" x1="654.71" y1="133.09" x2="661.37" y2="133.09" xlink:href="#linear-gradient"/><linearGradient id="linear-gradient-7" x1="498.34" y1="276.21" x2="524.84" y2="276.21" xlink:href="#linear-gradient"/><linearGradient id="linear-gradient-8" x1="510.21" y1="269.41" x2="512.81" y2="269.41" xlink:href="#linear-gradient-2"/><linearGradient id="linear-gradient-9" x1="509.61" y1="264.49" x2="513.41" y2="264.49" xlink:href="#linear-gradient"/><linearGradient id="linear-gradient-10" x1="435.41" y1="311.84" x2="461.91" y2="311.84" xlink:href="#linear-gradient"/><linearGradient id="linear-gradient-11" x1="447.28" y1="305.04" x2="449.87" y2="305.04" xlink:href="#linear-gradient-2"/><linearGradient id="linear-gradient-12" x1="446.68" y1="300.12" x2="450.47" y2="300.12" xlink:href="#linear-gradient"/></defs><g id="BACKGROUND"><rect class="cls-1" width="750" height="500"/></g><g id="OBJECTS"><path class="cls-2" d="M207.15,413.7c2.65,1.53,3.14,2.94,1.42,3.94-1.52.88-4,.65-6.58-.82s-2.94-3-1.36-3.91S204.66,412.26,207.15,413.7Zm-4.09,2.51c2,1.18,3.8,1.48,4.75.92s.33-1.64-1.67-2.8-3.67-1.55-4.75-.92c-.92.54-.46,1.58,1.67,2.8"/><path class="cls-2" d="M195.27,421.47l3.24,1.87-1,.6-8-4.62a14.44,14.44,0,0,1,1.84-1.25,6.37,6.37,0,0,1,2.93-.92,4.47,4.47,0,0,1,2.4.57c.73.42,1.1.88,1.11,1.36,0,.66-.56,1.35-1.57,1.94A6.29,6.29,0,0,1,195.27,421.47Zm-.86-.5a4.93,4.93,0,0,0,.94-.45c1.26-.73,1.4-1.52.29-2.17a3.41,3.41,0,0,0-3.48.19,4.58,4.58,0,0,0-.9.62l3.15,1.81"/><polygon class="cls-2" points="196.12 424.73 191.59 427.36 183.49 422.68 187.84 420.15 188.72 420.66 185.41 422.58 187.97 424.06 191.1 422.24 191.96 422.74 188.84 424.56 191.75 426.24 195.24 424.22 196.12 424.73"/><path class="cls-2" d="M182,430.35c1.25.73,1.41,1.88-.48,3a7.77,7.77,0,0,1-2.57.9l-.61-.67a6.64,6.64,0,0,0,2.38-.77c1.07-.62,1.13-1.31.31-1.78s-1.62-.44-3.13,0c-1.78.49-3.27.57-4.42-.09s-1.16-1.87.41-2.78a6.42,6.42,0,0,1,2.17-.8l.56.65a6.07,6.07,0,0,0-1.91.67c-1.1.64-.85,1.27-.3,1.58.76.44,1.62.37,3.16,0C179.49,429.69,180.83,429.67,182,430.35Z"/><polygon class="cls-2" points="183.49 423.72 181.03 425.15 188.24 429.31 187.19 429.92 179.98 425.76 177.53 427.18 176.64 426.66 182.59 423.2 183.49 423.72"/><polygon class="cls-2" points="215.4 413.52 214.39 414.11 207.56 410.17 207.54 410.19 206.93 411.39 205.92 411.05 206.7 409.53 207.59 409.01 215.4 413.52"/><path class="cls-3" d="M700.8,248.11c9.2,5.32,9.25,13.93.11,19.24L658,292.29c-9.15,5.32-24,5.32-33.22,0l-43.2-24.94c-9.2-5.31-9.25-13.92-.1-19.24l42.91-24.94c9.15-5.31,24-5.31,33.22,0Z"/><path class="cls-3" d="M348.3,274.11c9.2,5.32,9.25,13.93.1,19.24l-42.91,24.94c-9.15,5.32-24,5.32-33.22,0l-43.2-24.94c-9.2-5.31-9.25-13.92-.1-19.24l42.91-24.94c9.15-5.31,24-5.31,33.22,0Z"/><polyline class="cls-4" points="236 199 186.67 227 186.67 283.67 158 299.67"/><circle class="cls-2" cx="237" cy="198" r="2"/><polygon class="cls-2" points="186.67 238.25 181.69 246.87 191.64 246.87 186.67 238.25"/><polygon class="cls-2" points="186.67 259.87 183.67 265.06 189.67 265.06 186.67 259.87"/><polyline class="cls-4" points="315.33 301.67 366.67 334.33 366.67 304.33 398 323 408.67 314.33"/><polygon class="cls-2" points="366.92 316.65 363.58 322.42 370.25 322.42 366.92 316.65"/><polygon class="cls-2" points="339.85 313.95 341.59 317.68 335.15 316.68 339.85 313.95"/><polygon class="cls-2" points="435.18 344.95 436.92 348.68 430.48 347.68 435.18 344.95"/><polyline class="cls-4" points="544.67 286.33 590 259 590 238.33 611 224.75"/><polygon class="cls-2" points="590.42 247.15 587.08 252.92 593.75 252.92 590.42 247.15"/><path class="cls-3" d="M195.8,390.11c9.2,5.32,9.25,13.93.1,19.24L153,434.29c-9.15,5.32-24,5.32-33.22,0l-43.2-24.94c-9.2-5.31-9.25-13.92-.11-19.24l42.92-24.94c9.15-5.31,24-5.31,33.22,0Z"/><path class="cls-4" d="M195.8,377.45c9.2,5.31,9.25,13.92.1,19.24L153,421.63c-9.15,5.31-24,5.31-33.22,0l-43.2-24.94c-9.2-5.32-9.25-13.93-.11-19.24l42.92-24.94c9.15-5.32,24-5.32,33.22,0Z"/><path class="cls-5" d="M211.1,374l-53.84,31.29c-11.47,6.67-30.12,6.67-41.67,0L61.4,374c-5.81-3.35-8.71-7.75-8.7-12.15v6.23c0,4.39,2.88,8.8,8.69,12.15l54.2,31.29c11.54,6.66,30.2,6.66,41.67,0l53.84-31.29c5.69-3.31,8.55-7.64,8.56-12l0-6.23C219.65,366.39,216.8,370.72,211.1,374Z"/><path class="cls-2" d="M211,349.9c11.54,6.66,11.6,17.47.13,24.13l-53.84,31.29c-11.47,6.67-30.12,6.67-41.67,0L61.4,374c-11.54-6.66-11.6-17.47-.13-24.13l53.84-31.29c11.47-6.67,30.12-6.67,41.66,0Z"/><path class="cls-4" d="M348.3,262.61c9.2,5.32,9.25,13.93.1,19.24l-42.91,24.94c-9.15,5.32-24,5.32-33.22,0l-43.2-24.94c-9.2-5.31-9.25-13.92-.1-19.24l42.91-24.94c9.15-5.31,24-5.31,33.22,0Z"/><path class="cls-5" d="M363.6,247.2l-53.84,31.29c-11.47,6.66-30.12,6.66-41.67,0L213.9,247.2c-5.81-3.35-8.71-7.76-8.7-12.15v6.22c0,4.4,2.88,8.8,8.69,12.16l54.2,31.28c11.54,6.67,30.2,6.67,41.67,0l53.84-31.28c5.69-3.32,8.55-7.65,8.56-12l0-6.22C372.15,239.55,369.3,243.89,363.6,247.2Z"/><path class="cls-2" d="M363.47,223.06c11.54,6.67,11.6,17.47.13,24.14l-53.84,31.29c-11.47,6.66-30.12,6.66-41.67,0L213.9,247.2c-11.54-6.67-11.6-17.47-.13-24.14l53.84-31.29c11.47-6.66,30.12-6.66,41.67,0Z"/><path class="cls-6" d="M178.28,355.17c6.5,3.75,6.53,9.84.08,13.59l-30.31,17.61c-6.46,3.75-17,3.75-23.46,0l-30.5-17.61c-6.5-3.75-6.53-9.84-.08-13.59l30.31-17.61c6.46-3.75,17-3.75,23.45,0Z"/><path class="cls-7" d="M139.05,377.92a3.3,3.3,0,1,1-3.3-3.3A3.3,3.3,0,0,1,139.05,377.92Z"/><path class="cls-7" d="M108.93,359.67a3.3,3.3,0,1,1-3.3-3.3A3.3,3.3,0,0,1,108.93,359.67Z"/><path class="cls-7" d="M169.18,359.67a3.3,3.3,0,1,1-3.3-3.3A3.3,3.3,0,0,1,169.18,359.67Z"/><path class="cls-8" d="M140.84,359.19a5.45,5.45,0,0,1-.53.36,7.86,7.86,0,0,1-.71.36L138,375.21h-4.33l-1.76-15.3a6,6,0,0,1-.67-.33,4.89,4.89,0,0,1-.58-.39l-26.42-1,0-2.51v4.14l26.42,1a5,5,0,0,0,.59.39,6,6,0,0,0,.67.33h0l1.76,15.3H138l1.59-15.3a6.73,6.73,0,0,0,.71-.36l0,0a4.07,4.07,0,0,0,.48-.33l26.41-1v-1.63Z"/><path class="cls-9" d="M167.24,355.71v2.51l-26.4,1a6.2,6.2,0,0,1-1.24.72L138,375.21h-4.33l-1.76-15.3a6,6,0,0,1-.67-.33,4.89,4.89,0,0,1-.58-.39l-26.42-1,0-2.51,26.41-1a6.5,6.5,0,0,1,1.25-.72l1.58-15.3h4.33L139.56,354a6,6,0,0,1,.67.33,4.89,4.89,0,0,1,.58.39Z"/><path class="cls-10" d="M138.22,342.44a2.28,2.28,0,0,0-.5-.39,4.85,4.85,0,0,0-4.36,0,2.28,2.28,0,0,0-.5.39h-.4v14.5a1.53,1.53,0,0,0,.9,1.26,4.85,4.85,0,0,0,4.36,0,1.53,1.53,0,0,0,.9-1.26v-14.5Z"/><path class="cls-11" d="M137.72,341.18a1.33,1.33,0,0,1,0,2.51,4.79,4.79,0,0,1-4.36,0,1.33,1.33,0,0,1,0-2.51A4.79,4.79,0,0,1,137.72,341.18Z"/><path class="cls-12" d="M139.47,332.25a4.56,4.56,0,0,0-2.08-1.1,7,7,0,0,0-3.7,0,4.51,4.51,0,0,0-2.08,1.1H131v11c0,.92.85,1.85,2.54,2.35a7,7,0,0,0,3.95,0c1.7-.5,2.54-1.43,2.54-2.35v-11Z"/><path class="cls-11" d="M137.51,329.9c3.39,1,3.39,3.7,0,4.7a6.81,6.81,0,0,1-3.95,0c-3.38-1-3.38-3.69,0-4.7A7,7,0,0,1,137.51,329.9Z"/><g class="cls-13"><polygon class="cls-14" points="127.28 348.71 92.04 328.23 92.03 325.32 127.27 345.8 127.28 348.71"/><polygon class="cls-15" points="127.27 345.8 92.03 325.32 94.14 319.95 129.38 340.43 127.27 345.8"/><polygon class="cls-16" points="129.38 340.43 94.14 319.95 126.47 301.28 161.71 321.76 129.38 340.43"/><polygon class="cls-16" points="166.36 266.28 131.12 245.8 137.74 241.98 172.98 262.45 166.36 266.28"/><polygon class="cls-15" points="161.71 321.76 126.47 301.28 131.12 245.8 166.36 266.28 161.71 321.76"/><polygon class="cls-14" points="166.36 266.28 172.98 262.45 169.13 324.55 161.09 329.2 127.28 348.71 127.27 345.8 129.38 340.43 161.71 321.76 166.36 266.28"/></g><polygon class="cls-15" points="145.8 330.76 151.68 327.51 143.8 323.14 145.8 330.76"/><path class="cls-17" d="M141.33,320.21a6.72,6.72,0,0,1,3,5.27l0,10.32c0,1.94-1.38,2.72-3.06,1.75l-42.4-24.48a6.67,6.67,0,0,1-3-5.27l0-10.33c0-1.93,1.37-2.71,3.06-1.74Z"/><path class="cls-18" d="M143.47,319l-42.4-24.48a2.16,2.16,0,0,0-2.17-.22l-2.14,1.25a2.15,2.15,0,0,1,2.17.21l42.4,24.48a6.72,6.72,0,0,1,3,5.27l0,10.32a2.16,2.16,0,0,1-.89,2l2.14-1.24a2.14,2.14,0,0,0,.89-2l0-10.32A6.72,6.72,0,0,0,143.47,319Z"/><path class="cls-2" d="M112.81,309.78l1.91,7.6-.78-.45-.6-2.39-2-1.16-.59,1.7-.76-.43,1.94-5.38Zm-1.31,3,1.69,1-.55-2.19c-.12-.49-.2-.93-.29-1.35h0c-.08.33-.18.68-.29,1l-.55,1.56"/><path class="cls-2" d="M110.31,308.33l-2,5.32-.8-.46-1.82-7.55.78.46.87,3.7c.24,1,.45,1.92.6,2.77h0a18.38,18.38,0,0,1,.65-2l1-2.66Z"/><path class="cls-2" d="M118.05,312.7a5.51,5.51,0,0,1,1.34,1.06l-.18.58a4.59,4.59,0,0,0-1.14-.93c-1.32-.76-2.2-.29-2.21,1.41a4.4,4.4,0,0,0,2.17,3.86,2.9,2.9,0,0,0,1.19.41l.14.76a3.69,3.69,0,0,1-1.49-.56,5.64,5.64,0,0,1-2.77-4.88C115.1,312.38,116.3,311.69,118.05,312.7Z"/><path class="cls-2" d="M122.7,315.49l1.9,7.59-.78-.45-.59-2.38-2-1.16-.58,1.71-.76-.44,1.94-5.38Zm-1.32,3,1.7,1-.55-2.19c-.12-.49-.2-.93-.29-1.35h0c-.08.33-.17.68-.28,1l-.56,1.56"/><path class="cls-2" d="M129.68,319.52V326l-.74-.43-1.78-4.33c-.39-.94-.77-1.9-1.05-2.77h0c.05.84.06,1.63.05,2.7V324l-.69-.4,0-6.48.79.46,1.8,4.32c.42,1,.74,1.87,1,2.69h0c-.07-.9-.08-1.7-.08-2.71v-2.71Z"/><polygon class="cls-2" points="134.49 322.3 134.49 323.01 132.76 322.01 132.75 327.79 132.01 327.36 132.02 321.59 130.31 320.6 130.31 319.89 134.49 322.3"/><line class="cls-19" x1="384.43" y1="318.26" x2="384.18" y2="318.26"/><path class="cls-4" d="M702.3,189.61c9.2,5.32,9.25,13.93.11,19.24l-42.92,25c-9.15,5.31-24,5.31-33.22,0l-43.2-24.94c-9.2-5.32-9.25-13.93-.1-19.24l42.91-25c9.15-5.31,24-5.31,33.22,0Z"/><path class="cls-5" d="M717.6,174.2l-53.84,31.29c-11.47,6.67-30.12,6.67-41.67,0L567.9,174.2c-5.81-3.35-8.71-7.75-8.7-12.15v6.23c0,4.39,2.88,8.8,8.69,12.15l54.2,31.29c11.54,6.66,30.2,6.66,41.67,0l53.84-31.29c5.69-3.31,8.55-7.65,8.56-12l0-6.23C726.15,166.56,723.3,170.89,717.6,174.2Z"/><path class="cls-2" d="M717.47,150.07c11.54,6.66,11.6,17.47.13,24.13l-53.84,31.29c-11.47,6.67-30.12,6.67-41.67,0L567.9,174.2c-11.54-6.66-11.6-17.47-.13-24.13l53.84-31.29c11.47-6.67,30.12-6.67,41.67,0Z"/><path class="cls-6" d="M689.56,145.45c4.8,2.77,4.82,7.25.06,10l-22.35,13c-4.76,2.77-12.51,2.77-17.3,0l-22.5-13c-4.79-2.77-4.82-7.25-.06-10l22.36-13c4.76-2.77,12.5-2.77,17.3,0Z"/><path class="cls-7" d="M660.63,162.23a2.44,2.44,0,1,1-2.43-2.44A2.43,2.43,0,0,1,660.63,162.23Z"/><path class="cls-7" d="M638.41,148.77a2.43,2.43,0,1,1-2.43-2.44A2.43,2.43,0,0,1,638.41,148.77Z"/><path class="cls-7" d="M682.85,148.77a2.44,2.44,0,1,1-2.43-2.44A2.43,2.43,0,0,1,682.85,148.77Z"/><path class="cls-20" d="M662,148.41a3.77,3.77,0,0,1-.39.26,4.39,4.39,0,0,1-.53.27l-1.17,11.29h-3.19l-1.3-11.29a3.71,3.71,0,0,1-.49-.24,4.61,4.61,0,0,1-.43-.29L635,147.7v1.2l19.49.71a3.58,3.58,0,0,0,.43.29c.15.09.32.17.49.25h0l1.3,11.28h3.19L661,150.15l.52-.27,0,0a3.27,3.27,0,0,0,.36-.25l19.47-.71v-1.2Z"/><path class="cls-9" d="M681.42,145.85v1.85l-19.48.71a4.27,4.27,0,0,1-.92.53l-1.17,11.29h-3.19l-1.3-11.29a3.71,3.71,0,0,1-.49-.24,4.61,4.61,0,0,1-.43-.29L635,147.7v-1.85l19.48-.72a4.27,4.27,0,0,1,.92-.53l1.16-11.28h3.2L661,144.6a4.66,4.66,0,0,1,.5.25,2.69,2.69,0,0,1,.43.29Z"/><path class="cls-21" d="M660,136.05a1.88,1.88,0,0,0-.37-.28,3.58,3.58,0,0,0-3.22,0,2.24,2.24,0,0,0-.37.28h-.29v10.7a1.13,1.13,0,0,0,.66.93,3.58,3.58,0,0,0,3.22,0,1.13,1.13,0,0,0,.66-.93v-10.7Z"/><path class="cls-11" d="M659.65,135.13a1,1,0,0,1,0,1.85,3.58,3.58,0,0,1-3.22,0,1,1,0,0,1,0-1.85A3.52,3.52,0,0,1,659.65,135.13Z"/><path class="cls-22" d="M660.94,128.54a3.37,3.37,0,0,0-1.54-.81,5.23,5.23,0,0,0-2.72,0,3.37,3.37,0,0,0-1.54.81h-.43v8.14c0,.68.63,1.36,1.87,1.73a5.18,5.18,0,0,0,2.92,0c1.25-.37,1.87-1,1.87-1.73v-8.14Z"/><path class="cls-11" d="M659.5,126.81c2.49.74,2.49,2.73,0,3.47a5.18,5.18,0,0,1-2.92,0c-2.49-.74-2.49-2.73,0-3.47A5.18,5.18,0,0,1,659.5,126.81Z"/><g class="cls-13"><polygon class="cls-14" points="651.95 140.68 625.96 125.58 625.95 123.43 651.94 138.53 651.95 140.68"/><polygon class="cls-15" points="651.94 138.53 625.95 123.43 627.51 119.47 653.5 134.57 651.94 138.53"/><polygon class="cls-16" points="653.5 134.57 627.51 119.47 651.36 105.7 677.35 120.8 653.5 134.57"/><polygon class="cls-16" points="680.77 79.88 654.78 64.78 659.66 61.96 685.66 77.06 680.77 79.88"/><polygon class="cls-15" points="677.35 120.8 651.36 105.7 654.78 64.78 680.77 79.88 677.35 120.8"/><polygon class="cls-14" points="680.77 79.88 685.66 77.06 682.82 122.86 676.89 126.29 651.95 140.68 651.94 138.53 653.5 134.57 677.35 120.8 680.77 79.88"/></g><path class="cls-23" d="M641.31,82.79,637.66,84a1.59,1.59,0,0,1,.39-.07,1.23,1.23,0,0,0,.39-.06l3.65-1.2a1.21,1.21,0,0,1-.38.06A1.67,1.67,0,0,0,641.31,82.79Z"/><path class="cls-23" d="M650.76,120a1.31,1.31,0,0,1-.44.25l3.65-1.2a1.31,1.31,0,0,0,.44-.25,1.36,1.36,0,0,1,.44-.24l-3.66,1.2A1.31,1.31,0,0,0,650.76,120Z"/><path class="cls-23" d="M645,77.16a1.42,1.42,0,0,0-1,0l-3.65,1.2a1.42,1.42,0,0,1,1,0,1.45,1.45,0,0,0,1,0L646,77.2A1.45,1.45,0,0,1,645,77.16Z"/><path class="cls-23" d="M656.74,122.11a1.4,1.4,0,0,1-.81.7l3.66-1.2a1.46,1.46,0,0,0,.81-.7,1.47,1.47,0,0,1,.81-.7l-3.65,1.2A1.49,1.49,0,0,0,656.74,122.11Z"/><path class="cls-23" d="M650.1,73.77a1.7,1.7,0,0,1-.43-.27,2.21,2.21,0,0,0-.45-.28,1.44,1.44,0,0,0-1.07-.08l-3.66,1.2a1.47,1.47,0,0,1,1.08.08,1.91,1.91,0,0,1,.44.28,2.09,2.09,0,0,0,.44.27,1.5,1.5,0,0,0,1.09.09l3.65-1.2A1.45,1.45,0,0,1,650.1,73.77Z"/><path class="cls-23" d="M663.66,120.52a1.66,1.66,0,0,0-1,1.32,1.63,1.63,0,0,1-1,1.31l3.65-1.19a1.65,1.65,0,0,0,1-1.32,1.67,1.67,0,0,1,1-1.31Z"/><path class="cls-23" d="M678.44,99.56a2.86,2.86,0,0,1-.38-3.62,2.89,2.89,0,0,0-.92-4,3,3,0,0,1-1.23-3.5,3,3,0,0,0-1.34-3.56,2,2,0,0,0-.47-.14,1.86,1.86,0,0,1-.46-.13,3,3,0,0,1-1.51-2.9,3,3,0,0,0-1.51-2.9,1.44,1.44,0,0,0-1-.1,1.51,1.51,0,0,1-1-.11,2.9,2.9,0,0,1-1.49-2.16,2.88,2.88,0,0,0-1.48-2.18,1.46,1.46,0,0,0-1.08-.08l-1.57.51a1.46,1.46,0,0,1-.39-.12,2.61,2.61,0,0,1-1.28-1.43A2.63,2.63,0,0,0,660,71.66a1.49,1.49,0,0,0-1.09-.09l-3.16,1a2.94,2.94,0,0,1-.48-.51,2.33,2.33,0,0,0-.92-.79,1.49,1.49,0,0,0-1.09-.08l-3.65,1.2a1.44,1.44,0,0,1,1.09.08,2.33,2.33,0,0,1,.92.79,2.38,2.38,0,0,0,.92.78,1.49,1.49,0,0,0,1.09.09l3.15-1a2.76,2.76,0,0,1,.84,1.17,2.69,2.69,0,0,0,1.29,1.43,1.44,1.44,0,0,0,1.09.09l1.57-.51a1.73,1.73,0,0,1,.37.11,2.86,2.86,0,0,1,1.49,2.17,2.88,2.88,0,0,0,1.49,2.17,1.51,1.51,0,0,0,1,.11,1.45,1.45,0,0,1,1,.1,3,3,0,0,1,1.51,2.9,3,3,0,0,0,1.51,2.9,1.86,1.86,0,0,0,.46.13,1.88,1.88,0,0,1,.46.14,3,3,0,0,1,1.35,3.56,3,3,0,0,0,1.23,3.5,2.9,2.9,0,0,1,.92,4,2.84,2.84,0,0,0,.37,3.62c1.19,1.22,1.15,3.4-.07,4-1,.48-1.25,2.11-.51,3.4a2.61,2.61,0,0,1-.21,3.18l-1.23.4a2.15,2.15,0,0,0-1,2.77,2.88,2.88,0,0,1,0,1.75l-2.89,1a1.9,1.9,0,0,0-1.1,2,1.89,1.89,0,0,1-1.1,2l3.65-1.2a1.88,1.88,0,0,0,1.1-2,2.63,2.63,0,0,1,.14-1l2.89-1a2.13,2.13,0,0,0,1-2.76,2.4,2.4,0,0,1,.51-2.5l1.23-.41c1.09-.35,1.47-2.06.66-3.45s-.49-2.92.51-3.4C679.59,103,679.63,100.78,678.44,99.56ZM656.2,72.88a1.82,1.82,0,0,1-.27-.15,1.76,1.76,0,0,1,.43.13,1.65,1.65,0,0,1,.25.15A1.51,1.51,0,0,1,656.2,72.88Z"/><path class="cls-24" d="M662,75.42a2.86,2.86,0,0,1,1.49,2.17,2.88,2.88,0,0,0,1.49,2.17,1.51,1.51,0,0,0,1,.11,1.45,1.45,0,0,1,1,.1,3,3,0,0,1,1.51,2.9,3,3,0,0,0,1.51,2.9,1.86,1.86,0,0,0,.46.13,1.88,1.88,0,0,1,.46.14,3,3,0,0,1,1.35,3.56,3,3,0,0,0,1.23,3.5,2.9,2.9,0,0,1,.92,4,2.84,2.84,0,0,0,.37,3.62c1.19,1.22,1.15,3.4-.07,4-1,.48-1.25,2.11-.51,3.4.9,1.55.32,3.48-1.06,3.52-1.13,0-1.77,1.39-1.34,2.83.52,1.76-.54,3.25-1.94,2.73-1.15-.42-2.14.53-2.06,2s-1,2.48-2.17,2a2.68,2.68,0,0,1-.45-.27,1.91,1.91,0,0,0-.44-.28,1.48,1.48,0,0,0-2.12,1.23,1.5,1.5,0,0,1-2.14,1.23,2.43,2.43,0,0,1-.91-.78,2.33,2.33,0,0,0-.92-.79,1.42,1.42,0,0,0-1.91.61,1.39,1.39,0,0,1-1.9.61,2.61,2.61,0,0,1-1.28-1.43,2.63,2.63,0,0,0-1.28-1.44,1.4,1.4,0,0,0-1.52.15,1.41,1.41,0,0,1-1.52.16,2.88,2.88,0,0,1-1.49-2.17,2.89,2.89,0,0,0-1.48-2.17,1.53,1.53,0,0,0-1-.1,1.47,1.47,0,0,1-1-.1,3,3,0,0,1-1.52-2.9,3,3,0,0,0-1.5-2.9,1.53,1.53,0,0,0-.46-.14,1.45,1.45,0,0,1-.46-.14,3,3,0,0,1-1.35-3.56,3,3,0,0,0-1.23-3.5,2.89,2.89,0,0,1-.92-4,2.86,2.86,0,0,0-.38-3.62c-1.19-1.22-1.15-3.4.08-4,1-.48,1.25-2.11.51-3.39-.9-1.56-.32-3.49,1-3.53,1.13,0,1.78-1.39,1.35-2.83-.52-1.76.54-3.25,1.94-2.73,1.14.43,2.13-.52,2-2s1-2.47,2.18-2a1.91,1.91,0,0,1,.44.28,2.09,2.09,0,0,0,.44.27,1.49,1.49,0,0,0,2.13-1.23,1.49,1.49,0,0,1,2.13-1.23,2.33,2.33,0,0,1,.92.79,2.38,2.38,0,0,0,.92.78,1.41,1.41,0,0,0,1.9-.61,1.42,1.42,0,0,1,1.91-.61,2.55,2.55,0,0,1,1.27,1.44,2.69,2.69,0,0,0,1.29,1.43,1.4,1.4,0,0,0,1.52-.15A1.39,1.39,0,0,1,662,75.42Z"/><path class="cls-25" d="M670.91,86a1.88,1.88,0,0,0-.46-.14,1.86,1.86,0,0,1-.46-.13,2.26,2.26,0,0,1-.52-.35l-29.28,24.07s.06,0,.1.05a1.45,1.45,0,0,0,.46.14,1.53,1.53,0,0,1,.46.14,2.89,2.89,0,0,1,1.48,2.19L672.26,87.7A2.77,2.77,0,0,0,670.91,86Z"/><polygon class="cls-26" points="649.51 92.86 648.4 100.29 647.59 99.93 648.11 96.44 645.1 95.1 644.57 98.59 643.77 98.23 644.88 90.8 645.68 91.16 645.22 94.27 648.23 95.61 648.7 92.5 649.51 92.86"/><polygon class="cls-26" points="651.7 93.83 650.59 101.27 649.79 100.91 650.9 93.48 651.7 93.83"/><polygon class="cls-26" points="661.43 98.17 661.31 98.97 658.75 97.83 658.4 100.18 660.83 101.26 660.71 102.05 658.29 100.97 657.89 103.65 660.58 104.85 660.46 105.66 656.97 104.1 658.08 96.67 661.43 98.17"/><path class="cls-26" d="M655.88,101.44a16.28,16.28,0,0,0,.17,2.26l-.83-.37a13.91,13.91,0,0,1-.15-2c0-1.12-.3-1.65-1-2l-.76-.34-.48,3.23-.81-.36,1.1-7.33a7.63,7.63,0,0,1,1.57.53,3.35,3.35,0,0,1,1.71,1.41,2.64,2.64,0,0,1,.28,1.62,1.42,1.42,0,0,1-1.46,1.38v0A2.6,2.6,0,0,1,655.88,101.44Zm-1.67-2.78c.86.39,1.49.07,1.62-.78a1.86,1.86,0,0,0-1.23-2,2.89,2.89,0,0,0-.81-.26l-.4,2.71.82.36"/><path class="cls-26" d="M666.72,101.45a4.76,4.76,0,0,1,.47,3.06,3.39,3.39,0,0,1-1.32,2.49,3.13,3.13,0,0,1-2.91-.16,12.06,12.06,0,0,1-1.45-.74l1.09-7.31a10.38,10.38,0,0,1,1.73.61A4.74,4.74,0,0,1,666.72,101.45Zm-3.49,4.69c1.72.76,2.82,0,3.12-2a3.46,3.46,0,0,0-2.1-4,4,4,0,0,0-1-.32l-.88,5.86a5,5,0,0,0,.81.42"/><path class="cls-27" d="M617.71,72.07l0-1.9s-.36-3.71,0-4.16,1.44-.42,1.44-.42.87-1.81,2-1.6,1.53,2.33,1.78,3.82-1.14,3.28-1.14,3.28l-.82,2Z"/><path class="cls-28" d="M603.93,96.51s7.25-7.5,8.75-10.5c1.23-2.46,3.06-9.36,4.13-13.91a2.18,2.18,0,0,1,2.81-1.58,3.89,3.89,0,0,1,1.31.74c1.25,1.75.75,2.75.75,2.75s-.5,11.75-1.75,14.75-10,15.75-12.75,15.75S601.43,102,603.93,96.51Z"/><ellipse class="cls-6" cx="615.18" cy="172.51" rx="23.82" ry="15.14"/><path class="cls-29" d="M604.74,169.48l-.21,2.92a1.1,1.1,0,0,0,.66,1.09,3.16,3.16,0,0,0,1.75.18,3.46,3.46,0,0,0,2.7-1.68c.26-.51,3.61-2.83,3.23-4-.65-1.16-1.81,0-3,0S606.29,167.42,604.74,169.48Z"/><path class="cls-29" d="M605.52,124.68s-.78,19.73-.39,25.91c0,0-1.55,15.47-.77,19.15,0,0,2.7,1.93,5,.38.58-.19.58-1,.58-1s1.54-14.51,1.93-18.95,3.48-17.79,2.9-20.69S610.55,122.55,605.52,124.68Z"/><path class="cls-29" d="M618,173.61s-1.06,3.28-.29,4.06a2.5,2.5,0,0,0,2.45.74,13.54,13.54,0,0,0,1.39-.55l.22-.68.26.45a2.92,2.92,0,0,0,.9-.35c.52-.29,2-.87,2.61-1.26s1.71-1.06,1.81-1.9-2.94-.55-3.74-.51a7,7,0,0,1-1.61-.29c-.29,0-3.42.38-3.42.38"/><path class="cls-30" d="M622.89,124.31a37.67,37.67,0,0,1,.8,8.88c0,5.93-.51,20.88-.51,20.88s-.26,15.22-.52,19.08c0,0-1.8,2.32-4.9.52-1.54-1.81-1-3.09-1-3.09a67.41,67.41,0,0,1-1.29-17.79s-2.83-17.28-3.35-19.34-9.51-3-6-13Z"/><path class="cls-31" d="M605.26,121.85a12.33,12.33,0,0,0,.43-3.17,29.36,29.36,0,0,0-.88-6.34,43.9,43.9,0,0,1-2.09-9.64c-.38-4.86,2-8.57,6-8.2,1.43.14,4.1,1.57,6.68,2.93,2.08,1.1,5.29,3.1,7.65,4.67a3.67,3.67,0,0,1,1.63,3.22c-.08,1.94-.23,4.2-.42,6.18-.2,2.15-.84,6.88-1.17,10.09a18.2,18.2,0,0,1,1.09,5.17c0,2.25-4.5,3.25-5.75,3.5a22,22,0,0,1-9.75-1.25C604.93,127.51,604.09,125.43,605.26,121.85Z"/><path class="cls-27" d="M620.51,93.25a24.27,24.27,0,0,0,0-8,5.79,5.79,0,0,0-6.11-4c-3.15.16-5.47,1.55-6.24,3.89a8.51,8.51,0,0,0,.49,5.59,7.45,7.45,0,0,0,3.27,3,36,36,0,0,0,5.17,2.27C618.74,96.38,619.93,95.05,620.51,93.25Z"/><path class="cls-27" d="M611.24,92.39c1.58-.64,5.2,0,6.46,1.08,0,0-1.25,5-1.26,5-2.31.13-5.58-1-6.37-2Z"/><path class="cls-27" d="M617.7,90c-.66-.89-2-.57-2,.85a2.37,2.37,0,0,0,2,2.59C617.7,92.41,617.74,91.3,617.7,90Z"/><path class="cls-31" d="M610.55,95s1.86,1.61,6.31,2.25l.84,1.48a11,11,0,0,1-4.06.33,6.79,6.79,0,0,1-4.19-2.39l-.19-.39Z"/><path class="cls-32" d="M607.06,86.2a5.65,5.65,0,0,1,3.16-5.54c3.58-1.65,8.25-.55,10.09,2,1.26,2.13-.48,3.87-.87,4.64s0,2.32-.39,2.9.1,1.45.1,1.45l-.68.58a7.21,7.21,0,0,0-1.06-1.54c-.39-.29-1.58.77-1.32,1.8a3,3,0,0,0,1.22,1.61l-.77.52a4.59,4.59,0,0,1-2.38.45,8.52,8.52,0,0,1-3.55-1,9.54,9.54,0,0,1-3.35-3.48C606.48,88.91,606.29,87.3,607.06,86.2Z"/><path class="cls-27" d="M633.8,73.26l.25-2.25a16.71,16.71,0,0,1,.25-3.12c.25-.75,1.25-.75,1.25-.75a11.4,11.4,0,0,1,2.13-1.88c.5-.12,1.5,2,1.62,2.75s.25,3.38-.12,3.88a9.66,9.66,0,0,1-1.88,1.37l-.5,1.38Z"/><path class="cls-31" d="M618.43,104.26s7.25-7.5,8.75-10.5c1.23-2.46,4.31-15.36,5.38-19.91a2.18,2.18,0,0,1,2.81-1.58,3.89,3.89,0,0,1,1.31.74c1.25,1.75.75,2.75.75,2.75s-1.75,17.75-3,20.75-10,15.75-12.75,15.75S615.93,109.76,618.43,104.26Z"/><path class="cls-5" d="M213.73,328.93l-5.2,2.84a11.31,11.31,0,0,1-10.26,0l-13.36-7.71a3.64,3.64,0,0,1-2.14-3v1.53a3.63,3.63,0,0,0,2.14,3l13.35,7.71a11.3,11.3,0,0,0,10.27,0l5.2-2.84a3.6,3.6,0,0,0,2.11-2.95V326A3.6,3.6,0,0,1,213.73,328.93Z"/><path class="cls-2" d="M213.7,323c2.84,1.64,2.86,4.31,0,5.95l-5.2,2.84a11.31,11.31,0,0,1-10.26,0l-13.36-7.71c-2.84-1.64-2.86-4.3,0-5.95l5.2-2.84a11.33,11.33,0,0,1,10.27,0Z"/><path class="cls-5" d="M233.73,310.26l-5.2,2.84a11.25,11.25,0,0,1-10.26,0l-13.36-7.71a3.63,3.63,0,0,1-2.14-3v1.53a3.62,3.62,0,0,0,2.14,3l13.35,7.71a11.33,11.33,0,0,0,10.27,0l5.2-2.84a3.62,3.62,0,0,0,2.11-3v-1.53A3.58,3.58,0,0,1,233.73,310.26Z"/><path class="cls-2" d="M233.7,304.31c2.84,1.65,2.86,4.31,0,5.95l-5.2,2.84a11.25,11.25,0,0,1-10.26,0l-13.36-7.71c-2.84-1.64-2.86-4.3,0-5.94l5.2-2.85a11.33,11.33,0,0,1,10.27,0Z"/><path class="cls-5" d="M255.57,289.93l-5.2,2.84a11.33,11.33,0,0,1-10.27,0l-13.35-7.71a3.65,3.65,0,0,1-2.15-3v1.53a3.65,3.65,0,0,0,2.14,3l13.36,7.71a11.28,11.28,0,0,0,10.26,0l5.2-2.84a3.58,3.58,0,0,0,2.11-2.95V287A3.64,3.64,0,0,1,255.57,289.93Z"/><path class="cls-2" d="M255.53,284c2.85,1.64,2.86,4.31,0,5.95l-5.2,2.84a11.33,11.33,0,0,1-10.27,0l-13.35-7.71c-2.85-1.64-2.86-4.3,0-5.95l5.2-2.84a11.33,11.33,0,0,1,10.27,0Z"/><path class="cls-5" d="M559.56,252.84l-5.2,2.84a11.31,11.31,0,0,1-10.26,0L530.74,248a3.64,3.64,0,0,1-2.14-3v1.53a3.61,3.61,0,0,0,2.14,3l13.35,7.71a11.27,11.27,0,0,0,10.27,0l5.2-2.84a3.6,3.6,0,0,0,2.11-3v-1.54A3.6,3.6,0,0,1,559.56,252.84Z"/><path class="cls-2" d="M559.53,246.89c2.84,1.64,2.86,4.3,0,6l-5.2,2.84a11.31,11.31,0,0,1-10.26,0L530.74,248c-2.84-1.64-2.86-4.31,0-5.95l5.2-2.84a11.33,11.33,0,0,1,10.27,0Z"/><path class="cls-5" d="M579.56,234.17l-5.2,2.84a11.31,11.31,0,0,1-10.26,0l-13.36-7.71a3.63,3.63,0,0,1-2.14-3v1.53a3.62,3.62,0,0,0,2.14,3l13.35,7.71a11.33,11.33,0,0,0,10.27,0l5.2-2.85a3.6,3.6,0,0,0,2.11-2.95v-1.53A3.59,3.59,0,0,1,579.56,234.17Z"/><path class="cls-2" d="M579.53,228.22c2.84,1.65,2.86,4.31,0,5.95l-5.2,2.84a11.31,11.31,0,0,1-10.26,0l-13.36-7.71c-2.84-1.64-2.86-4.3,0-5.94l5.2-2.85a11.33,11.33,0,0,1,10.27,0Z"/><path class="cls-5" d="M601.4,213.84l-5.2,2.84a11.33,11.33,0,0,1-10.27,0L572.58,209a3.65,3.65,0,0,1-2.15-3v1.53a3.63,3.63,0,0,0,2.14,3l13.36,7.71a11.25,11.25,0,0,0,10.26,0l5.2-2.84a3.58,3.58,0,0,0,2.11-3v-1.54A3.64,3.64,0,0,1,601.4,213.84Z"/><path class="cls-2" d="M601.36,207.89c2.85,1.64,2.86,4.3,0,6l-5.2,2.84a11.33,11.33,0,0,1-10.27,0L572.58,209c-2.85-1.64-2.86-4.31,0-5.95l5.2-2.84a11.33,11.33,0,0,1,10.27,0Z"/><path class="cls-5" d="M333.38,286.59l5.19,2.85a11.33,11.33,0,0,0,10.27,0l13.36-7.71a3.64,3.64,0,0,0,2.14-3v1.54a3.61,3.61,0,0,1-2.14,3L348.85,291a11.33,11.33,0,0,1-10.27,0l-5.2-2.84a3.61,3.61,0,0,1-2.11-2.95v-1.54A3.58,3.58,0,0,0,333.38,286.59Z"/><path class="cls-2" d="M333.41,280.65c-2.85,1.64-2.86,4.3,0,6l5.19,2.84a11.33,11.33,0,0,0,10.27,0l13.36-7.71c2.84-1.64,2.85-4.31,0-6l-5.2-2.84a11.33,11.33,0,0,0-10.27,0Z"/><path class="cls-5" d="M363.38,280.59l5.19,2.85a11.33,11.33,0,0,0,10.27,0l13.36-7.71a3.64,3.64,0,0,0,2.14-3v1.54a3.61,3.61,0,0,1-2.14,3L378.85,285a11.33,11.33,0,0,1-10.27,0l-5.2-2.84a3.61,3.61,0,0,1-2.11-2.95v-1.54A3.58,3.58,0,0,0,363.38,280.59Z"/><path class="cls-2" d="M363.41,274.65c-2.85,1.64-2.86,4.3,0,6l5.19,2.84a11.33,11.33,0,0,0,10.27,0l13.36-7.71c2.84-1.64,2.85-4.31,0-6l-5.2-2.84a11.33,11.33,0,0,0-10.27,0Z"/><path class="cls-5" d="M396,273.93l5.2,2.84a11.33,11.33,0,0,0,10.27,0l13.35-7.71a3.65,3.65,0,0,0,2.15-3v1.53a3.65,3.65,0,0,1-2.14,3l-13.36,7.71a11.28,11.28,0,0,1-10.26,0l-5.2-2.84a3.58,3.58,0,0,1-2.11-2.95V271A3.64,3.64,0,0,0,396,273.93Z"/><path class="cls-2" d="M396.08,268c-2.85,1.64-2.86,4.31,0,5.95l5.2,2.84a11.33,11.33,0,0,0,10.27,0l13.35-7.71c2.85-1.64,2.86-4.3,0-5.95l-5.2-2.84a11.33,11.33,0,0,0-10.27,0Z"/><path class="cls-3" d="M537.3,372.11c9.2,5.32,9.25,13.93.11,19.24l-42.92,24.94c-9.15,5.32-24,5.32-33.22,0l-43.2-24.94c-9.2-5.31-9.25-13.92-.1-19.24l42.91-24.94c9.15-5.31,24-5.31,33.22,0Z"/><path class="cls-4" d="M537.3,320.11c9.2,5.32,9.25,13.93.11,19.24l-42.92,24.94c-9.15,5.32-24,5.32-32.59-.87l-43.2-24.94c-9.83-4.44-9.88-13.05-.73-18.37l42.91-24.94c9.15-5.31,24-5.31,33.22,0Z"/><path class="cls-5" d="M552.6,304.7,498.76,336c-11.47,6.67-30.12,6.67-41.67,0L402.9,304.7c-5.81-3.35-8.71-7.76-8.7-12.15v6.23c0,4.39,2.88,8.79,8.69,12.15l54.2,31.29c11.54,6.66,30.2,6.66,41.67,0l53.84-31.29c5.69-3.31,8.55-7.65,8.56-12l0-6.22C561.15,297.06,558.3,301.39,552.6,304.7Z"/><path class="cls-2" d="M552.47,280.56c11.54,6.67,11.6,17.48.13,24.14L498.76,336c-11.47,6.67-30.12,6.67-41.67,0L402.9,304.7c-11.54-6.66-11.6-17.47-.13-24.13l53.84-31.29c11.47-6.67,30.12-6.67,41.67,0Z"/><path class="cls-33" d="M503.17,229.54s-2.07.12-3.22,3.11-4.13,9.31-4.13,9.31l-9.77-1.5s-1.61,1.5-.58,3c.69.57,10.81,2.76,12,2.53s5.63-7.24,5.63-7.24,3.22-6.32,2.76-7.59S503.17,229.54,503.17,229.54Z"/><circle class="cls-7" cx="511.6" cy="281.1" r="1.39"/><path class="cls-7" d="M500.32,273.43a1.39,1.39,0,1,1-1.39-1.39A1.38,1.38,0,0,1,500.32,273.43Z"/><path class="cls-7" d="M525.65,273.43a1.39,1.39,0,1,1-1.38-1.39A1.38,1.38,0,0,1,525.65,273.43Z"/><path class="cls-34" d="M513.74,273.23l-.23.14a2.69,2.69,0,0,1-.29.16l-.67,6.43h-1.82l-.74-6.43a2.44,2.44,0,0,1-.28-.14l-.25-.16-11.11-.41v.68l11.11.41.25.16a1.83,1.83,0,0,0,.28.14h0l.74,6.44h1.82l.66-6.44a1.4,1.4,0,0,0,.3-.15h0l.21-.14,11.1-.41v-.68Z"/><path class="cls-9" d="M524.84,271.76v1.06l-11.1.41a3.22,3.22,0,0,1-.52.3l-.67,6.43h-1.82l-.74-6.43a2.44,2.44,0,0,1-.28-.14l-.25-.16-11.11-.41v-1.06l11.1-.4a2.65,2.65,0,0,1,.52-.31l.67-6.43h1.82l.74,6.43.28.14a2.2,2.2,0,0,1,.25.17Z"/><path class="cls-35" d="M512.64,266.18a1.16,1.16,0,0,0-.21-.16,2.05,2.05,0,0,0-1.84,0,1.16,1.16,0,0,0-.21.16h-.17v6.1a.66.66,0,0,0,.38.53,2.05,2.05,0,0,0,1.84,0,.66.66,0,0,0,.38-.53v-6.1Z"/><path class="cls-11" d="M512.43,265.65a.56.56,0,0,1,0,1.06,2.05,2.05,0,0,1-1.84,0,.56.56,0,0,1,0-1.06A2.05,2.05,0,0,1,512.43,265.65Z"/><path class="cls-36" d="M513.16,261.9a1.87,1.87,0,0,0-.87-.47,3.17,3.17,0,0,0-1.56,0,1.87,1.87,0,0,0-.87.47h-.25v4.63c0,.39.36.78,1.07,1a2.93,2.93,0,0,0,1.66,0c.71-.21,1.07-.6,1.07-1V261.9Z"/><ellipse class="cls-11" cx="511.51" cy="261.9" rx="1.86" ry="1.11"/><g class="cls-13"><polygon class="cls-14" points="508.04 268.82 493.22 260.21 493.21 258.98 508.03 267.59 508.04 268.82"/><polygon class="cls-15" points="508.03 267.59 493.21 258.98 494.1 256.72 508.92 265.33 508.03 267.59"/><polygon class="cls-16" points="508.92 265.33 494.1 256.72 507.7 248.87 522.52 257.49 508.92 265.33"/><polygon class="cls-16" points="524.47 234.16 509.65 225.54 512.44 223.94 527.25 232.55 524.47 234.16"/><polygon class="cls-15" points="522.52 257.49 507.7 248.87 509.65 225.54 524.47 234.16 522.52 257.49"/><polygon class="cls-14" points="524.47 234.16 527.25 232.55 525.64 258.66 522.25 260.61 508.04 268.82 508.03 267.59 508.92 265.33 522.52 257.49 524.47 234.16"/></g><path class="cls-30" d="M506.24,254.52s-6.13,8-7.05,10.42-4,22.38-4,22.38-3.06,4-2.75,5.21,6.74-1.54,7.35-3.37V286.4l1.23-.62,5.21-19.61s7.35-4.91,7.66-7.66S510.84,252.38,506.24,254.52Z"/><path class="cls-30" d="M502.84,250.73s-8.56,5.63-10.39,7.78S485.09,280,485.09,280s-3.37,3.37-2.45,4,5.52-.91,6.13-2.14-.92.61.61-1.23,8.28-18.08,8.28-18.08l8.88-5.52Z"/><path class="cls-30" d="M501.68,247.29c0,1.16-.71,6-.71,6.71.47,1.52,2.92,5.67,6.17,6.33a15,15,0,0,0,4.12,0c1.29-.24,3-2.82,3.77-3.95a14.88,14.88,0,0,0-1.14-5.51,28.87,28.87,0,0,0-5.25-2.81C506.84,247.17,502.84,245.47,501.68,247.29Z"/><path class="cls-37" d="M501.68,247.29c.55,2.4,5.34,4.59,7.92,4.75,2.08.12,3.66-.3,4.29-1.2,1.47-3.4,4.43-12.09,3.73-14.39a23.33,23.33,0,0,0-5.57-5.37c-2.28-1.42-7.21-1.85-9.23-1.19s-1.73,5.11-1.67,7.88C501.21,240.24,501.47,244.47,501.68,247.29Z"/><path class="cls-38" d="M512.67,231.17a4.89,4.89,0,0,1-1.26,3.77,35.68,35.68,0,0,1-2,5c-1,1.85-2.35,10.42-2.35,10.42s1.68,10.41,2,11.08,4.87-.67,6.38-3.19a5.05,5.05,0,0,0,.67-2.69l-.84-5.2s3-11.09,3-12.6-.34-2.69-.84-3S512.67,231.17,512.67,231.17Z"/><path class="cls-38" d="M507.21,230s-2,2.77-2.1,4.53-.59,5-.59,5l-1.68,11.25-3.36,4,.84-7.23s-.33-13.6.34-15.28a4.68,4.68,0,0,1,2.16-2.54C503.51,229.23,507.21,230,507.21,230Z"/><polygon class="cls-38" points="505.87 233.94 506.29 236.21 505.78 237.3 506.03 238.22 503.93 248.21 504.19 249.81 505.87 248.55 507.21 238.39 507.97 237.13 507.88 236.37 509.64 235.28 505.87 233.94"/><path class="cls-2" d="M511.35,230a2.52,2.52,0,0,1,1.4,1l.51,1.06a5.69,5.69,0,0,1-1.85,2.94,25.57,25.57,0,0,0-2.35,2l-.59-1.51-1.68.51-.5-1.94-1.18.42a16.52,16.52,0,0,1,.84-2.18C506.29,231.75,511.35,230,511.35,230Z"/><path class="cls-39" d="M506.34,229.56c0-.61,2.09-1.29,3.13-1.29s2.07.47,2.1,1.06c0,0,.21,1.73.36,2.64.12,1.62-2.57,3.19-4.05,2.62a1.38,1.38,0,0,1-1-1.05Z"/><path class="cls-27" d="M504,229.24a8.2,8.2,0,0,1,0-1.94,7.2,7.2,0,0,1-.17-1,5,5,0,0,1,4.43-5.19,4.28,4.28,0,0,1,5,2.72,6.09,6.09,0,0,1-.19,4.08,4.68,4.68,0,0,1-2,2.06,1.75,1.75,0,0,1-.35,1.13c-1,.87-3.16,2.47-4.31,2.05a2.42,2.42,0,0,1-1.26-.85A12.17,12.17,0,0,1,504,229.24Z"/><path class="cls-29" d="M506.43,220.5s-3.14,1.68-2.92,4.14c.34,1.68,2,2,3.36,2s2,1.12,2.47,1.23a4.25,4.25,0,0,0,.89.11l.56,1.12.34-1.79.56,2.35a5.51,5.51,0,0,0,2.13-3.13c.33-1.91.33-3.81-.79-5A5.88,5.88,0,0,0,506.43,220.5Z"/><path class="cls-27" d="M511.07,227.44c.48-.65,1.45-.42,1.45.63a1.74,1.74,0,0,1-1.45,1.9Z"/><g class="cls-13"><polygon class="cls-40" points="444.49 287.1 442.24 285.79 442.18 260.1 444.43 261.4 444.49 287.1"/><polygon class="cls-41" points="444.43 261.4 442.18 260.1 472.76 242.44 475.01 243.75 444.43 261.4"/><polygon class="cls-42" points="475.01 243.75 475.07 269.44 444.49 287.1 444.43 261.4 475.01 243.75"/></g><polygon class="cls-43" points="446.62 256.52 446.56 282.21 498.86 312.37 498.92 286.68 446.62 256.52"/><polygon class="cls-44" points="446.58 270.89 498.88 301.05 498.92 286.68 446.62 256.52 446.58 270.89"/><g class="cls-13"><polygon class="cls-40" points="496.96 314.87 494.71 313.56 494.65 287.87 496.9 289.17 496.96 314.87"/><polygon class="cls-41" points="496.9 289.17 494.65 287.87 525.23 270.21 527.48 271.52 496.9 289.17"/><polygon class="cls-45" points="527.48 271.52 527.54 297.21 496.96 314.87 496.9 289.17 527.48 271.52"/></g><g class="cls-13"><polygon class="cls-46" points="531.68 270.85 531.67 273.26 496.99 293.42 497 291 531.68 270.85"/><polygon class="cls-47" points="497 291 496.99 293.42 437.07 258.58 437.07 256.17 497 291"/><polygon class="cls-48" points="531.68 270.85 497 291 437.07 256.17 471.75 236.02 531.68 270.85"/></g><path class="cls-27" d="M507.85,259.66l-.77.92a8.91,8.91,0,0,0-1.46,1.3c-.3.46-1.07,2.68-.76,2.76a3,3,0,0,0,1.07.23,6.59,6.59,0,0,0,2.91-1.69,6.46,6.46,0,0,0,.62-2l.38-.71Z"/><path class="cls-2" d="M508,258.62l-.69,1.21a4.73,4.73,0,0,0,2.19,1.38l.4.17.57-1.26Z"/><path class="cls-33" d="M516.2,235a1.8,1.8,0,0,1,1.82.53,4.23,4.23,0,0,1,.94,2.65,98,98,0,0,1-.85,11.84c-.23,1-7.5,10.46-7.5,10.46s-1.69.57-3.22-1.72l6.05-10.58s.69-8.69.69-10.19A3.46,3.46,0,0,1,516.2,235Z"/><path class="cls-2" d="M486.08,240.69l-1-.11a3.05,3.05,0,0,0-.31,2.3l.13.27.89.17A3.24,3.24,0,0,0,486.08,240.69Z"/><path class="cls-27" d="M485,240.92l-1-.27-1.88-1s-.88-.54-.88-.27a1.08,1.08,0,0,0,.5.92c.34.15.38.34.38.34l-1.23-.23s-1.68-.07-1.64.12a1.22,1.22,0,0,0,.5.73,15.46,15.46,0,0,0,2.37,1.68,12.23,12.23,0,0,0,2-.11l.42-.12.5.08S485.59,242.26,485,240.92Z"/><path class="cls-46" d="M482.79,254c1.47.84,1.47,2.21,0,3.05l-9.36,5.44a5.79,5.79,0,0,1-5.27,0L458.76,257c-1.46-.84-1.47-2.21,0-3.05l9.36-5.44a5.83,5.83,0,0,1,5.27,0Z"/><g class="cls-13"><path class="cls-49" d="M474.45,255.41h0a.25.25,0,0,1,0,.07h0l-.06.07,0,0-.06,0-3.88,2.16-4.19-2.42v.29l4.18,2.42,3.89-2.15,0,0,0,0,0,0h0l.05,0h0l0,0s0,0,0,0h0a0,0,0,0,0,0,0,.06.06,0,0,0,0,0h0v-.29S474.45,255.38,474.45,255.41Z"/><path class="cls-2" d="M474.24,255c.3.17.29.45,0,.62l-3.88,2.16-4.19-2.42,3.27-2.5a1.2,1.2,0,0,1,1.09,0Z"/></g><g class="cls-13"><path class="cls-50" d="M480,245.87a1.55,1.55,0,0,1,.69,1l2,13.5c.05.35-.17.48-.5.29L461.7,248.8a1.56,1.56,0,0,1-.69-1l-2-13.49c-.06-.36.17-.49.49-.3Z"/><path class="cls-2" d="M483,260.22h0v-.1l-2-13.5h0v-.14h0v-.11l0,0h0v-.1h0v0h0v0h0v0h0v-.06h0l-.07-.09,0,0h0l0,0h0v0h0v0h0v0h0l0,0h0l0,0,0,0h0l0,0h0l0,0,0,0h0l-20.48-11.84h0l0,0h-.3a.09.09,0,0,0-.06,0l-.32.24.07,0h.1l.11,0h0l.12.06L480,245.87l.12.08h0l.12.1h0l.11.12h0a1.47,1.47,0,0,1,.1.13h0l.08.13h0s.05.1.08.14h0c0,.05,0,.1.05.14h0l0,.14,2,13.5v.11h0a.22.22,0,0,1,0,.09h0s0,0,0,.05l-.06.08h0l.32-.24a.16.16,0,0,0,.06-.08h0a0,0,0,0,0,0,0h0v-.09Z"/></g><polygon class="cls-51" points="468.64 253.49 466.16 255.38 470.35 257.8 473.28 256.17 468.64 253.49"/><polygon class="cls-49" points="471.23 249.49 470.34 258.12 466.14 255.68 467.78 247.61 471.23 249.49"/><polygon class="cls-46" points="492.86 273.5 499.25 277.22 509.6 271.24 503.2 267.53 492.86 273.5"/><polygon class="cls-6" points="491.68 271.29 491.69 272.88 498.08 276.59 498.07 275.01 491.68 271.29"/><polygon class="cls-5" points="498.07 275.01 498.08 276.59 508.43 270.62 508.42 269.04 498.07 275.01"/><polygon class="cls-2" points="491.68 271.29 498.07 275.01 508.42 269.04 502.03 265.32 491.68 271.29"/><polygon class="cls-2" points="483.74 266.11 490.14 269.82 500.48 263.85 494.09 260.13 483.74 266.11"/><path class="cls-6" d="M476.1,305.11c3.52,2,3.54,5.33,0,7.37L459.7,322A14,14,0,0,1,447,322l-16.55-9.55c-3.52-2-3.54-5.34,0-7.37l16.44-9.55a14,14,0,0,1,12.72,0Z"/><path class="cls-7" d="M450.05,316.73a1.39,1.39,0,1,1-1.38-1.39A1.38,1.38,0,0,1,450.05,316.73Z"/><path class="cls-7" d="M437.39,309.06a1.39,1.39,0,1,1-1.39-1.39A1.39,1.39,0,0,1,437.39,309.06Z"/><path class="cls-7" d="M462.72,309.06a1.39,1.39,0,1,1-1.39-1.39A1.38,1.38,0,0,1,462.72,309.06Z"/><path class="cls-52" d="M450.8,308.85a.86.86,0,0,1-.22.15,2.11,2.11,0,0,1-.3.16l-.67,6.43h-1.82l-.74-6.43-.28-.14a2.07,2.07,0,0,1-.24-.17l-11.11-.4v.68l11.11.41a1.43,1.43,0,0,0,.24.16,2.44,2.44,0,0,0,.28.14h0l.74,6.44h1.82l.67-6.44a1.4,1.4,0,0,0,.3-.15h0l.2-.14,11.11-.41v-.68Z"/><path class="cls-9" d="M461.9,307.39v1.06l-11.11.4a2.17,2.17,0,0,1-.52.31l-.67,6.43h-1.82l-.74-6.43-.28-.14a2.07,2.07,0,0,1-.24-.17l-11.11-.4v-1.06l11.11-.4a2.38,2.38,0,0,1,.52-.31l.67-6.43h1.82l.74,6.43.28.14a1.46,1.46,0,0,1,.24.17Z"/><path class="cls-53" d="M449.7,301.81a.72.72,0,0,0-.21-.16,2,2,0,0,0-1.83,0,.72.72,0,0,0-.21.16h-.17v6.1a.66.66,0,0,0,.38.53,2,2,0,0,0,1.83,0,.66.66,0,0,0,.38-.53v-6.1Z"/><path class="cls-11" d="M449.49,301.28a.56.56,0,0,1,0,1.06,2,2,0,0,1-1.83,0,.56.56,0,0,1,0-1.06A2,2,0,0,1,449.49,301.28Z"/><path class="cls-54" d="M450.23,297.53a1.91,1.91,0,0,0-.88-.47,3.13,3.13,0,0,0-1.55,0,2,2,0,0,0-.88.47h-.24v4.63c0,.39.35.78,1.07,1a2.93,2.93,0,0,0,1.66,0c.71-.21,1.06-.6,1.06-1v-4.63Z"/><ellipse class="cls-11" cx="448.58" cy="297.53" rx="1.86" ry="1.11"/><g class="cls-13"><polygon class="cls-16" points="450.83 300.88 436.6 292.61 449.66 285.06 463.89 293.34 450.83 300.88"/></g><path class="cls-29" d="M458.62,302.57s-.91,2.82-.25,3.48a2.13,2.13,0,0,0,2.1.64,9.93,9.93,0,0,0,1.19-.47l.19-.58.23.39a2.72,2.72,0,0,0,.77-.31c.44-.25,1.71-.74,2.24-1.08s1.46-.91,1.55-1.63-2.52-.47-3.21-.44a5.78,5.78,0,0,1-1.38-.25c-.25,0-2.93.33-2.93.33"/><path class="cls-29" d="M449.36,286.53s8.89-2.8,11.18-2.16,3.3,1.39,3.43,2.41-1.53,15.63-1.53,15.63a3.39,3.39,0,0,1-3.17,1c-1.53-.38-1.65-.76-1.65-.76s0-8.77-.26-10a6.71,6.71,0,0,1,.13-2.66s-5.34,2-6.86.89S448.09,288.05,449.36,286.53Z"/><path class="cls-30" d="M447,287.84s1,4.57,3.72,6.61,10.34-.17,10.34-.17l1.78-.64,2.15.25s-.21,7.67,0,8.69a46.2,46.2,0,0,1,.51,6.43c0,.51,2.37,1.36,3.56.51l1-.68s1.7-12.87,1.53-15.58-1.53-3.9-2.54-4.4-13-1.19-13.72-1.36S447,287.84,447,287.84Z"/><path class="cls-55" d="M458.89,270.88a2.72,2.72,0,0,0-1.21-2.41c-1.78-1.19-4.21-2.7-5.78-3.53-1.95-1-4-2.11-5-2.21-3-.28-4.81,2.52-4.52,6.18a33.08,33.08,0,0,0,1.57,7.27,21.83,21.83,0,0,1,.67,4.78,7.47,7.47,0,0,1-.33,2.38c-.25.61-.51,1.44-.7,2.1a1.74,1.74,0,0,0,.58,1.85,12.56,12.56,0,0,0,6.7,2.9c4.27.3,5.93-.58,5.93-.58l.87-.19a1.43,1.43,0,0,0,.88-1.07c.08-.7-.67-4-.82-5.2.25-2.42.73-6,.89-7.6S458.83,272.35,458.89,270.88Z"/><path class="cls-27" d="M455.74,261.79a17.79,17.79,0,0,0,0-6.06,4.37,4.37,0,0,0-4.61-3c-2.37.11-4.12,1.16-4.7,2.93a6.41,6.41,0,0,0,.37,4.21,5.58,5.58,0,0,0,2.47,2.26,25.67,25.67,0,0,0,3.9,1.71C454.41,264.15,455.31,263.15,455.74,261.79Z"/><path class="cls-27" d="M448.76,261.14a6.58,6.58,0,0,1,4.87.82s-.94,3.78-.95,3.78c-1.74.09-4.21-.77-4.8-1.48Z"/><path class="cls-27" d="M453.63,259.36c-.5-.67-1.49-.43-1.49.64a1.79,1.79,0,0,0,1.49,2C453.63,261.16,453.66,260.32,453.63,259.36Z"/><path class="cls-55" d="M448.24,263.08a9.77,9.77,0,0,0,4.76,1.7l.63,1.12a8.13,8.13,0,0,1-3.06.24,5.09,5.09,0,0,1-3.16-1.8l-.14-.29Z"/><path class="cls-32" d="M445.61,256.47A4.24,4.24,0,0,1,448,252.3c2.7-1.24,6.22-.42,7.61,1.48.95,1.6-.37,2.91-.66,3.5s0,1.74-.29,2.18.07,1.1.07,1.1l-.51.43a5.64,5.64,0,0,0-.8-1.16c-.29-.22-1.19.58-1,1.36a2.21,2.21,0,0,0,.92,1.21l-.58.39a3.56,3.56,0,0,1-1.8.34,6.43,6.43,0,0,1-2.67-.73,7.2,7.2,0,0,1-2.53-2.62C445.18,258.51,445,257.3,445.61,256.47Z"/><polygon class="cls-14" points="447.85 305.45 433.62 297.18 431.92 273.97 446.16 282.25 447.85 305.45"/><polygon class="cls-16" points="446.16 282.25 431.92 273.97 434.6 272.43 448.83 280.7 446.16 282.25"/><polygon class="cls-15" points="448.83 280.7 450.83 300.88 463.89 293.34 464.75 294.51 464.76 295.69 451.1 303.58 447.85 305.45 446.16 282.25 448.83 280.7"/><path class="cls-29" d="M466.24,309.3s-.91,2.82-.25,3.49a2.12,2.12,0,0,0,2.1.63,9.93,9.93,0,0,0,1.19-.47l.2-.58.22.39a2.86,2.86,0,0,0,.77-.3c.44-.25,1.71-.75,2.24-1.08s1.46-.91,1.55-1.63-2.52-.47-3.21-.45a5.93,5.93,0,0,1-1.38-.24c-.25,0-2.93.33-2.93.33"/><path class="cls-27" d="M473.58,271.83s1.44-1.77,2-1.86a10,10,0,0,1,3.14,0c.67.25.5.76.33,1.19a3.35,3.35,0,0,1-2,1.27l-.84.17-1,.5Z"/><path class="cls-55" d="M455.8,267.35a4.59,4.59,0,0,1,2.88,2c1,1.69,4.74,5.59,5.58,5.93s8.3-3.73,9.32-3.9a1.75,1.75,0,0,1,2,1.52c.17,1-7.62,7.63-10.5,7.8s-7.62-3.9-9.65-5.76S453.09,267.35,455.8,267.35Z"/><line class="cls-56" x1="73" y1="413" x2="98.67" y2="429.33"/><path class="cls-2" d="M160.66,417.75h0a1.44,1.44,0,0,0,1.42,0l2.14-1.24a1.42,1.42,0,0,0,0-2.45h0a1.44,1.44,0,0,0-1.42,0l-2.14,1.24A1.42,1.42,0,0,0,160.66,417.75Z"/><path class="cls-2" d="M167.4,413.85h0a1.39,1.39,0,0,0,1.42,0l27.68-16a1.41,1.41,0,0,0,0-2.45h0a1.42,1.42,0,0,0-1.41,0l-27.68,16A1.41,1.41,0,0,0,167.4,413.85Z"/><path class="cls-2" d="M192.16,224.75h0a1.44,1.44,0,0,0,1.42,0l2.14-1.24a1.42,1.42,0,0,0,0-2.45h0a1.44,1.44,0,0,0-1.42,0l-2.14,1.24A1.42,1.42,0,0,0,192.16,224.75Z"/><path class="cls-2" d="M198.9,220.85h0a1.39,1.39,0,0,0,1.42,0l27.68-16a1.41,1.41,0,0,0,0-2.45h0a1.42,1.42,0,0,0-1.41,0l-27.68,16A1.41,1.41,0,0,0,198.9,220.85Z"/><path class="cls-2" d="M499.49,362.75h0a1.44,1.44,0,0,0,1.42,0l2.14-1.24a1.41,1.41,0,0,0,0-2.45h0a1.44,1.44,0,0,0-1.42,0l-2.14,1.24A1.42,1.42,0,0,0,499.49,362.75Z"/><path class="cls-2" d="M506.24,358.85h0a1.39,1.39,0,0,0,1.42,0l27.67-16a1.41,1.41,0,0,0,0-2.45h0a1.44,1.44,0,0,0-1.42,0l-27.68,16A1.42,1.42,0,0,0,506.24,358.85Z"/><path class="cls-2" d="M662,233.25h0a1.44,1.44,0,0,0,1.42,0l2.14-1.24a1.41,1.41,0,0,0,0-2.45h0a1.44,1.44,0,0,0-1.42,0L662,230.8A1.42,1.42,0,0,0,662,233.25Z"/><path class="cls-2" d="M668.74,229.35h0a1.39,1.39,0,0,0,1.42,0l27.67-16a1.41,1.41,0,0,0,0-2.45h0a1.44,1.44,0,0,0-1.42,0l-27.68,16A1.42,1.42,0,0,0,668.74,229.35Z"/><path class="cls-57" d="M431,231.4v1.09a.83.83,0,0,0,1.25.72l22-12.4a.83.83,0,0,0,.41-.73V219a.83.83,0,0,0-1.25-.73l-22,12.4A.84.84,0,0,0,431,231.4Z"/><path class="cls-57" d="M414.71,246.13v1.1A.83.83,0,0,0,416,248l38.32-21.72a.84.84,0,0,0,.42-.73v-1.09a.83.83,0,0,0-1.25-.72l-38.32,21.72A.84.84,0,0,0,414.71,246.13Z"/><g class="cls-58"><path class="cls-57" d="M423.54,251.91V253a.83.83,0,0,0,1.25.72l29.49-16.66a.82.82,0,0,0,.42-.72v-1.09a.83.83,0,0,0-1.25-.72L424,251.19A.84.84,0,0,0,423.54,251.91Z"/></g><path class="cls-57" d="M418,249.65v1.09a.83.83,0,0,0,1.25.72l35-19.82a.82.82,0,0,0,.42-.72v-1.09a.83.83,0,0,0-1.25-.72l-35,19.82A.82.82,0,0,0,418,249.65Z"/><polygon class="cls-2" points="403.69 236.8 403.72 246.1 402.67 246.7 402.64 237.4 403.69 236.8"/><path class="cls-2" d="M411.59,232.23l0,9.31-1.05.6L408,238.9a15.42,15.42,0,0,1-1.52-2.23l0,0c.07,1.14.1,2.24.1,3.79v4l-1,.58,0-9.31,1.14-.66,2.6,3.21a13.11,13.11,0,0,1,1.47,2.19l0,0c-.1-1.19-.12-2.31-.13-3.76V232.8Z"/><polygon class="cls-2" points="418.5 228.25 418.5 229.27 416.02 230.7 416.05 238.98 414.99 239.59 414.97 231.31 412.5 232.73 412.5 231.71 418.5 228.25"/><polygon class="cls-2" points="423.77 225.2 423.77 226.21 420.45 228.13 420.45 231.07 423.6 229.25 423.61 230.24 420.46 232.06 420.47 235.42 423.98 233.39 423.98 234.4 419.42 237.03 419.4 227.73 423.77 225.2"/><path class="cls-2" d="M430,228.38a10.82,10.82,0,0,0,.63,2.19l-1.08.63a8.34,8.34,0,0,1-.55-1.91c-.24-1.15-.67-1.39-1.63-.88l-1,.57v4l-1.05.61,0-9.18a17.09,17.09,0,0,1,2-1.36c1.12-.65,1.84-.83,2.34-.59s.64.68.64,1.4a4.64,4.64,0,0,1-1.52,3.25v.05C429.41,227.08,429.78,227.52,430,228.38Zm-2.54-.93a3.44,3.44,0,0,0,1.82-2.82c0-1.2-.76-1.29-1.87-.67a6.42,6.42,0,0,0-1,.71v3.4l1.07-.62"/><path class="cls-2" d="M437.8,217.1l-2.88,11-1.14.66L431.11,221l1.12-.65,1.28,3.85c.35,1.06.65,2,.87,3,.25-1.22.59-2.59.94-4l1.36-5.38Z"/><polygon class="cls-2" points="439.72 215.99 439.75 225.3 438.7 225.9 438.67 216.6 439.72 215.99"/><polygon class="cls-2" points="445.92 212.41 445.92 213.42 442.59 215.34 442.6 218.28 445.75 216.47 445.75 217.46 442.61 219.27 442.62 222.63 446.13 220.61 446.13 221.61 441.57 224.24 441.55 214.94 445.92 212.41"/><path class="cls-2" d="M456.72,206.18l-2.27,10.62-1.09.63-1-4.26a21.84,21.84,0,0,1-.54-2.73c-.17,1-.35,2.05-.64,3.42L450,219.37l-1.1.63-2.08-8.11,1.11-.64,1,4.15c.25,1,.47,2.06.61,2.87.16-1,.41-2.27.68-3.63l1.07-5.31,1.09-.63,1,4.14c.23,1,.45,2,.57,2.87.19-1.13.42-2.3.67-3.61l1-5.31Z"/><path class="cls-57" d="M565.67,117.4v1.09a.83.83,0,0,0,1.25.72l22-12.4a.84.84,0,0,0,.42-.73V105a.83.83,0,0,0-1.25-.73l-22,12.4A.86.86,0,0,0,565.67,117.4Z"/><path class="cls-57" d="M549.38,132.13v1.1a.83.83,0,0,0,1.25.72L589,112.23a.84.84,0,0,0,.42-.73v-1.09a.83.83,0,0,0-1.25-.72L549.8,131.41A.84.84,0,0,0,549.38,132.13Z"/><g class="cls-58"><path class="cls-57" d="M558.21,137.91V139a.83.83,0,0,0,1.25.72L589,123.06a.82.82,0,0,0,.42-.72v-1.09a.83.83,0,0,0-1.25-.72l-29.49,16.66A.82.82,0,0,0,558.21,137.91Z"/></g><path class="cls-57" d="M552.7,135.65v1.09a.83.83,0,0,0,1.25.72l35-19.82a.82.82,0,0,0,.42-.72v-1.09a.83.83,0,0,0-1.25-.72l-35,19.82A.82.82,0,0,0,552.7,135.65Z"/><path class="cls-2" d="M569.9,101.67l-2.27,10.62-1.09.63-1-4.26a21.84,21.84,0,0,1-.54-2.73c-.17,1-.35,2-.64,3.42l-1.14,5.51-1.1.63L560,107.38l1.11-.64,1,4.15c.25,1,.47,2,.61,2.87.16-1,.4-2.27.68-3.63l1.07-5.32,1.09-.63,1,4.15c.23,1,.45,2,.57,2.87.19-1.13.42-2.31.66-3.61l1.06-5.31Z"/><path class="cls-2" d="M560.35,99.07a10.82,10.82,0,0,0,.63,2.19l-1.08.63a8.71,8.71,0,0,1-.54-1.92c-.25-1.14-.69-1.38-1.63-.87l-1,.57v4l-1,.6,0-9.17a17.09,17.09,0,0,1,2-1.36c1.12-.65,1.84-.83,2.34-.59s.64.68.65,1.4a4.74,4.74,0,0,1-1.52,3.25v0C559.78,97.77,560.16,98.21,560.35,99.07Zm-2.54-.93a3.44,3.44,0,0,0,1.82-2.82c0-1.2-.76-1.29-1.87-.67a6.94,6.94,0,0,0-1,.71v3.4l1.07-.62"/><polygon class="cls-2" points="566.52 88.75 566.52 89.75 563.19 91.67 563.2 94.61 566.35 92.8 566.35 93.79 563.21 95.6 563.22 98.96 566.73 96.94 566.73 97.94 562.17 100.57 562.14 91.27 566.52 88.75"/><path class="cls-2" d="M574.2,99c2.2-1.27,3.64-.16,3.65,2.61a8.19,8.19,0,0,1-3.75,7.07c-2.14,1.24-3.64.2-3.65-2.62A8.31,8.31,0,0,1,574.2,99Zm0,8.67c1.66-1,2.59-3.26,2.58-5.37,0-1.85-.85-3.3-2.59-2.29s-2.59,3.33-2.58,5.37.94,3.24,2.59,2.29"/><path class="cls-2" d="M571.46,85.89l2.79,7.71-1.12.64-.87-2.42-2.88,1.66-.82,3.41-1.09.62,2.73-10.89Zm-1.86,6.52L572,91l-.8-2.22c-.18-.5-.31-1-.43-1.45l0,0c-.12.61-.25,1.26-.4,1.91l-.79,3.15"/><path class="cls-2" d="M580.92,81.52c.72.34,1.15,1.18,1.15,2.68a8.51,8.51,0,0,1-1.16,4.3,9.59,9.59,0,0,1-3.57,3.39,17.92,17.92,0,0,1-1.9,1l0-9.15a23.74,23.74,0,0,1,2.22-1.48C579.14,81.38,580.21,81.17,580.92,81.52Zm-3.38,9.3A6.62,6.62,0,0,0,581,84.87c0-2.2-1.08-3-3.29-1.69a9.43,9.43,0,0,0-1.23.83l0,7.34a7.94,7.94,0,0,0,1.06-.53"/><path class="cls-2" d="M588.65,76,586,82.87l0,4-1.06.62v-4l-2.57-3.88,1.18-.69,1.15,1.91c.32.52.56,1,.81,1.45h0c.22-.74.5-1.51.8-2.39l1.17-3.24Z"/><polygon class="cls-2" points="549.77 113.29 549.78 114.31 547.3 115.74 547.32 124.02 546.26 124.63 546.24 116.35 543.78 117.77 543.78 116.75 549.77 113.29"/><path class="cls-2" d="M553.63,110.91c2.21-1.28,3.65-.16,3.65,2.6a8.19,8.19,0,0,1-3.74,7.08c-2.14,1.23-3.65.19-3.66-2.63A8.34,8.34,0,0,1,553.63,110.91Zm0,8.66c1.66-1,2.59-3.25,2.59-5.37,0-1.85-.85-3.3-2.6-2.29s-2.58,3.34-2.58,5.38,1,3.23,2.59,2.28"/><path class="cls-2" d="M583.86,100.37a10.82,10.82,0,0,0,.63,2.19l-1.08.62a8.37,8.37,0,0,1-.54-1.91c-.25-1.14-.68-1.38-1.63-.88l-1,.58v4l-1,.6,0-9.18a16.13,16.13,0,0,1,2-1.35c1.12-.65,1.84-.83,2.34-.59s.65.68.65,1.39a4.75,4.75,0,0,1-1.52,3.26v0C583.29,99.06,583.67,99.51,583.86,100.37Zm-2.54-.93a3.44,3.44,0,0,0,1.82-2.83c0-1.19-.76-1.28-1.87-.66a6.94,6.94,0,0,0-1,.71v3.4l1.07-.62"/><path class="cls-2" d="M591.15,89.4,588.23,95l3.17,3.53-1.24.71-2.68-3-.76,1.47v3.55l-1.05.6,0-9.3,1-.61,0,4.49,0,0c.22-.48.43-.93.64-1.35l2.46-4.92Z"/><path class="cls-57" d="M58,306.56v1.09a.84.84,0,0,0,1.25.73l22-12.41a.82.82,0,0,0,.41-.72v-1.09a.83.83,0,0,0-1.25-.72l-22,12.4A.84.84,0,0,0,58,306.56Z"/><path class="cls-57" d="M41.71,321.3v1.09a.84.84,0,0,0,1.25.73l38.32-21.73a.83.83,0,0,0,.42-.72v-1.09a.84.84,0,0,0-1.25-.73L42.13,320.58A.83.83,0,0,0,41.71,321.3Z"/><g class="cls-58"><path class="cls-57" d="M50.54,327.08v1.09a.83.83,0,0,0,1.25.72l29.49-16.66a.83.83,0,0,0,.42-.72v-1.09a.84.84,0,0,0-1.25-.73L51,326.35A.87.87,0,0,0,50.54,327.08Z"/></g><path class="cls-57" d="M45,324.82v1.09a.83.83,0,0,0,1.25.72l35-19.82a.83.83,0,0,0,.42-.72V305a.84.84,0,0,0-1.25-.73l-35,19.82A.84.84,0,0,0,45,324.82Z"/><path class="cls-2" d="M58.09,279.89c2.21-1.28,3.65-.15,3.66,2.6A8.19,8.19,0,0,1,58,289.57c-2.14,1.23-3.65.19-3.66-2.62A8.34,8.34,0,0,1,58.09,279.89Zm0,8.66c1.66-1,2.6-3.25,2.59-5.37,0-1.85-.85-3.29-2.59-2.28s-2.6,3.33-2.59,5.38.95,3.22,2.59,2.27"/><path class="cls-2" d="M67.37,275.39c.45.18.72.7.72,1.53a4.77,4.77,0,0,1-.62,2.35A6.73,6.73,0,0,1,65,281.73a4.15,4.15,0,0,1-.84.4v3.73l-1,.6,0-9.2a21,21,0,0,1,2-1.34C66.13,275.33,66.89,275.17,67.37,275.39ZM65,280.75a3.72,3.72,0,0,0,2-3.16c0-1.24-.76-1.39-1.91-.73a7,7,0,0,0-1,.67v3.62a4.13,4.13,0,0,0,.87-.4"/><polygon class="cls-2" points="73.86 270.94 73.86 271.94 70.53 273.86 70.54 276.81 73.69 274.99 73.69 275.99 70.55 277.8 70.56 281.16 74.06 279.13 74.06 280.14 69.51 282.77 69.48 273.46 73.86 270.94"/><path class="cls-2" d="M81.48,266.54l0,9.3-1,.61-2.59-3.23A14.26,14.26,0,0,1,76.34,271l0,0c.07,1.14.09,2.25.1,3.79v4l-1,.57,0-9.3,1.14-.66,2.61,3.21a13.23,13.23,0,0,1,1.46,2.19l0,0c-.09-1.19-.12-2.31-.13-3.76v-3.89Z"/><g class="cls-13"><path class="cls-2" d="M43.78,303.18l2.79,7.7-1.11.65-.88-2.43-2.87,1.66-.83,3.41-1.09.63,2.73-10.89Zm-1.86,6.52,2.44-1.41-.8-2.22c-.18-.51-.3-1-.42-1.45h0c-.12.62-.26,1.26-.41,1.91l-.79,3.16"/><path class="cls-2" d="M40.19,305.25l-2.87,11-1.15.67-2.67-7.77,1.13-.66,1.27,3.86c.35,1.05.66,2,.88,3l0,0c.22-1.2.56-2.57.92-4l1.35-5.39Z"/></g><path class="cls-2" d="M51.3,298.68a4.12,4.12,0,0,1,1.93-.69L53,299.11a3.69,3.69,0,0,0-1.63.55,6.47,6.47,0,0,0-3.15,5.67c0,2.28,1.15,3.08,3.12,1.95A7.43,7.43,0,0,0,53,305.9l.22.83a9,9,0,0,1-2.14,1.68c-2.29,1.32-4,.65-4-2.4A8.73,8.73,0,0,1,51.3,298.68Z"/><path class="cls-2" d="M58,295l2.79,7.71-1.12.64-.88-2.42-2.86,1.65L55.07,306,54,306.6l2.72-10.89Zm-1.86,6.52,2.43-1.41-.8-2.22c-.18-.5-.3-1-.42-1.45h0c-.12.62-.25,1.27-.4,1.92l-.79,3.15"/><path class="cls-2" d="M68,289.19l0,9.3L67,299.1l-2.59-3.23a15.51,15.51,0,0,1-1.52-2.24l0,0c.06,1.14.09,2.24.09,3.78v4L62,302l0-9.3,1.14-.66,2.61,3.2a12.5,12.5,0,0,1,1.46,2.2l0,0c-.1-1.2-.13-2.31-.14-3.76v-3.89Z"/><path class="cls-2" d="M73.59,285.81a4.09,4.09,0,0,1,1.92-.69l-.25,1.12a3.64,3.64,0,0,0-1.63.56,6.46,6.46,0,0,0-3.15,5.67c0,2.27,1.15,3.08,3.12,1.94A7.18,7.18,0,0,0,75.3,293l.22.83a8.84,8.84,0,0,1-2.14,1.67c-2.28,1.32-4,.65-4-2.4A8.76,8.76,0,0,1,73.59,285.81Z"/><path class="cls-2" d="M82.42,280.87l-2.7,6.91v4l-1,.61v-4l-2.58-3.88,1.19-.68,1.15,1.91c.31.52.55.95.81,1.45l0,0c.22-.73.5-1.5.81-2.39l1.16-3.23Z"/><path class="cls-57" d="M201,188.56v1.09a.84.84,0,0,0,1.25.73l22-12.41a.82.82,0,0,0,.41-.72v-1.09a.83.83,0,0,0-1.25-.72l-22,12.4A.84.84,0,0,0,201,188.56Z"/><path class="cls-57" d="M184.71,203.3v1.09a.84.84,0,0,0,1.25.73l38.32-21.73a.83.83,0,0,0,.42-.72v-1.09a.84.84,0,0,0-1.25-.73l-38.32,21.73A.83.83,0,0,0,184.71,203.3Z"/><g class="cls-58"><path class="cls-57" d="M193.54,209.08v1.09a.83.83,0,0,0,1.25.72l29.49-16.66a.83.83,0,0,0,.42-.72v-1.09a.84.84,0,0,0-1.25-.73L194,208.35A.87.87,0,0,0,193.54,209.08Z"/></g><path class="cls-57" d="M188,206.82v1.09a.83.83,0,0,0,1.25.72l35-19.82a.83.83,0,0,0,.42-.72V187a.84.84,0,0,0-1.25-.73l-35,19.82A.84.84,0,0,0,188,206.82Z"/><path class="cls-2" d="M197.32,180.35c2.21-1.28,3.65-.16,3.65,2.61a8.19,8.19,0,0,1-3.74,7.07c-2.14,1.23-3.65.19-3.66-2.63A8.35,8.35,0,0,1,197.32,180.35Zm0,8.66c1.66-1,2.59-3.25,2.59-5.37,0-1.84-.86-3.29-2.6-2.28s-2.58,3.33-2.58,5.37.94,3.23,2.59,2.28"/><polygon class="cls-2" points="197.31 165.63 197.34 174.94 196.28 175.54 196.27 171.19 192.35 173.45 192.36 177.81 191.32 178.41 191.29 169.11 192.34 168.5 192.35 172.4 196.27 170.14 196.26 166.24 197.31 165.63"/><polygon class="cls-2" points="200.17 163.98 200.2 173.28 199.16 173.88 199.13 164.58 200.17 163.98"/><path class="cls-2" d="M206.67,167a10.6,10.6,0,0,0,.63,2.19l-1.08.63a8.53,8.53,0,0,1-.54-1.92c-.25-1.14-.69-1.37-1.64-.86l-1,.57v4l-1,.61,0-9.18a17.09,17.09,0,0,1,2-1.36c1.12-.64,1.84-.83,2.34-.59s.64.69.64,1.41a4.72,4.72,0,0,1-1.52,3.25v0C206.1,165.69,206.48,166.13,206.67,167Zm-2.54-.92a3.44,3.44,0,0,0,1.82-2.82c0-1.21-.76-1.3-1.87-.67a6.24,6.24,0,0,0-1,.71v3.4l1.07-.62"/><polygon class="cls-2" points="209.51 158.59 209.54 167.89 208.49 168.5 208.47 159.19 209.51 158.59"/><path class="cls-2" d="M217.42,154l0,9.31-1.05.61-2.59-3.24a14.65,14.65,0,0,1-1.52-2.23l0,0c.06,1.14.09,2.24.1,3.79v4l-1,.57,0-9.31,1.14-.66,2.61,3.22a13.6,13.6,0,0,1,1.46,2.18l0,0c-.1-1.19-.13-2.31-.14-3.75v-3.9Z"/><path class="cls-2" d="M223.15,150.62a5,5,0,0,1,2-.74l-.25,1.13a4,4,0,0,0-1.79.63,6.5,6.5,0,0,0-3.25,5.62c0,2.36,1.25,3,3.14,2a5.55,5.55,0,0,0,1.39-1.05v-2.78l-1.64,1v-1l2.67-1.54v4.47a12.78,12.78,0,0,1-2.48,1.94c-1.23.71-2.24.94-3,.53s-1.14-1.37-1.14-2.81A8.77,8.77,0,0,1,223.15,150.62Z"/><path class="cls-2" d="M185.42,188.08c.45.18.71.7.72,1.53a4.8,4.8,0,0,1-.62,2.35,6.67,6.67,0,0,1-2.47,2.45,4.2,4.2,0,0,1-.85.4l0,3.73-1.05.6,0-9.19a19.3,19.3,0,0,1,2-1.34C184.18,188,184.94,187.85,185.42,188.08Zm-2.36,5.35a3.67,3.67,0,0,0,2-3.16c0-1.23-.76-1.39-1.92-.72a7.57,7.57,0,0,0-1,.66v3.62a3.68,3.68,0,0,0,.86-.4"/><path class="cls-2" d="M192.21,190.21a10.13,10.13,0,0,0,.63,2.2l-1.09.62a9.66,9.66,0,0,1-.54-1.91c-.24-1.14-.68-1.38-1.63-.87l-1,.57v4l-1.05.6,0-9.17a16,16,0,0,1,2-1.36c1.12-.65,1.84-.83,2.35-.59s.63.68.64,1.4A4.72,4.72,0,0,1,191,189V189C191.63,188.91,192,189.36,192.21,190.21Zm-2.54-.92a3.46,3.46,0,0,0,1.82-2.82c0-1.2-.77-1.29-1.87-.67a7.19,7.19,0,0,0-1,.71v3.4l1.08-.62"/><path class="cls-2" d="M206.07,175.3a4.07,4.07,0,0,1,1.92-.7l-.25,1.13a3.63,3.63,0,0,0-1.64.55A6.48,6.48,0,0,0,203,182c0,2.27,1.15,3.08,3.12,1.94a6.9,6.9,0,0,0,1.7-1.37l.22.83a8.83,8.83,0,0,1-2.14,1.68c-2.27,1.31-4,.65-4-2.4A8.71,8.71,0,0,1,206.07,175.3Z"/><polygon class="cls-2" points="213.66 171.07 213.66 172.07 210.34 173.99 210.34 176.94 213.49 175.12 213.49 176.11 210.35 177.93 210.36 181.28 213.87 179.26 213.87 180.26 209.31 182.9 209.28 173.59 213.66 171.07"/><path class="cls-2" d="M217.58,168.65a3.34,3.34,0,0,1,1.79-.58l-.29,1.15a3.19,3.19,0,0,0-3.06,2.72c0,.87.5,1,1.62.86,1.37-.18,2.07.18,2.07,1.55a5.23,5.23,0,0,1-2.83,4.31,3.7,3.7,0,0,1-2.07.6l.27-1.16a3.09,3.09,0,0,0,1.87-.48,3.13,3.13,0,0,0,1.7-2.56c0-.87-.44-1.12-1.54-1-1.32.22-2.14-.09-2.14-1.41A5,5,0,0,1,217.58,168.65Z"/><path class="cls-2" d="M223.5,165.23a3.34,3.34,0,0,1,1.79-.58L225,165.8a2.72,2.72,0,0,0-1.54.45,2.79,2.79,0,0,0-1.52,2.27c0,.87.5,1,1.62.86,1.36-.18,2.06.18,2.07,1.55a5.26,5.26,0,0,1-2.83,4.31,3.74,3.74,0,0,1-2.07.6l.26-1.16a3.49,3.49,0,0,0,3.57-3c0-.88-.44-1.12-1.53-1-1.32.22-2.14-.09-2.15-1.41A5.07,5.07,0,0,1,223.5,165.23Z"/><polyline class="cls-4" points="86 262.5 86 319.5 60.5 334 60.5 349.9"/><polygon class="cls-6" points="384.67 194.43 384.58 226.36 366.38 215.86 366.47 183.93 384.67 194.43"/><polygon class="cls-59" points="382.29 195.77 382.92 195.4 382.83 227.34 382.2 227.7 382.29 195.77"/><polygon class="cls-2" points="364.09 185.26 364.72 184.9 382.92 195.4 382.29 195.77 364.09 185.26"/><polygon class="cls-60" points="382.29 195.77 382.2 227.7 364 217.2 364.09 185.26 382.29 195.77"/><polygon class="cls-5" points="367.96 192.11 367.96 192.57 378.56 198.69 378.56 198.23 367.96 192.11"/><polygon class="cls-5" points="372.55 196.59 372.55 197.05 378.55 200.51 378.55 200.06 372.55 196.59"/><polygon class="cls-5" points="368.81 203.41 368.81 203.86 378.52 209.47 378.53 209.01 368.81 203.41"/><polygon class="cls-5" points="372.53 203.52 372.53 203.98 378.53 207.45 378.53 206.99 372.53 203.52"/><polygon class="cls-5" points="370.93 200.77 370.93 201.23 378.54 205.62 378.54 205.16 370.93 200.77"/><polygon class="cls-5" points="375.79 200.49 375.79 200.95 378.54 202.54 378.55 202.08 375.79 200.49"/><path class="cls-61" d="M375.62,210.84c-1.69-1-3.29-.72-3.95.81-.83,1.93.11,5.16,2.1,7.4l.47-1.07c-1.35-1.58-2-3.8-1.41-5.13.47-1.08,1.6-1.26,2.79-.57a5,5,0,0,1,.87.66l.46-1.08A7.39,7.39,0,0,0,375.62,210.84Z"/><path class="cls-62" d="M377,211.86l-.46,1.08a2.13,2.13,0,0,1,.22.21c1.53,1.58,2.28,4,1.67,5.42l-.07.15,0,.05a1.65,1.65,0,0,1-2.23.59,3.11,3.11,0,0,1-.45-.22l-.12-.07-.19-.12,0,0-.36-.28-.05,0-.13-.12s0,0-.05-.05l-.17-.17a3.58,3.58,0,0,1-.27-.29l-.47,1.07.27.29.25.25.07.06.19.17.07.06c.17.14.34.28.51.4l0,0,.24.15,0,0,.16.09c.13.08.26.14.38.2a2,2,0,0,0,.27.12c1.44.57,2.73.21,3.3-1.13.86-2-.2-5.45-2.37-7.68C377.1,212,377,211.93,377,211.86Z"/><path class="cls-62" d="M367,212.14v.24a.17.17,0,0,1-.26.15l-1.1-.63a.19.19,0,0,1-.09-.16v-.23a.18.18,0,0,1,.27-.15l1.09.63A.16.16,0,0,1,367,212.14Z"/><path class="cls-62" d="M370.47,215.28v.24a.17.17,0,0,1-.26.15l-4.57-2.62a.19.19,0,0,1-.09-.15v-.23a.18.18,0,0,1,.27-.16l4.56,2.62A.16.16,0,0,1,370.47,215.28Z"/><g class="cls-58"><path class="cls-62" d="M368.59,216.51v.24a.17.17,0,0,1-.26.15l-2.69-1.54a.19.19,0,0,1-.09-.15V215a.18.18,0,0,1,.27-.16l2.68,1.54A.16.16,0,0,1,368.59,216.51Z"/></g><path class="cls-62" d="M369.77,216v.23a.18.18,0,0,1-.27.16l-3.86-2.21a.19.19,0,0,1-.09-.16v-.23a.18.18,0,0,1,.27-.15l3.86,2.21A.19.19,0,0,1,369.77,216Z"/><path class="cls-24" d="M314.72,113.51a.87.87,0,0,1,.4.56l.71,2.94a2.54,2.54,0,0,0,1.11,1.56l2.3,1.33c.41.24.57.93.25,1l-1.88.48c-.41.1-.58.61-.42,1.25l.7,2.94c.09.39-.14.55-.4.4a.93.93,0,0,1-.25-.24l-1.86-2.63a2.19,2.19,0,0,0-.68-.65,1,1,0,0,0-.69-.14l-1.87.48a.33.33,0,0,1-.25,0,.88.88,0,0,1-.4-.87l.72-2.11a2.11,2.11,0,0,0-.42-1.74l-1.86-2.64c-.33-.46-.16-1,.25-.73l2.31,1.33c.5.29.95.18,1.11-.28l.72-2.11C314.38,113.42,314.55,113.41,314.72,113.51Z"/><path class="cls-24" d="M326.59,120.13a.92.92,0,0,1,.4.56l.71,2.94a2.6,2.6,0,0,0,1.11,1.57l2.31,1.33c.4.23.57.93.24,1l-1.87.49c-.41.1-.59.61-.43,1.25l.7,2.93c.1.39-.13.56-.4.4a.73.73,0,0,1-.24-.23l-1.86-2.64a2.46,2.46,0,0,0-.69-.65,1,1,0,0,0-.69-.14l-1.87.48a.31.31,0,0,1-.24-.05.87.87,0,0,1-.41-.86l.73-2.11a2.14,2.14,0,0,0-.43-1.75L321.8,122c-.32-.46-.15-1,.26-.73l2.3,1.33c.5.29,1,.18,1.11-.29l.73-2.11C326.26,120.05,326.43,120,326.59,120.13Z"/><path class="cls-24" d="M338.47,126.76a.87.87,0,0,1,.4.56l.71,2.94a2.54,2.54,0,0,0,1.11,1.56l2.3,1.33c.41.24.57.93.25,1l-1.88.48c-.41.1-.58.61-.42,1.25l.7,2.94c.09.39-.14.55-.4.4A.93.93,0,0,1,341,139l-1.86-2.63a2.19,2.19,0,0,0-.68-.65,1,1,0,0,0-.69-.14l-1.87.48a.33.33,0,0,1-.25-.05.88.88,0,0,1-.4-.87L336,133a2.11,2.11,0,0,0-.42-1.74l-1.86-2.64c-.33-.46-.16-1,.25-.73l2.31,1.33c.5.29.95.18,1.11-.28l.72-2.11C338.13,126.67,338.3,126.66,338.47,126.76Z"/><path class="cls-24" d="M350.34,133.38a.92.92,0,0,1,.4.56l.71,2.94a2.6,2.6,0,0,0,1.11,1.57l2.31,1.33c.4.23.57.93.24,1l-1.87.49c-.41.1-.59.61-.43,1.25l.7,2.93c.1.39-.13.56-.4.4a.73.73,0,0,1-.24-.23L351,143a2.46,2.46,0,0,0-.69-.65,1,1,0,0,0-.69-.14l-1.87.48a.31.31,0,0,1-.24-.05.87.87,0,0,1-.41-.86l.73-2.11a2.14,2.14,0,0,0-.43-1.75l-1.86-2.63c-.32-.46-.15-1,.26-.73l2.3,1.33c.5.29,1,.18,1.11-.29l.73-2.11C350,133.3,350.18,133.28,350.34,133.38Z"/><path class="cls-24" d="M362.22,140a.87.87,0,0,1,.4.56l.71,2.94a2.54,2.54,0,0,0,1.11,1.56l2.3,1.33c.41.24.57.93.25,1l-1.88.48c-.41.1-.58.61-.42,1.25l.7,2.94c.09.39-.14.55-.4.4a.93.93,0,0,1-.25-.24l-1.86-2.63a2.19,2.19,0,0,0-.68-.65,1,1,0,0,0-.69-.14l-1.87.48a.33.33,0,0,1-.25-.05.88.88,0,0,1-.4-.87l.72-2.11a2.11,2.11,0,0,0-.42-1.74l-1.86-2.64c-.33-.46-.16-1,.25-.73L360,142.5c.5.29.95.18,1.11-.28l.72-2.11C361.88,139.92,362.05,139.91,362.22,140Z"/><path class="cls-63" d="M316.25,219c-16.62-9.6-43.49-9.61-60,0s-16.43,25.17.2,34.77,43.49,9.59,60,0S332.87,228.62,316.25,219Zm-10.47,28.1c-10.66,6.2-28,6.2-38.74,0s-10.79-16.25-.13-22.45,28-6.19,38.74,0S316.44,240.94,305.78,247.13Z"/><g class="cls-13"><path class="cls-63" d="M317,213.3l0,5.6-.17-.1,0-5.6Z"/><path class="cls-63" d="M255.35,213.66l0,5.6-.12.07v-5.59Z"/><path class="cls-63" d="M321.89,222.41l.23.2Z"/><path class="cls-63" d="M318.54,214.26l0,5.59-.2-.13,0-5.59Z"/><path class="cls-63" d="M254.28,214.35V220l-.19.12,0-5.59Z"/><path class="cls-63" d="M254.1,214.48l.18-.13Z"/><path class="cls-63" d="M250,223.35a2.73,2.73,0,0,0,.25-.23A2.73,2.73,0,0,1,250,223.35Z"/><path class="cls-63" d="M252.41,221.29c0-1.86,0-3.73,0-5.59l.2-.16,0,5.6Z"/><path class="cls-63" d="M252.41,221.29v-5.58h0C252.43,217.56,252.42,219.43,252.41,221.29Z"/><path class="cls-63" d="M248.58,224.9l.16-.18Z"/><path class="cls-63" d="M322,222.47l-.07-.06,0-5.6.07.06C322,218.74,322,220.6,322,222.47Z"/><path class="cls-63" d="M322,222.47c0-1.87,0-3.73,0-5.6l.15.13c0,1.87,0,3.73,0,5.6Z"/><path class="cls-63" d="M322.11,222.6c0-1.87,0-3.73,0-5.6h0v5.6Z"/><path class="cls-63" d="M248.2,225.36l.16-.2Z"/><path class="cls-63" d="M322.52,223l-.06-.05,0-5.6.06.06C322.53,219.24,322.53,221.11,322.52,223Z"/><path class="cls-63" d="M322.52,223c0-1.86,0-3.73,0-5.59l.18.16c0,1.87,0,3.73,0,5.6Z"/><path class="cls-63" d="M322.7,223.14c0-1.87,0-3.73,0-5.6h0l0,5.6Z"/><path class="cls-63" d="M250.29,223.12c0-1.86,0-3.73,0-5.59h0v5.6Z"/><path class="cls-63" d="M250.06,223.34c0-1.87,0-3.73,0-5.6l.22-.21c0,1.86,0,3.73,0,5.59Z"/><path class="cls-63" d="M250.06,223.34h0l0-5.59,0,0C250.07,219.61,250.07,221.47,250.06,223.34Z"/><path class="cls-63" d="M249.78,218v5.6l-.22.21,0-5.59Z"/><path class="cls-63" d="M249.48,218.35l.09-.1Z"/><path class="cls-63" d="M249.57,218.25l0,5.59-.09.1,0-5.59Z"/><path class="cls-63" d="M249.48,218.35l0,5.59-.12.12,0-5.59Z"/><path class="cls-63" d="M249.24,218.59l.12-.12Z"/><path class="cls-63" d="M249.36,218.47l0,5.59-.11.13v-5.6Z"/><path class="cls-63" d="M249.24,218.59v5.6l-.09.09,0-5.59A.39.39,0,0,1,249.24,218.59Z"/><path class="cls-63" d="M249.16,218.69l0,5.59-.14.16v-5.6Z"/><path class="cls-63" d="M249,218.84l.15-.15Z"/><path class="cls-63" d="M249,218.84v5.6l-.06.06,0-5.6Z"/><path class="cls-63" d="M249,218.9l0,5.6-.16.18v-5.59Z"/><path class="cls-63" d="M248.79,219.09v5.59l0,0,0-5.6Z"/><path class="cls-63" d="M248.76,219.12l0,5.6-.16.18,0-5.59Z"/><path class="cls-63" d="M248.6,219.31l0,5.59,0,0,0-5.6Z"/><path class="cls-63" d="M248.57,219.34l0,5.6-.17.2,0-5.6Z"/><path class="cls-63" d="M248.4,219.54l0,5.6,0,0,0-5.6Z"/><path class="cls-63" d="M248.38,219.56l0,5.6-.16.2,0-5.6Z"/><path class="cls-63" d="M248.22,219.76l0,5.6,0,0,0-5.59Z"/><path class="cls-63" d="M248,220l.17-.21Z"/><path class="cls-63" d="M248.2,219.79l0,5.59-.17.21,0-5.59Z"/><path class="cls-63" d="M248,220l0,5.59v0l0-5.6Z"/><path class="cls-63" d="M247.36,226.45c0-1.86,0-3.73,0-5.59.2-.29.41-.57.64-.85l0,5.6C247.78,225.89,247.56,226.17,247.36,226.45Z"/><path class="cls-63" d="M246.34,228c0-1.86,0-3.73,0-5.59a18.51,18.51,0,0,1,1-1.58c0,1.86,0,3.73,0,5.59C247,227,246.65,227.5,246.34,228Z"/><path class="cls-63" d="M262.62,222.79l.26-.28Z"/><path class="cls-63" d="M259.82,232.88l.09-.27Z"/><path class="cls-63" d="M245.33,230.05c0-1.87,0-3.74,0-5.6a17.08,17.08,0,0,1,1-2c0,1.86,0,3.73,0,5.59A18.12,18.12,0,0,0,245.33,230.05Z"/><path class="cls-63" d="M261.22,224.53l.15-.21Z"/><path class="cls-63" d="M261,224.83l.15-.22Z"/><path class="cls-63" d="M261,224.91l0-.08Z"/><path class="cls-63" d="M260.84,225.13c0-.08.09-.15.13-.22S260.88,225.05,260.84,225.13Z"/><path class="cls-63" d="M260.5,225.73l.12-.23Z"/><path class="cls-63" d="M260.34,226l.12-.24Z"/><path class="cls-63" d="M244.75,231.68c0-1.87,0-3.73,0-5.6.17-.54.36-1.09.59-1.63,0,1.86,0,3.73,0,5.6A16.67,16.67,0,0,0,244.75,231.68Z"/><path class="cls-63" d="M260.07,226.65c0-.08.07-.16.11-.25C260.14,226.49,260.1,226.57,260.07,226.65Z"/><path class="cls-63" d="M260,227a2,2,0,0,1,.1-.26A2,2,0,0,0,260,227Z"/><path class="cls-63" d="M259.73,227.6l.09-.28Z"/><polygon class="cls-63" points="259.64 227.93 259.64 227.92 259.64 227.93 259.64 227.94 259.64 227.93"/><path class="cls-64" d="M310.3,222.64l-.16-.17-.17-.16-.17-.17-.18-.16-.18-.17-.18-.16-.19-.16c-3.13-2.2-3.21-2.25-3.3-2.29-10.66-6.16-27.92-6.16-38.52,0a2,2,0,0,1-.25.14c-3.66,2.73-3.7,2.77-3.75,2.82l-.18.17-.17.17a12.24,12.24,0,0,0-3.26,5.48v0c0,.13-.07.27-.09.4s-.06.29-.09.44v.09h0v-.09c0,.12,0,.25,0,.38a1.36,1.36,0,0,0,0,.2c0,.31-.06.62-.06.93v5.6c0-.31,0-.62.05-.93l0-.2a11.63,11.63,0,0,1,3.48-6.65l.17-.18.18-.17s.1-.09,3.76-2.81l.24-.14c10.61-6.17,27.86-6.17,38.53,0,.08.05.16.1,3.29,2.3l.19.16.18.16.18.16.18.17.17.16.17.17a1.36,1.36,0,0,1,.17.17A11.12,11.12,0,0,1,313.8,236l0-5.6A11.18,11.18,0,0,0,310.3,222.64Z"/><path class="cls-63" d="M329,236.07c0-4.18-1.8-8.36-5.45-12.12v-5.59c3.65,3.75,5.47,7.94,5.46,12.12C329,232.15,329,234.39,329,236.07Z"/><path class="cls-63" d="M259.43,237.34a8,8,0,0,1-.11-1.46v-5.6a10.39,10.39,0,0,0,.11,1.47C259.44,233.61,259.43,235.48,259.43,237.34Z"/><path class="cls-63" d="M259.43,237.34c0-.17,0-.41,0-.58v-.62c0-.43,0-.87,0-1.3v-3.09c.05.29.11.58.18.86,0,1.87,0,3.74,0,5.6A6.72,6.72,0,0,1,259.43,237.34Z"/><path class="cls-63" d="M259.61,238.21a2.28,2.28,0,0,1,0-.37v-.36c0-1.62,0-3.24,0-4.87a11.18,11.18,0,0,0,1.58,3.46c0,1.87,0,3.73,0,5.6A11,11,0,0,1,259.61,238.21Z"/><path class="cls-63" d="M261.19,241.67a1.34,1.34,0,0,1,0-.4v-5.2c.26.38.54.75.85,1.12,0,1.86,0,3.73,0,5.59A10.79,10.79,0,0,1,261.19,241.67Z"/><path class="cls-63" d="M262,242.78v-.58c0-1.67,0-3.34,0-5a18.9,18.9,0,0,0,4.4,3.76l0,5.6A18.63,18.63,0,0,1,262,242.78Z"/><path class="cls-64" d="M255.74,247.17c-.3-.18-.57-.37-.86-.55l-.79-.53c-.31-.22-.62-.43-.92-.66s-.52-.4-.78-.6q-.66-.51-1.26-1.05l-.67-.6-.71-.69c-.23-.23-.45-.47-.66-.7s-.61-.69-.89-1-.38-.46-.55-.7-.34-.46-.5-.69-.37-.56-.54-.85-.37-.61-.54-.92-.29-.56-.42-.83-.2-.44-.29-.66-.27-.68-.39-1-.3-.92-.41-1.39l0-.08c0-.2-.08-.39-.12-.59.09-.45.2-.9.33-1.34,0-1.87,0-3.73,0-5.6a16.82,16.82,0,0,0-.46,2.08,13.12,13.12,0,0,0-.14,1.65c0,.14,0,.28,0,.42v.14s0-.09,0-.13v5.59a14.25,14.25,0,0,0,.18,2.26v0c.06.36.13.72.22,1.08v.07c.05.18.09.37.14.55v-.07h0a.16.16,0,0,0,0,.07c0,.16.09.33.14.5s.1.23.14.35c.12.34.24.68.38,1s.19.44.3.66.27.56.42.83.34.62.53.93.35.57.54.85l.5.69c.18.23.36.47.55.7s.58.69.89,1l.66.71.72.69.66.6c.4.35.83.7,1.27,1.05l.77.6.92.66.79.52c.26.17.49.34.75.5v0l.12.08Z"/><polygon class="cls-64" points="266.44 240.95 266.43 246.55 255.72 252.77 255.74 247.17 266.44 240.95"/><path class="cls-63" d="M317.26,253h0v-5.59h0C317.27,249.24,317.27,251.11,317.26,253Z"/><path class="cls-64" d="M328.91,237.41a10.69,10.69,0,0,0,.06-1.13c0-.07,0-.14,0-.21l0-5.59v0c0,.06,0,.13,0,.2,0,.38,0,.76-.06,1.13,0,.18-.05.35-.07.53s-.08.57-.14.85-.09.49-.15.74v0c-.09.35-.19.7-.3,1l-.06.19c-.11.31-.22.61-.35.91,0,.07-.05.13-.07.19-.15.34-.3.69-.48,1v0a20.19,20.19,0,0,1-1.28,2.17.44.44,0,0,0-.08.11q-.33.47-.69.93l-.11.14c-.25.32-.52.63-.79.94l-.1.11a26.48,26.48,0,0,1-3.15,3l-.08.07c-.38.3-.78.6-1.19.9l-.05,0q-1.31.94-2.79,1.83v5.59l.29-.18h0c.89-.53,1.71-1.09,2.5-1.66l.05,0c.41-.3.8-.6,1.18-.91l.09-.06a27.33,27.33,0,0,0,3.15-3l.09-.1.33-.37.19-.23c.1-.11.18-.23.27-.34l.12-.15c.24-.3.46-.61.68-.92l.08-.12a18.64,18.64,0,0,0,1.29-2.16v0c.17-.35.33-.69.47-1l.08-.18c.12-.3.24-.61.34-.91l.06-.19a10.17,10.17,0,0,0,.3-1v0s0-.08,0-.12l0-.11s0-.1,0-.16h0v-.07h0v.07c0-.11,0-.22.05-.33a8.55,8.55,0,0,0,.14-.86C328.87,237.76,328.89,237.58,328.91,237.41Z"/><path class="cls-65" d="M317,247.54c0,1.87,0,3.73,0,5.6l.27-.17c0-1.86,0-3.73,0-5.59Z"/><path class="cls-66" d="M316.47,213l.39.22.38.23.38.23c.15.1.25.17.36.23l.36.24.2.13.51.34.18.13.37.26.34.25.32.24.34.26.32.25.32.26c.15.13.24.19.31.26l.31.26.27.24.3.27.29.27.28.27a3358679592898.87,3358679592898.87,0,0,0,.54.54c9,9.29,6.86,21.23-6.56,29.19l-10.77-6.22c8.52-5.11,9.88-12.75,4.09-18.69l-.16-.17-.17-.16-.17-.17-.18-.16-.18-.17-.18-.16-.19-.16c-3.13-2.2-3.21-2.25-3.3-2.29-10.66-6.16-27.92-6.16-38.52,0a2,2,0,0,1-.25.14c-3.66,2.73-3.7,2.77-3.75,2.82l-.18.17-.17.17c-5.74,5.83-4.54,13.31,3.54,18.45l-10.7,6.22c-13.11-8-15.11-19.95-6-29.14l.26-.25.26-.26.27-.25.28-.25.28-.25.28-.24.3-.25.3-.25a3.42,3.42,0,0,1,.31-.24l.31-.25.32-.24.32-.24.33-.24.34-.23.34-.24.35-.23.19-.12.4-.26.37-.23.38-.23.5-.3C273,203.38,299.85,203.38,316.47,213Z"/><polygon class="cls-64" points="316.98 247.55 316.96 253.14 306.2 246.93 306.21 241.33 316.98 247.55"/></g><path class="cls-67" d="M349.42,149.07,364.83,158a5.31,5.31,0,0,1,2.4,4.16l0,9.08"/><path class="cls-67" d="M364.75,187.33l-55.59-32.14a5.24,5.24,0,0,1-2.39-4.15l.06-23.82c0-1.53,1.09-2.14,2.42-1.38L326.76,136"/><path class="cls-68" d="M367.2,171.22"/><path class="cls-57" d="M257.23,173.87V175a.84.84,0,0,0,1.25.73l5.14-3A.83.83,0,0,0,264,172v-1.09a.83.83,0,0,0-1.25-.72l-5.15,3A.85.85,0,0,0,257.23,173.87Z"/><path class="cls-57" d="M240.94,188.61v1.09a.84.84,0,0,0,1.25.73l21.43-12.29a.83.83,0,0,0,.42-.72v-1.09a.84.84,0,0,0-1.25-.73l-21.43,12.29A.83.83,0,0,0,240.94,188.61Z"/><g class="cls-58"><path class="cls-57" d="M249.77,194.39v1.09a.83.83,0,0,0,1.25.72L263.61,189a.83.83,0,0,0,.42-.72v-1.09a.83.83,0,0,0-1.24-.73l-12.6,7.22A.84.84,0,0,0,249.77,194.39Z"/></g><path class="cls-57" d="M244.26,192.13v1.09a.83.83,0,0,0,1.25.72l18.11-10.38a.84.84,0,0,0,.41-.72v-1.09a.84.84,0,0,0-1.25-.73L244.68,191.4A.84.84,0,0,0,244.26,192.13Z"/><path class="cls-66" d="M359.74,159.94a5.28,5.28,0,0,1,2.4,4.15l-.07,23.82c0,1.53-1.08,2.15-2.41,1.38l-55.59-32.14a5.29,5.29,0,0,1-2.39-4.15l.07-23.83c0-1.52,1.08-2.14,2.41-1.37Z"/><path class="cls-31" d="M312.82,141.4v.91a.7.7,0,0,1-1.05.6l-4.29-2.47a.71.71,0,0,1-.35-.61v-.9a.69.69,0,0,1,1-.61l4.3,2.48A.7.7,0,0,1,312.82,141.4Z"/><path class="cls-31" d="M326.41,153.7v.91a.69.69,0,0,1-1,.6L307.48,145a.7.7,0,0,1-.35-.6v-.91a.7.7,0,0,1,1-.61l17.89,10.26A.68.68,0,0,1,326.41,153.7Z"/><g class="cls-58"><path class="cls-31" d="M319,158.52v.91a.69.69,0,0,1-1,.6l-10.52-6a.73.73,0,0,1-.35-.61v-.91a.7.7,0,0,1,1.05-.6l10.51,6A.73.73,0,0,1,319,158.52Z"/></g><path class="cls-31" d="M323.64,156.63v.91a.7.7,0,0,1-1,.61l-15.12-8.67a.7.7,0,0,1-.35-.6V148a.7.7,0,0,1,1-.61L323.29,156A.7.7,0,0,1,323.64,156.63Z"/><g class="cls-13"><path class="cls-62" d="M345.49,176l-.29-.14Z"/><path class="cls-69" d="M346.57,164.81l.18.13.07.08c.42.54-.06,1.82-.58,1.52l-.05,0-.06-.05,0-.06a.88.88,0,0,1-.18-.52,2.27,2.27,0,0,1,.16-.88A.31.31,0,0,1,346.57,164.81Z"/><path class="cls-69" d="M346.09,166.39l0,.06.43,2.79a2.08,2.08,0,0,1-1.73.79c-.17,0-.34.27-.35.29l-.34-.79a3.88,3.88,0,0,1-.84-1.66v-.23l0-.51c1.21.2,2.57,0,2.79-.65Z"/><path class="cls-70" d="M346.56,169.24l.4.3a2.79,2.79,0,0,1,.08,1.17c-.09.5-1.14,1.45-1.37,1.32h0a5.59,5.59,0,0,1-.6-1.21,1.2,1.2,0,0,1-.43-.16,3.64,3.64,0,0,1-.66-.5l-.83.15a7.58,7.58,0,0,1-.09-1.5l.12-1.05.12-.07a1.21,1.21,0,0,0,0,.19,3.88,3.88,0,0,0,.84,1.66l.34.79s.18-.33.35-.29A2,2,0,0,0,346.56,169.24Z"/><path class="cls-71" d="M352.89,170.84c0,4.79-3.12,7-7.13,5.31,2.74,1.13,5,.47,6.24-1.59-1-1.81-3.4-3.79-5-5l-.4-.3-.43-2.79.06.05.05,0c.52.3,1-1,.58-1.52a2.55,2.55,0,0,0,.33-2,3.81,3.81,0,0,0-1-1.48s-.09-.2-.9-1.66a5.2,5.2,0,0,0-1.84-1.91,1.86,1.86,0,0,0-1.6-.27c-1,.42-.26,2.43-.22,2.54s-.87,4.25-.16,5.94a1.47,1.47,0,0,0,.58.55,4.08,4.08,0,0,0,1.29.42l0,.51a20.05,20.05,0,0,0-3.84-1c-1,.27-1.07.94-1.12,2a17.87,17.87,0,0,0,5.56,6.51c-4.23-2.86-7.55-8.86-7.54-13.84,0-5.24,3.73-7.36,8.3-4.72S352.9,165.59,352.89,170.84Z"/><path class="cls-72" d="M343.38,158a5.2,5.2,0,0,1,1.84,1.91c.81,1.46.89,1.65.9,1.66a3.81,3.81,0,0,1,1,1.48,2.55,2.55,0,0,1-.33,2l-.07-.08-.18-.13a.31.31,0,0,0-.5.18,2.27,2.27,0,0,0-.16.88l-.11-.18a15.14,15.14,0,0,1-.2-2.4,3.88,3.88,0,0,0-1.46-2.07,1.62,1.62,0,0,0-.19-.13,1.43,1.43,0,0,0-.75-.17,2.33,2.33,0,0,1-1.15-.39c-.15-.08-.31-.19-.49-.31s-.77-2.12.22-2.54A1.86,1.86,0,0,1,343.38,158Z"/><path class="cls-69" d="M344.65,155.3c-5.18-3-9.38-.59-9.4,5.36s4.16,13.18,9.34,16.17,9.38.59,9.4-5.35S349.82,158.29,344.65,155.3Zm1.25,20.9h0l-.12,0h0l-.29-.12-.31-.15-.14-.07-.16-.09-.15-.08-.14-.07-.14-.09-.12-.07-.11-.07-.11-.07-.11-.07-.11-.07-.17-.12,0,0a.91.91,0,0,0-.16-.11l-.06,0-.12-.09-.15-.11,0,0c-3.88-3-6.83-8.62-6.82-13.31,0-5.24,3.73-7.36,8.3-4.72s8.25,9,8.24,14.27c0,0,0,.08,0,.11v2l0,.05v.13l0,.06v.12l0,.06v0l0,.06v0l0,0v0l0,.06v0l0,.06v0l0,.06v0l0,.07h0l0,.07h0l0,.07h0l0,.07h0l0,.08h0c-1.11,2.29-3.47,3.1-6.3,2m.19.07.23.08Zm.28.1.05,0Zm-.39-.14.07,0Zm.55.19h0Zm.11,0h0Zm.11,0h0Zm-.91-.3h.06l0,0Z"/><path class="cls-62" d="M345.62,176.08l-.13-.05Z"/><path class="cls-62" d="M345.64,176.09l.12,0Z"/><path class="cls-69" d="M344,161.09a1.62,1.62,0,0,1,.19.13,3.88,3.88,0,0,1,1.46,2.07,15.14,15.14,0,0,0,.2,2.4l.11.18a.88.88,0,0,0,.18.52l0,.09c-.22.64-1.58.85-2.79.65a4.08,4.08,0,0,1-1.29-.42,1.47,1.47,0,0,1-.58-.55c-.71-1.69.12-5.73.16-5.94.18.12.34.23.49.31a2.33,2.33,0,0,0,1.15.39A1.43,1.43,0,0,1,344,161.09Z"/></g><path class="cls-72" d="M347,169.54c1.64,1.23,4,3.21,5,5-1.23,2.12-3.65,2.76-6.51,1.47l-.29-.14-.14-.07-.16-.08-.14-.08,0,0-.14-.07-.11-.07-.11-.07,0,0-.08,0,0,0-.08-.05-.12-.08-.12-.08a17.84,17.84,0,0,1-5.57-6.5c.05-1,.08-1.7,1.12-2a20.05,20.05,0,0,1,3.84,1v.23a1.21,1.21,0,0,1,0-.19l-.12.07-.12,1.05a7.58,7.58,0,0,0,.09,1.5l.83-.15a3.64,3.64,0,0,0,.66.5,1.2,1.2,0,0,0,.43.16,5.59,5.59,0,0,0,.6,1.21c.24.14,1.29-.81,1.38-1.31A2.79,2.79,0,0,0,347,169.54Z"/><polygon class="cls-6" points="309.12 195.22 309.15 205.21 295.27 213.23 295.24 203.23 309.12 195.22"/><path class="cls-27" d="M297.09,151.9l1.09-.84,1.42-3s.77-.32,1-.39a10.71,10.71,0,0,1,1.67.26,10.06,10.06,0,0,1,.9-1c.2-.13,1-1,1.29-.78s.26.52.06.78-.83.9-.83.9l-.71,1.74.06.64a.57.57,0,0,1,.52.39c.13.38.13.77-.32.9a5.91,5.91,0,0,0-.84.32,9.21,9.21,0,0,1-1.42.84,9.71,9.71,0,0,1-1.09.32l-.32.77Z"/><path class="cls-73" d="M303.53,150.68s0,0,0,0a2.51,2.51,0,0,0-.77.11c-.36.16-.87.88-1.08,1s-1.45.72-2,.2a4.22,4.22,0,0,0-1.8-.67l-.76.58,2.45,1.93.32-.77a9.71,9.71,0,0,0,1.09-.32,9.21,9.21,0,0,0,1.42-.84,5.91,5.91,0,0,1,.84-.32C303.66,151.45,303.66,151.06,303.53,150.68Z"/><path class="cls-31" d="M295.88,152.4l1.37-1.13s2.3.5,2.55,2.43l-1.12,1.19Z"/><path class="cls-74" d="M288.46,158.49l7.47-6.91s3.36.18,3.73,3l-7.47,8.59A4.75,4.75,0,0,1,288.46,158.49Z"/><path class="cls-27" d="M303.12,197.13l.49,2a24.81,24.81,0,0,1,.55,3c-.07.35-.35.28-.35.28a4,4,0,0,1-1.44.69c-.49,0-1.66.13-2-.14a2.86,2.86,0,0,1-.55-1.52.63.63,0,0,1,.34-.62,3.75,3.75,0,0,1,.07-1.17,6.71,6.71,0,0,1,.28-1l-.07-.69Z"/><path class="cls-73" d="M304.08,202.25a1,1,0,0,1-.39,0c-.19,0-.76.43-1.12.41s-.88.26-1.17,0-.43-.45-.27-.76a.75.75,0,0,0-.12-.74,2.06,2.06,0,0,1,.05-1.17,2.41,2.41,0,0,1,1.08-1.15,3.86,3.86,0,0,0,1.12-1.16l-.14-.56-2.68.75.07.69a6.71,6.71,0,0,0-.28,1,3.75,3.75,0,0,0-.07,1.17.63.63,0,0,0-.34.62,2.86,2.86,0,0,0,.55,1.52c.34.27,1.51.14,2,.14a4,4,0,0,0,1.44-.69A.29.29,0,0,0,304.08,202.25Z"/><path class="cls-31" d="M299.23,196.87l.57,1.44a3.09,3.09,0,0,0,1.91.16,3.66,3.66,0,0,0,1.76-1.24l-.42-1.14Z"/><path class="cls-29" d="M274.34,231.55l-.23,3.13a1.18,1.18,0,0,0,.71,1.16,3.46,3.46,0,0,0,1.86.19,3.72,3.72,0,0,0,2.89-1.79c.28-.55,3.86-3,3.45-4.27-.69-1.24-1.93,0-3.17,0S276,229.35,274.34,231.55Z"/><path class="cls-29" d="M275.17,183.7s-.83,21.07-.41,27.68c0,0-1.66,16.52-.83,20.45,0,0,2.89,2.06,5.37.41.62-.21.62-1,.62-1S281.57,215.72,282,211s3.72-19,3.1-22.11S280.54,181.43,275.17,183.7Z"/><path class="cls-29" d="M288.49,236s-1.13,3.51-.31,4.34a2.67,2.67,0,0,0,2.62.79,12.45,12.45,0,0,0,1.48-.59l.24-.72.28.48a3.31,3.31,0,0,0,1-.38c.55-.31,2.13-.93,2.79-1.34s1.82-1.13,1.93-2-3.14-.58-4-.55a7.61,7.61,0,0,1-1.72-.31c-.31,0-3.65.41-3.65.41"/><path class="cls-30" d="M293.72,183.31a39.42,39.42,0,0,1,.87,9.48c0,6.33-.56,22.31-.56,22.31s-.27,16.25-.55,20.38c0,0-1.92,2.48-5.23.55-1.65-1.93-1.1-3.31-1.1-3.31a72,72,0,0,1-1.38-19s-3-18.45-3.58-20.66-10.16-3.15-6.4-13.91Z"/><path class="cls-75" d="M295.64,163a3.92,3.92,0,0,0-1.74-3.44c-2.52-1.68-5.95-3.81-8.17-5-2.76-1.45-5.62-3-7.14-3.13-4.26-.39-6.81,3.56-6.41,8.76a46.59,46.59,0,0,0,2.23,10.29,31,31,0,0,1,.94,6.78,10.42,10.42,0,0,1-.46,3.38c-.69,1.65-1.37,8.26-1.37,8.26s4.68,4.82,10.74,5.23,8.4-.82,8.4-.82l.41-2.76.83,2.48a2,2,0,0,0,1.24-1.51c.12-1-1-9.49-1.21-11.15.36-3.43,1-8.48,1.26-10.78C295.39,167.51,295.55,165.09,295.64,163Z"/><path class="cls-27" d="M291.18,150.13a25.7,25.7,0,0,0,0-8.59,6.18,6.18,0,0,0-6.52-4.33c-3.37.17-5.84,1.65-6.67,4.16a9.14,9.14,0,0,0,.52,6,8.07,8.07,0,0,0,3.5,3.2,36.45,36.45,0,0,0,5.53,2.42C289.29,153.46,290.56,152.05,291.18,150.13Z"/><path class="cls-27" d="M281.28,149.2c1.69-.67,5.55.06,6.9,1.16,0,0-1.33,5.37-1.35,5.37-2.46.13-6-1.1-6.8-2.11Z"/><path class="cls-27" d="M288.18,146.68c-.7-1-2.11-.61-2.11.91a2.53,2.53,0,0,0,2.11,2.77C288.18,149.23,288.22,148.05,288.18,146.68Z"/><path class="cls-31" d="M280.54,152s2,1.72,6.75,2.41l.89,1.58a11.71,11.71,0,0,1-4.34.35,7.26,7.26,0,0,1-4.47-2.55l-.21-.42Z"/><path class="cls-75" d="M293.9,159.58s.15.09.4.27a7.81,7.81,0,0,1,2.76,3.74c.83,2.62,2.48,15.15,2.48,15.15L303.67,196s-.68,1.92-3.44,1.79a2.06,2.06,0,0,1-1.93-1.24s-3.58-13.09-4.13-15.43-2.06-10.46-2.75-13.36S290.88,160.39,293.9,159.58Z"/><path class="cls-32" d="M276.82,142.59a6,6,0,0,1,3.37-5.92c3.83-1.75,8.82-.58,10.78,2.1,1.34,2.27-.52,4.13-.93,5s0,2.48-.41,3.1.1,1.55.1,1.55L289,149a7.68,7.68,0,0,0-1.14-1.66c-.41-.31-1.68.83-1.41,1.93a3.16,3.16,0,0,0,1.31,1.72l-.83.55a4.86,4.86,0,0,1-2.55.49,9.07,9.07,0,0,1-3.78-1,10.16,10.16,0,0,1-3.58-3.71C276.2,145.48,276,143.76,276.82,142.59Z"/><g class="cls-76"><path class="cls-71" d="M349.87,188.22a4.09,4.09,0,0,1,1.86,3.21l-.06,18.42c0,1.18-.84,1.66-1.87,1.07l-43-24.86a4.09,4.09,0,0,1-1.86-3.21l.06-18.43c0-1.18.83-1.65,1.86-1.06Z"/></g><path class="cls-31" d="M313.58,173.88v.7a.55.55,0,0,1-.81.47l-3.32-1.92a.52.52,0,0,1-.27-.46V172a.54.54,0,0,1,.81-.46l3.32,1.91A.55.55,0,0,1,313.58,173.88Z"/><path class="cls-31" d="M324.09,183.39v.7a.53.53,0,0,1-.8.47l-13.84-7.93a.54.54,0,0,1-.27-.47v-.7A.55.55,0,0,1,310,175l13.83,7.93A.55.55,0,0,1,324.09,183.39Z"/><g class="cls-58"><path class="cls-31" d="M318.39,187.12v.7a.55.55,0,0,1-.81.47l-8.13-4.66a.57.57,0,0,1-.27-.47v-.7A.54.54,0,0,1,310,182l8.13,4.66A.53.53,0,0,1,318.39,187.12Z"/></g><path class="cls-31" d="M322,185.66v.7a.54.54,0,0,1-.81.47l-11.69-6.7a.55.55,0,0,1-.27-.47V179a.54.54,0,0,1,.81-.47l11.69,6.7A.57.57,0,0,1,322,185.66Z"/><path class="cls-1" d="M336.8,185.72a6.21,6.21,0,0,1,2.83,4.91,2.17,2.17,0,0,1,0,.26s-.06.5-.17,1.12a.29.29,0,0,1,.34-.06.66.66,0,0,1,.18.19c.33.56-.32,1.73-.58,1.59a.78.78,0,0,1-.25-.26,5,5,0,0,1-.31.91.6.6,0,0,1-.36.21,5,5,0,0,0,.58,2,27.05,27.05,0,0,0,2.58,2.92l-.05,0-.11.06-.11.06-.11.06-.12.05-.11,0-.13,0-.12,0a4.19,4.19,0,0,1-.51.11h-.91l-.1,0h-.05l-.1,0h-.05l-.1,0h-.06l-.1,0h-.05l-.11,0h-.05l-.1,0-.06,0-.1,0-.06,0-.1,0-.06,0-.11,0-.05,0-.11,0-.06,0-.1,0-.07,0-.1-.05-.06,0-.11-.05-.06,0-.11-.06-.06,0-.17-.1-.17-.1-.06,0a.41.41,0,0,0-.11-.07l-.06-.05-.11-.06-.06-.05-.11-.07-.06-.05-.1-.07-.07-.05-.1-.07-.07-.05-.09-.08-.07-.05-.09-.08-.07-.06-.09-.07-.07-.06-.09-.08-.07-.06-.09-.08-.07-.07-.08-.07-.08-.08-.06-.06-.1-.09,0,0a15.09,15.09,0,0,1-2.51-3.42,7.23,7.23,0,0,0,2.43.06c.34-.17.5-.73.57-1.27a3.55,3.55,0,0,1-.47-.8,10.06,10.06,0,0,1-.3-1.25.33.33,0,0,1-.25,0c-.26-.16-.91-2.09-.58-2.26a.17.17,0,0,1,.18,0,1.1,1.1,0,0,1,.35.45c-.11-.75-.18-1.29-.18-1.32v-.27C333.94,185.54,335.22,184.81,336.8,185.72Z"/><path class="cls-77" d="M337,184.45a14.08,14.08,0,0,1,6.39,11.06,4.6,4.6,0,0,1-1.73,4,27.05,27.05,0,0,1-2.58-2.92,5,5,0,0,1-.58-2,.6.6,0,0,0,.36-.21,5,5,0,0,0,.31-.91.78.78,0,0,0,.25.26c.26.14.91-1,.58-1.59a.66.66,0,0,0-.18-.19.29.29,0,0,0-.34.06c.11-.62.18-1.09.18-1.11v-.27a6.21,6.21,0,0,0-2.83-4.91c-1.58-.91-2.86-.18-2.86,1.62a2.35,2.35,0,0,0,0,.27s.06.57.17,1.32a1.1,1.1,0,0,0-.35-.45.17.17,0,0,0-.18,0c-.33.17.32,2.1.58,2.26a.33.33,0,0,0,.25,0,10.06,10.06,0,0,0,.3,1.25,3.55,3.55,0,0,0,.47.8c-.07.54-.23,1.1-.57,1.26a6.94,6.94,0,0,1-2.43-.05,12.65,12.65,0,0,1-1.64-5.9C330.56,184.05,333.44,182.41,337,184.45Z"/><path class="cls-66" d="M260,138.12c-2.29-1.33-5.46-1.14-9,.88-7,4-12.57,13.73-12.55,21.72,0,4,1.42,6.76,3.68,8.08l2.75,1.6c-2.26-1.31-3.66-4.11-3.67-8.08,0-8,5.59-17.71,12.54-21.72,3.5-2,6.67-2.21,9-.88Z"/><path class="cls-78" d="M253.82,140.6c-6.95,4-12.56,13.74-12.54,21.72s5.67,11.22,12.63,7.2,12.57-13.74,12.54-21.73S260.78,136.59,253.82,140.6Z"/><polygon class="cls-2" points="259.95 146.69 262.02 147.87 252.81 163.82 248.43 161.32 250.49 157.75 252.8 159.07 259.95 146.69"/><path class="cls-79" d="M478.9,211.49h21.88a3.22,3.22,0,1,1,0,6.44h-1.61l-1.55,1.56-1.56-1.56H478.9a3.22,3.22,0,1,1,0-6.44Z"/><path class="cls-2" d="M485.16,215.74h14.4a.36.36,0,0,0,.36-.36h0a.36.36,0,0,0-.36-.36h-14.4a.36.36,0,0,0-.36.36h0A.36.36,0,0,0,485.16,215.74Z"/><path class="cls-2" d="M489.66,213.76h9.9a.36.36,0,0,0,.36-.36h0a.36.36,0,0,0-.36-.36h-9.9a.36.36,0,0,0-.36.36h0A.36.36,0,0,0,489.66,213.76Z"/><path class="cls-3" d="M480.69,201.32h20.1a3,3,0,0,1,0,5.91h-1.48l-1.43,1.43-1.43-1.43H480.69a3,3,0,0,1,0-5.91Z"/><path class="cls-2" d="M499.78,204.73h-18a.34.34,0,0,1-.34-.33h0a.34.34,0,0,1,.34-.34h18a.34.34,0,0,1,.33.34h0A.33.33,0,0,1,499.78,204.73Z"/><path class="cls-66" d="M432.25,241.59h20.1a3,3,0,0,1,0,5.91h-1.48l-1.43,1.43L448,247.5H432.25a3,3,0,0,1,0-5.91Z"/><path class="cls-2" d="M451.33,245h-18a.33.33,0,0,1-.33-.33h0a.33.33,0,0,1,.33-.33h18a.33.33,0,0,1,.33.33h0A.33.33,0,0,1,451.33,245Z"/><polygon class="cls-2" points="677.14 281.53 674.68 282.96 681.89 287.13 680.84 287.73 673.63 283.57 671.18 284.99 670.29 284.48 676.25 281.02 677.14 281.53"/><path class="cls-2" d="M675.67,288.17c1.26.72,1.41,1.88-.48,3a7.55,7.55,0,0,1-2.57.9l-.62-.66a7,7,0,0,0,2.4-.78c1.06-.62,1.11-1.3.3-1.77s-1.62-.44-3.13,0c-1.78.49-3.28.57-4.42-.09s-1.16-1.87.41-2.78a6.47,6.47,0,0,1,2.17-.81l.57.66a5.78,5.78,0,0,0-1.92.67c-1.09.63-.85,1.26-.3,1.58.76.44,1.62.37,3.16,0C673.14,287.5,674.49,287.48,675.67,288.17Z"/><path class="cls-2" d="M707.87,269.56l2.12,1.23-1,.58-2.12-1.23-3.61,2.09-.7-.4-1.52-4.9,1.13-.65,4.86,2.8,1.09-.63.83.48Zm-4.37,1.58,2.55-1.48-2.61-1.51c-.41-.23-.81-.48-1.19-.73l0,0c.22.41.37.71.51,1l.76,2.64,0,0"/><path class="cls-2" d="M700.8,271.51c2.66,1.53,3.14,2.95,1.42,3.95-1.52.88-4,.65-6.58-.83s-2.93-3-1.36-3.91S698.31,270.07,700.8,271.51ZM696.7,274c2,1.17,3.8,1.48,4.76.92s.33-1.65-1.67-2.8-3.67-1.55-4.75-.92c-.92.53-.46,1.57,1.66,2.8"/><path class="cls-2" d="M688.91,279.28l3.25,1.88-1,.6-8-4.63a16.68,16.68,0,0,1,1.84-1.24,6.28,6.28,0,0,1,2.93-.93,4.58,4.58,0,0,1,2.4.57c.73.43,1.1.89,1.11,1.37,0,.66-.56,1.35-1.57,1.94A5,5,0,0,1,688.91,279.28Zm-.85-.49a6,6,0,0,0,.94-.45c1.25-.73,1.41-1.53.29-2.17a3.41,3.41,0,0,0-3.48.18,5.23,5.23,0,0,0-.9.62l3.15,1.82"/><polygon class="cls-2" points="689.77 282.54 685.25 285.17 677.14 280.49 681.49 277.97 682.37 278.48 679.06 280.4 681.62 281.88 684.75 280.06 685.61 280.56 682.48 282.38 685.4 284.06 688.89 282.03 689.77 282.54"/><g class="cls-13"><path class="cls-2" d="M270.33,319.53a3.45,3.45,0,0,1,1.4,1.26l-1.14.33a2.86,2.86,0,0,0-1.16-1.11,2.81,2.81,0,0,0-2.73-.18c-.75.44-.62.94.06,1.84.85,1.09.89,1.87-.29,2.56a5.26,5.26,0,0,1-5.15-.29,3.68,3.68,0,0,1-1.56-1.5l1.14-.35a3.11,3.11,0,0,0,1.34,1.39,3.14,3.14,0,0,0,3.08.18c.74-.43.74-.94.07-1.81-.86-1-1-1.9.14-2.56A5.06,5.06,0,0,1,270.33,319.53Z"/><polygon class="cls-2" points="278.82 324.59 277.94 325.1 275.46 323.67 268.3 327.83 267.24 327.22 274.4 323.06 271.94 321.63 272.82 321.12 278.82 324.59"/><polygon class="cls-2" points="284.09 327.63 283.22 328.14 279.9 326.22 277.35 327.69 280.5 329.51 279.64 330.01 276.49 328.19 273.59 329.88 277.1 331.9 276.23 332.41 271.68 329.78 279.72 325.11 284.09 327.63"/></g><path class="cls-2" d="M296.65,335.06c1.64.95,1.13,2.34-1.34,3.78-2.64,1.53-5.08,1.81-6.81.81-1.53-.88-1.14-2.31,1.4-3.81S295.06,334.15,296.65,335.06Zm-7.28,4.15c1.08.62,2.85.2,4.83-1s2.68-2.12,1.58-2.75c-.92-.54-2.72-.27-4.83,1s-2.54,2.2-1.58,2.75"/><path class="cls-2" d="M289.3,331.34c.07.48-.25,1-1,1.39a4.79,4.79,0,0,1-2.35.64,6.64,6.64,0,0,1-3.36-.92,4,4,0,0,1-.76-.52l-3.22,1.87-1.05-.61,8-4.62a20.15,20.15,0,0,1,2.15,1.07C288.73,330.24,289.25,330.82,289.3,331.34Zm-5.82.64a3.68,3.68,0,0,0,3.75.17c1.07-.61.83-1.35-.33-2a6.25,6.25,0,0,0-1.07-.51l-3.13,1.82a4.63,4.63,0,0,0,.78.54"/><path class="cls-2" d="M302.61,338.51c1.69,1,1.25,2,.14,2.69-1.43.83-3.64.9-6.86.86l-1.2,0,0,0,3.51,2-.87.5-5-2.88.65-.37h1.62c3.89.06,5.79,0,7-.68.79-.45,1.13-1.1,0-1.77a5.36,5.36,0,0,0-2.31-.58l.4-.62A6.68,6.68,0,0,1,302.61,338.51Z"/><g class="cls-13"><path class="cls-2" d="M421,400.24a3.45,3.45,0,0,1,1.4,1.26l-1.14.33a2.74,2.74,0,0,0-1.16-1.11,2.81,2.81,0,0,0-2.73-.18c-.75.44-.63.94.06,1.83.85,1.1.88,1.88-.3,2.57a5.26,5.26,0,0,1-5.15-.29,3.77,3.77,0,0,1-1.55-1.5l1.14-.35a3.45,3.45,0,0,0,4.41,1.57c.75-.44.75-.94.08-1.81-.86-1-1-1.91.13-2.56A5.05,5.05,0,0,1,421,400.24Z"/><polygon class="cls-2" points="429.45 405.29 428.57 405.8 426.1 404.38 418.94 408.54 417.88 407.93 425.04 403.77 422.57 402.34 423.46 401.83 429.45 405.29"/><polygon class="cls-2" points="434.73 408.34 433.86 408.85 430.53 406.92 427.99 408.4 431.13 410.22 430.27 410.72 427.12 408.9 424.23 410.59 427.74 412.61 426.87 413.12 422.31 410.49 430.36 405.81 434.73 408.34"/><path class="cls-2" d="M439.94,412.05c.06.48-.26,1-1,1.39a4.77,4.77,0,0,1-2.35.64,6.67,6.67,0,0,1-3.36-.92,3.94,3.94,0,0,1-.77-.53l-3.22,1.87-1-.6,7.95-4.62a21.13,21.13,0,0,1,2.15,1.07C439.37,411,439.89,411.52,439.94,412.05Zm-5.82.64a3.68,3.68,0,0,0,3.75.17c1.07-.62.82-1.35-.33-2a7,7,0,0,0-1.08-.52l-3.13,1.82a4.21,4.21,0,0,0,.79.55"/></g><path class="cls-2" d="M453.16,419.16c1.54.88,1.33,1.81.38,2.36a4.31,4.31,0,0,1-3.27.23l0,0a1.2,1.2,0,0,1-.25,2.16,5.37,5.37,0,0,1-5.18-.29,3.38,3.38,0,0,1-1.5-1.48l1.1-.31a3,3,0,0,0,1.24,1.29,3.27,3.27,0,0,0,3.26.14c1.08-.63.56-1.47-.47-2.06l-.58-.34.79-.46.59.34a3.37,3.37,0,0,0,3.05.24c.62-.36.78-.91-.2-1.47a5.45,5.45,0,0,0-2.07-.6l.49-.61A7.13,7.13,0,0,1,453.16,419.16Z"/><path class="cls-2" d="M447.29,415.77c1.65,1,1.13,2.34-1.35,3.78s-5.07,1.81-6.81.8c-1.52-.88-1.13-2.3,1.41-3.8S445.71,414.85,447.29,415.77ZM440,419.92c1.08.62,2.85.19,4.83-1s2.67-2.12,1.58-2.75c-.92-.54-2.72-.28-4.84,1s-2.53,2.2-1.57,2.76"/><polygon class="cls-2" points="607 64.96 607.96 67.54 610.54 68.5 607.96 69.46 607 72.04 606.04 69.46 603.46 68.5 606.04 67.54 607 64.96"/><polygon class="cls-2" points="636.5 48.96 637.46 51.54 640.04 52.5 637.46 53.46 636.5 56.04 635.54 53.46 632.96 52.5 635.54 51.54 636.5 48.96"/><polygon class="cls-2" points="690 87.46 690.96 90.04 693.54 91 690.96 91.96 690 94.54 689.04 91.96 686.46 91 689.04 90.04 690 87.46"/></g></svg>