<svg xmlns="http://www.w3.org/2000/svg" viewBox="0 0 750 500"><defs><style>.cls-1{isolation:isolate;}.cls-2{fill:#e3efff;}.cls-3{fill:#0d004f;}.cls-21,.cls-4,.cls-42,.cls-61,.cls-7{fill:#fff;}.cls-18,.cls-5{fill:#3041b0;}.cls-6{fill:#d4e2ff;}.cls-7{opacity:0.62;}.cls-8{opacity:0.73;}.cls-10,.cls-18,.cls-29,.cls-36,.cls-47,.cls-9{mix-blend-mode:multiply;}.cls-10{fill:#edf5ff;}.cls-11,.cls-25{fill:#ee3a58;}.cls-12,.cls-15,.cls-20,.cls-24,.cls-26,.cls-28,.cls-35,.cls-38,.cls-39,.cls-41,.cls-45,.cls-50,.cls-51,.cls-52,.cls-55{fill:none;}.cls-12,.cls-20,.cls-28,.cls-35,.cls-42,.cls-45,.cls-61{stroke:#fff;}.cls-12,.cls-14,.cls-15,.cls-20,.cls-21,.cls-24,.cls-25,.cls-26,.cls-28,.cls-35,.cls-38,.cls-39,.cls-41,.cls-42,.cls-45,.cls-50,.cls-51,.cls-52,.cls-54,.cls-55,.cls-57,.cls-61{stroke-miterlimit:10;}.cls-12{stroke-width:0.29px;}.cls-13,.cls-14{fill:#18293d;}.cls-14{stroke:#eaebec;stroke-width:0.39px;}.cls-15{stroke:#abc6ff;stroke-linecap:round;stroke-width:0.74px;}.cls-16{opacity:0.56;}.cls-17,.cls-29{fill:#abc6ff;}.cls-18{opacity:0.28;}.cls-19{opacity:0.59;}.cls-20{stroke-width:2px;}.cls-21{stroke:#fbf9f5;stroke-width:0.28px;opacity:0.48;}.cls-22{fill:#18004c;}.cls-23{opacity:0.54;}.cls-24,.cls-25,.cls-55{stroke:#ee3a58;}.cls-24{stroke-width:0.25px;}.cls-25,.cls-26{stroke-width:0.87px;}.cls-26{stroke:#18293d;}.cls-27{opacity:0.5;}.cls-28{stroke-width:1.28px;}.cls-30{fill:#feb28c;}.cls-31{fill:#f79988;}.cls-32{fill:#ec7965;}.cls-33,.cls-36{fill:#1e274d;}.cls-34{fill:#f5826b;}.cls-35{stroke-width:0.42px;}.cls-36{opacity:0.21;}.cls-37{fill:#03163c;}.cls-38,.cls-41,.cls-50,.cls-52{stroke:#0d004f;}.cls-38{stroke-width:3.3px;}.cls-39,.cls-51{stroke:#03163c;}.cls-39{stroke-width:7.69px;}.cls-40{fill:#c2d6ff;}.cls-41{stroke-width:3.01px;}.cls-43{fill:#ffaf99;}.cls-44{fill:#ce3052;}.cls-45{stroke-width:0.39px;}.cls-46{fill:#ea6f46;}.cls-47{fill:#e87285;}.cls-48{fill:#de7454;}.cls-49{fill:#001c39;}.cls-50{stroke-width:3.36px;}.cls-51{stroke-width:7.84px;}.cls-52{stroke-width:3.07px;}.cls-53{fill:#a64b3d;}.cls-54,.cls-56,.cls-57{fill:#000307;}.cls-54{stroke:#000307;stroke-width:0.7px;}.cls-57{stroke:#003b5a;stroke-width:0;}.cls-58{fill:#611212;}.cls-59{fill:#bd5353;}.cls-60{fill:#a13a3a;}.cls-61{stroke-width:1.02px;}</style></defs><g class="cls-1"><g id="BACKGROUND"><rect class="cls-2" width="750" height="500"/></g><g id="OBJECTS"><circle class="cls-3" cx="560.48" cy="108.82" r="26.29" transform="translate(-9.22 91.39) rotate(-9.29)"/><circle class="cls-4" cx="559.58" cy="104.02" r="26.29"/><circle class="cls-5" cx="558.59" cy="104.57" r="27.3" transform="translate(-8.01 132.16) rotate(-13.44)"/><circle class="cls-6" cx="558.59" cy="104.57" r="21.82" transform="translate(-6.4 155.16) rotate(-15.77)"/><path class="cls-7" d="M544.36,106.7c7.27-7.54,14.53-15.1,21.9-22.55a21.82,21.82,0,0,0-27.85,28.72Z" transform="translate(1 -0.55)"/><path class="cls-7" d="M546.77,119.63c1.21-1.19,2.46-2.34,3.66-3.53q12.66-12.46,25.48-24.78A21.56,21.56,0,0,0,572,87.37c-10.28,10.12-20.45,20.36-30.65,30.57a22.42,22.42,0,0,0,3.51,3.58C545.47,120.84,546.17,120.21,546.77,119.63Z" transform="translate(1 -0.55)"/><path d="M560.53,104.57a1.94,1.94,0,1,0-1.94,1.94A1.94,1.94,0,0,0,560.53,104.57Z" transform="translate(1 -0.55)"/><path d="M568.13,110l-10.19-5,.36-18.23a.25.25,0,0,1,.25-.25h0a.25.25,0,0,1,.27.25l.41,17.44,9.19,5.25a.31.31,0,0,1,.12.41h0A.31.31,0,0,1,568.13,110Z" transform="translate(1 -0.55)"/><g class="cls-8"><g class="cls-9"><path class="cls-10" d="M475.22,124.47,472.77,121a2.3,2.3,0,0,0-3-.66,33.45,33.45,0,0,0-8.54,6.93,2.29,2.29,0,0,0,0,3.09l2.94,3.18a2.26,2.26,0,0,1,.28,2.71,26.66,26.66,0,0,0-2.23,4.63,2.26,2.26,0,0,1-2,1.45l-4.94.19a2.3,2.3,0,0,0-2.18,1.94,34.34,34.34,0,0,0,.08,11.31,2.31,2.31,0,0,0,2.34,1.9l4.57-.16a2.27,2.27,0,0,1,2.2,1.45,25.11,25.11,0,0,0,1,2.4c.37.74.76,1.46,1.19,2.15a2.26,2.26,0,0,1-.16,2.56l-2.92,3.76a2.3,2.3,0,0,0,.13,3,34.37,34.37,0,0,0,8.89,7,2.31,2.31,0,0,0,2.93-.62l2.83-3.71a2.26,2.26,0,0,1,2.49-.79,26.14,26.14,0,0,0,5.34,1.12,2.27,2.27,0,0,1,2,1.92l.65,4.18a2.31,2.31,0,0,0,2.44,1.94A33.81,33.81,0,0,0,500,181.1a2.31,2.31,0,0,0,1.39-2.52l-.89-5.07a2.24,2.24,0,0,1,.91-2.24,26,26,0,0,0,3.8-3.19,2.27,2.27,0,0,1,2.71-.38l3.77,2.08a2.3,2.3,0,0,0,3-.72,34.38,34.38,0,0,0,4.72-10.14,2.3,2.3,0,0,0-1.19-2.69l-4.36-2.14a2.26,2.26,0,0,1-1.27-2.19,26,26,0,0,0-.08-5.06,2.24,2.24,0,0,1,1.33-2.31l4.09-1.83a2.3,2.3,0,0,0,1.26-2.77,33.83,33.83,0,0,0-2-5.13,33.17,33.17,0,0,0-2.89-4.83,2.29,2.29,0,0,0-3-.68l-3.89,2.15a2.27,2.27,0,0,1-2.67-.35,26,26,0,0,0-4.34-3.37,2.27,2.27,0,0,1-1-2.52l1.15-4.27a2.29,2.29,0,0,0-1.38-2.73,34.5,34.5,0,0,0-10.84-2.35,2.3,2.3,0,0,0-2.39,1.89l-.76,4.4a2.25,2.25,0,0,1-1.93,1.86,25.68,25.68,0,0,0-5.39,1.31A2.3,2.3,0,0,1,475.22,124.47Zm17.36,9c19.85,10.12,10.68,37.08-11.22,33a2.44,2.44,0,0,1-.69-.23c-19.83-10.12-10.67-37.07,11.23-33A2.38,2.38,0,0,1,492.58,133.43Z" transform="translate(1 -0.55)"/><path class="cls-10" d="M422.79,156.18l-2-2.82a1.85,1.85,0,0,0-2.44-.54,27.36,27.36,0,0,0-6.89,5.59,1.85,1.85,0,0,0,0,2.49l2.37,2.56a1.84,1.84,0,0,1,.23,2.19,21.36,21.36,0,0,0-1.8,3.73,1.8,1.8,0,0,1-1.64,1.16l-4,.16a1.85,1.85,0,0,0-1.76,1.56,27.58,27.58,0,0,0,.07,9.11,1.86,1.86,0,0,0,1.88,1.54l3.68-.13a1.81,1.81,0,0,1,1.77,1.17c.24.65.52,1.29.83,1.93s.62,1.18,1,1.74a1.79,1.79,0,0,1-.13,2.06l-2.35,3a1.85,1.85,0,0,0,.11,2.38,27.48,27.48,0,0,0,7.16,5.61,1.85,1.85,0,0,0,2.36-.5l2.28-3a1.85,1.85,0,0,1,2-.64,21,21,0,0,0,4.3.91,1.83,1.83,0,0,1,1.62,1.55l.52,3.36a1.86,1.86,0,0,0,2,1.56,26.84,26.84,0,0,0,8.77-2.13,1.86,1.86,0,0,0,1.12-2l-.72-4.08a1.81,1.81,0,0,1,.73-1.81,21.22,21.22,0,0,0,3.07-2.57,1.83,1.83,0,0,1,2.18-.31l3,1.68a1.85,1.85,0,0,0,2.42-.58,27.59,27.59,0,0,0,3.81-8.17,1.86,1.86,0,0,0-1-2.17l-3.52-1.73a1.82,1.82,0,0,1-1-1.76,20.64,20.64,0,0,0-.07-4.08,1.84,1.84,0,0,1,1.08-1.86l3.3-1.47a1.85,1.85,0,0,0,1-2.23,26.81,26.81,0,0,0-1.64-4.14,27.8,27.8,0,0,0-2.33-3.89,1.86,1.86,0,0,0-2.4-.55l-3.13,1.73a1.81,1.81,0,0,1-2.15-.28,21.15,21.15,0,0,0-3.5-2.71,1.84,1.84,0,0,1-.8-2l.93-3.43a1.84,1.84,0,0,0-1.11-2.2,27.71,27.71,0,0,0-8.74-1.9,1.84,1.84,0,0,0-1.92,1.53l-.62,3.54a1.8,1.8,0,0,1-1.56,1.5,21,21,0,0,0-4.34,1.05A1.81,1.81,0,0,1,422.79,156.18Zm14,7.23c16,8.15,8.6,29.88-9,26.59a2.09,2.09,0,0,1-.55-.18c-16-8.16-8.6-29.88,9.05-26.6A2.24,2.24,0,0,1,436.78,163.41Z" transform="translate(1 -0.55)"/></g></g><path class="cls-5" d="M114.3,141.07h24.57l8,9.45V127.84c0-7.31-4.44-13.23-9.92-13.23H114.3c-5.47,0-9.92,5.92-9.92,13.23h0C104.38,135.15,108.83,141.07,114.3,141.07Z" transform="translate(1 -0.55)"/><rect class="cls-4" x="124.17" y="123.77" width="4.17" height="9.72"/><rect class="cls-4" x="118.28" y="126.93" width="4.17" height="6.56"/><rect class="cls-4" x="130.54" y="120.85" width="4.17" height="12.64"/><path class="cls-6" d="M188.4,99.19H162.32l-8.53,10V85.14c0-7.76,4.72-14,10.53-14H188.4c5.82,0,10.53,6.29,10.53,14h0C198.93,92.9,194.22,99.19,188.4,99.19Z" transform="translate(1 -0.55)"/><path class="cls-4" d="M171.33,84.92a2.66,2.66,0,1,0-2.66,2.66A2.66,2.66,0,0,0,171.33,84.92Z" transform="translate(1 -0.55)"/><path class="cls-4" d="M180,84.92a2.66,2.66,0,1,0-2.66,2.66A2.66,2.66,0,0,0,180,84.92Z" transform="translate(1 -0.55)"/><path class="cls-4" d="M188.62,84.92A2.66,2.66,0,1,0,186,87.58,2.66,2.66,0,0,0,188.62,84.92Z" transform="translate(1 -0.55)"/><path class="cls-6" d="M625.36,166.37H599.28l-8.53,10V152.32c0-7.76,4.72-14,10.53-14h24.08c5.81,0,10.53,6.29,10.53,14h0C635.89,160.08,631.17,166.37,625.36,166.37Z" transform="translate(1 -0.55)"/><path class="cls-4" d="M608.29,152.09a2.66,2.66,0,1,0-2.66,2.66A2.66,2.66,0,0,0,608.29,152.09Z" transform="translate(1 -0.55)"/><path class="cls-4" d="M616.94,152.09a2.66,2.66,0,1,0-2.66,2.66A2.67,2.67,0,0,0,616.94,152.09Z" transform="translate(1 -0.55)"/><path class="cls-4" d="M625.58,152.09a2.66,2.66,0,1,0-2.66,2.66A2.66,2.66,0,0,0,625.58,152.09Z" transform="translate(1 -0.55)"/><path class="cls-5" d="M420.89,141.12H440l6.26,7.36V130.81c0-5.69-3.46-10.3-7.73-10.3H420.89c-4.26,0-7.72,4.61-7.72,10.3h0C413.17,136.5,416.63,141.12,420.89,141.12Z" transform="translate(1 -0.55)"/><path class="cls-4" d="M424.06,131.14a2,2,0,1,0-2,2A2,2,0,0,0,424.06,131.14Z" transform="translate(1 -0.55)"/><path class="cls-4" d="M431.05,131.14a2,2,0,1,0-2,2A2,2,0,0,0,431.05,131.14Z" transform="translate(1 -0.55)"/><path class="cls-4" d="M438.05,131.14a2,2,0,1,0-2,2A2,2,0,0,0,438.05,131.14Z" transform="translate(1 -0.55)"/><path class="cls-11" d="M565.52,182.87a10.79,10.79,0,0,0-21.58,0c0,6,10.27,15.32,10.27,15.32S565.52,188.83,565.52,182.87Z" transform="translate(1 -0.55)"/><path class="cls-5" d="M554.21,198.19s11.31-9.36,11.31-15.32a10.79,10.79,0,0,0-10.79-10.79" transform="translate(1 -0.55)"/><path class="cls-12" d="M551.6,193.32S553,182,551.43,182.7s-2.44,2.44-.7,2.78,8.7,0,8.7,0,.62-2-.52-2.43c-1.74-.7-1.74,5.92-2.09,10.62" transform="translate(1 -0.55)"/><path class="cls-13" d="M558.56,195.75h-8.7a1.22,1.22,0,0,1-1.22-1.21h0a1.22,1.22,0,0,1,1.22-1.22h8.7a1.22,1.22,0,0,1,1.22,1.22h0A1.22,1.22,0,0,1,558.56,195.75Z" transform="translate(1 -0.55)"/><path class="cls-14" d="M554.38,201.32h0a5,5,0,0,1-5-5v-.87h10.09v.87A5,5,0,0,1,554.38,201.32Z" transform="translate(1 -0.55)"/><line class="cls-15" x1="536.27" y1="182.39" x2="541.18" y2="182.39"/><line class="cls-15" x1="570.61" y1="182.39" x2="575.51" y2="182.39"/><line class="cls-15" x1="542.02" y1="168.51" x2="545.49" y2="171.98"/><line class="cls-15" x1="566.3" y1="192.79" x2="569.77" y2="196.26"/><line class="cls-15" x1="555.89" y1="162.77" x2="555.89" y2="167.67"/><line class="cls-15" x1="569.77" y1="168.51" x2="566.3" y2="171.98"/><line class="cls-15" x1="545.49" y1="192.79" x2="542.02" y2="196.26"/><g class="cls-16"><rect class="cls-17" x="71.82" y="221.55" width="25.77" height="14.96"/><rect class="cls-17" x="97.59" y="236.52" width="25.77" height="14.96"/><rect class="cls-17" x="647.45" y="264.45" width="25.77" height="14.96"/><rect class="cls-17" x="673.22" y="279.41" width="25.77" height="14.96"/><rect class="cls-17" x="248.23" y="348.8" width="25.77" height="14.96" transform="translate(523.23 712.02) rotate(180)"/><rect class="cls-17" x="222.46" y="363.77" width="25.77" height="14.96" transform="translate(471.69 741.95) rotate(180)"/></g><path class="cls-17" d="M105.74,418.76c0,.84-5.94,1.51-13.28,1.51s-13.29-.67-13.29-1.51,6-1.5,13.29-1.5S105.74,417.93,105.74,418.76Z" transform="translate(1 -0.55)"/><path class="cls-17" d="M104.26,380.88A91.52,91.52,0,0,0,107,345.6c-.07-.58-1-.59-.92,0a90.88,90.88,0,0,1-2.66,35,.46.46,0,0,0,.89.24Z" transform="translate(1 -0.55)"/><path class="cls-17" d="M117.47,378.77a13.75,13.75,0,0,0,15.19-7.68,20.11,20.11,0,0,1-8.58.78c8.82-2.62,14.27-11.47,17.26-20.17a74.9,74.9,0,0,0,4-25.32L138.23,333c2.29-2.38,4.63-4.82,6-7.84s1.56-6.75-.34-9.46a121.86,121.86,0,0,0-20.27,15,4.64,4.64,0,0,0-1.46,1.9,4.7,4.7,0,0,0,.22,2.69q1.44,5.11,2.87,10.22a45.7,45.7,0,0,0-5.47-8.49,62.37,62.37,0,0,0-10,43.26" transform="translate(1 -0.55)"/><path class="cls-17" d="M103.38,378.06a39.76,39.76,0,0,0-3.64-17.71c-2-4.24-5.67-8.62-10.31-8.05-2.69.33-4.87,2.27-6.78,4.19A105.43,105.43,0,0,0,66.83,376.9c-2.09,3.51-4,7.29-4.26,11.37,7-5.84,8.37-17,16.26-21.59.75-.44,1.77-.77,2.41-.18,1.73,1.61-3.4,4.38-1.76,6.08l6.19-6.42A3.7,3.7,0,0,1,87.3,365c1.1-.28,2.16.5,3,1.25a51,51,0,0,1,10.52,13.1" transform="translate(1 -0.55)"/><path class="cls-17" d="M107.42,353a55.54,55.54,0,0,0-6.68-25.11,30.21,30.21,0,0,1-.89,13.53c.18-5.82.22-12.14-3.25-16.82a24.16,24.16,0,0,0-5.47-4.95A148.06,148.06,0,0,0,70,307l4.56,17.42a2.26,2.26,0,0,0,.6,1.19,2.2,2.2,0,0,0,1.48.34l7.57-.06a14.85,14.85,0,0,1-5.81,3c-.58.15-1.26.34-1.46.9a1.71,1.71,0,0,0,.22,1.26,43.18,43.18,0,0,0,29.47,23.36" transform="translate(1 -0.55)"/><path class="cls-4" d="M130.92,327.05a54,54,0,0,0-.42,11.5c0,.58,1,.59.92,0a52.35,52.35,0,0,1,.39-11.26c.08-.57-.8-.82-.89-.24Z" transform="translate(1 -0.55)"/><path class="cls-4" d="M127.09,329.9l1.17,10.28c.07.58,1,.58.92,0L128,329.9c-.07-.57-1-.58-.92,0Z" transform="translate(1 -0.55)"/><path class="cls-4" d="M113,374.94a162,162,0,0,1,23-40.48c.36-.46-.28-1.11-.65-.65a163.5,163.5,0,0,0-23.28,40.89c-.21.54.67.78.89.24Z" transform="translate(1 -0.55)"/><path class="cls-4" d="M95.05,335.31q-.54-5.69-1.09-11.37c0-.58-1-.58-.91,0l1.08,11.37c.06.58,1,.59.92,0Z" transform="translate(1 -0.55)"/><path class="cls-4" d="M89.32,321.36a44,44,0,0,1,2.77,11.23c.06.58,1,.59.91,0a45.26,45.26,0,0,0-2.79-11.47c-.22-.55-1.1-.31-.89.24Z" transform="translate(1 -0.55)"/><path class="cls-4" d="M105.71,350.84A45.63,45.63,0,0,0,86.23,330c-.51-.29-1,.5-.46.79a44.8,44.8,0,0,1,19.15,20.5c.25.53,1,.07.79-.47Z" transform="translate(1 -0.55)"/><path class="cls-4" d="M90,357.71l-6,6a.46.46,0,0,0,.65.64l6-5.95a.46.46,0,0,0-.65-.65Z" transform="translate(1 -0.55)"/><path class="cls-4" d="M86.93,357.23a75.27,75.27,0,0,0-14.34,12.31c-.39.44.25,1.09.65.65A74.38,74.38,0,0,1,87.39,358c.49-.32,0-1.12-.46-.79Z" transform="translate(1 -0.55)"/><path class="cls-4" d="M86.24,359a4.89,4.89,0,0,1,5.53.47,12.39,12.39,0,0,1,3.46,4.8,58.68,58.68,0,0,1,4.37,12.87c.13.58,1,.34.89-.24a54.57,54.57,0,0,0-5.13-14.41A9.88,9.88,0,0,0,91.1,358a5.52,5.52,0,0,0-5.32.19c-.49.32,0,1.12.46.8Z" transform="translate(1 -0.55)"/><path class="cls-5" d="M95.06,375.5h22.52a12.34,12.34,0,0,1,12.34,12.34V421a0,0,0,0,1,0,0H82.72a0,0,0,0,1,0,0V387.84A12.34,12.34,0,0,1,95.06,375.5Z" transform="translate(213.65 795.89) rotate(180)"/><path class="cls-18" d="M95.06,421h22.53a12.34,12.34,0,0,0,12.34-12.34V375.5" transform="translate(1 -0.55)"/><g class="cls-19"><path class="cls-4" d="M130.92,389.71a57.43,57.43,0,0,0-18.21,5.2c-5.68,2.55-11.17,5.54-17.07,7.59A49.32,49.32,0,0,1,84.21,405c-.59.05-.59,1,0,.91a57.43,57.43,0,0,0,18.21-5.2c5.68-2.55,11.17-5.54,17.07-7.59a49.32,49.32,0,0,1,11.43-2.53c.58-.05.59-1,0-.91Z" transform="translate(1 -0.55)"/></g><path class="cls-6" d="M314.74,245q-.71,36.61.73,73.24.36,9.18.86,18.36c.29,5.42.31,11,1.24,16.34.76,4.36,2.56,8.76,6.5,11.13,3.19,1.92,7.55,2.43,10.55-.13,3.64-3.09,3.34-8.41,4.36-12.66a12.11,12.11,0,0,1,11.26-9.45c.82,0,.83-1.31,0-1.28A13.41,13.41,0,0,0,340,346c-2.54,3.45-2.52,7.7-3.42,11.71a9,9,0,0,1-3,5.47,7,7,0,0,1-5.86,1c-4.84-1.16-7.46-5.41-8.53-10-1.22-5.21-1.15-10.79-1.44-16.1q-.48-8.81-.85-17.61-.72-17.75-.95-35.5-.25-20,.14-40a.65.65,0,0,0-1.29,0Z" transform="translate(1 -0.55)"/><rect class="cls-4" x="342.71" y="336.9" width="11.94" height="11.94"/><rect class="cls-6" x="342.71" y="320.7" width="11.94" height="11.94"/><rect class="cls-6" x="342.71" y="353.95" width="11.94" height="11.94"/><rect class="cls-20" x="207.26" y="79.24" width="151.75" height="207.51" rx="12.85" transform="translate(467.12 -100.7) rotate(90)"/><rect class="cls-6" x="185.75" y="111.14" width="194.63" height="142.59" rx="12.7"/><path class="cls-21" d="M244.23,111.17h58.3c11.2,11.55,57.34,123.4,72.36,138a11.57,11.57,0,0,1-9.4,5.07H318.57C305,243.13,246.31,113.46,244.23,111.17Z" transform="translate(1 -0.55)"/><path class="cls-21" d="M261.08,253.84c-1.76-2-3.51-3.92-5.25-5.9-14-15.81-66-136.25-62.47-136.25h25.86c0,.12,68.37,142.85,68,142.59H261.36A1.63,1.63,0,0,0,261.08,253.84Z" transform="translate(1 -0.55)"/><path class="cls-22" d="M184.75,240.84c0,7.43,5.38,13.44,12,13.44H368.6c6.63,0,12-6,12-13.44Z" transform="translate(1 -0.55)"/><path class="cls-5" d="M201.65,122.49a3.1,3.1,0,1,0-3.1,3.1A3.09,3.09,0,0,0,201.65,122.49Z" transform="translate(1 -0.55)"/><path class="cls-4" d="M212.48,122.49a3.1,3.1,0,1,0-3.1,3.1A3.09,3.09,0,0,0,212.48,122.49Z" transform="translate(1 -0.55)"/><path class="cls-11" d="M223.31,122.49a3.1,3.1,0,1,0-3.1,3.1A3.09,3.09,0,0,0,223.31,122.49Z" transform="translate(1 -0.55)"/><circle class="cls-4" cx="239.18" cy="175.7" r="28.72" transform="translate(-10.95 333.29) rotate(-68.5)"/><path class="cls-5" d="M250.24,202.21a28.72,28.72,0,0,1-22.12-53Z" transform="translate(1 -0.55)"/><path class="cls-22" d="M250.4,202.27a28.71,28.71,0,0,0,15.45-37.56l-26.62,11.1Z" transform="translate(1 -0.55)"/><path class="cls-11" d="M239.37,176.16l32.19-13.43A34.61,34.61,0,0,0,252.72,144Z" transform="translate(1 -0.55)"/><g class="cls-23"><polyline class="cls-5" points="295.24 201.4 303.98 201.4 303.98 218.01 295.24 218.01"/></g><rect class="cls-5" x="309.28" y="185.76" width="8.73" height="32.25"/><g class="cls-23"><rect class="cls-5" x="322.59" y="182.5" width="8.31" height="35.51"/></g><rect class="cls-5" x="336.91" y="168.57" width="8.31" height="49.44"/><polyline class="cls-24" points="292.08 194.53 307.98 178.78 323.01 178.78 337.33 157.59"/><polygon class="cls-25" points="337.75 159.27 337.75 157.43 335.9 157.43 337.75 159.27"/><path class="cls-25" d="M291.94,194.66a.72.72,0,1,0-.71.71A.71.71,0,0,0,291.94,194.66Z" transform="translate(1 -0.55)"/><line class="cls-26" x1="289.11" y1="218.04" x2="358.22" y2="218.04"/><g class="cls-27"><rect class="cls-5" x="290.65" y="129.29" width="6.39" height="6.39"/><rect class="cls-5" x="290.65" y="142.07" width="6.39" height="6.39"/></g><line class="cls-28" x1="302.15" y1="133.12" x2="346.25" y2="133.12"/><line class="cls-28" x1="302.15" y1="146.55" x2="346.25" y2="146.55"/><ellipse class="cls-29" cx="113.8" cy="438.39" rx="23.28" ry="2.86"/><ellipse class="cls-29" cx="177.32" cy="438.39" rx="23.28" ry="2.86"/><path class="cls-30" d="M233.38,199.23s-23.2,35.48-29.5,31c0,0-10.14-5.17-6.51-26,0-2,0-3.43-.05-3.75,0,0-2-18.48-5.41-22.74a10.57,10.57,0,0,1-.87-3.45c10.32-2.59,14.46,19.41,17.3,31.41C208.46,206.24,228,191,228,191s10.32-13.65,11-12.87c1,1.13-3,7.22-3,7.22a2,2,0,0,0,1,1,2.48,2.48,0,0,1,1.48,1.92c.26,1,1.3,1.65,1.48,2.26S235.59,197.63,233.38,199.23Z" transform="translate(1 -0.55)"/><path class="cls-5" d="M219.55,195.65c-5.79,4.47-11.13,10.42-11.21,10.09-2.84-12-7-34-17.3-31.41a10.57,10.57,0,0,0,.87,3.45c3.38,4.26,5.41,22.74,5.41,22.74.07.32.06,1.72.05,3.75-3.63,20.83,6.51,26,6.51,26,4.82,3.4,19.33-14.4,26-24C227.35,203.33,222,198.63,219.55,195.65Z" transform="translate(1 -0.55)"/><path class="cls-30" d="M228.33,190.92s2.09-5.91,2.95-5.73,4.7,1.82,4.61,3.3-3.39.26-3.39.26.61,3.3-1,3.74S228.33,190.92,228.33,190.92Z" transform="translate(1 -0.55)"/><path class="cls-31" d="M233.46,188.49s-.09,1.48,1.13,1.74a1.47,1.47,0,0,0,1.82,1.22s-.43.69.53.87C236.94,192.32,232.85,196.75,233.46,188.49Z" transform="translate(1 -0.55)"/><path class="cls-32" d="M232.68,185.61c.84.27,1.64.61,2.45,1a6.32,6.32,0,0,1,1.21.62,1.41,1.41,0,0,1,.52.67.94.94,0,0,1-.26.93,3.79,3.79,0,0,1-2.72.67,2.2,2.2,0,0,0-.48,0c0-.09,0,.22,0,.42,0,.44.07.87.08,1.31h0l-.25-1.28c0-.2-.17-.44,0-.65s.44-.08.65-.09a3.74,3.74,0,0,0,2.45-.65.55.55,0,0,0,.17-.55,1,1,0,0,0-.38-.49,9,9,0,0,0-1.14-.63l-2.32-1.2Z" transform="translate(1 -0.55)"/><path class="cls-32" d="M236.17,185.2a1.27,1.27,0,0,1-.15.51,2.14,2.14,0,0,1-.28.39,2.82,2.82,0,0,1-.39.29,1.52,1.52,0,0,1-.52.17l0,0c.43-.47.88-.92,1.34-1.36Z" transform="translate(1 -0.55)"/><path class="cls-32" d="M237.93,187.39a4.86,4.86,0,0,1-.76,1.18,8.4,8.4,0,0,1-1,1,7.48,7.48,0,0,1-1.22.74,1.55,1.55,0,0,1-.78.13.77.77,0,0,1-.61-.44l0,0a.93.93,0,0,0,1.22.07,10.68,10.68,0,0,0,1.12-.78,12.91,12.91,0,0,0,2-1.86Z" transform="translate(1 -0.55)"/><path class="cls-32" d="M234.54,190.22c.22.48.45,1,.81,1.13a1.19,1.19,0,0,0,1.13-.33,12.58,12.58,0,0,0,1.14-1c.39-.35.78-.71,1.21-1l0,0c-.32.42-.66.82-1,1.21a7.91,7.91,0,0,1-1.13,1.11,1.44,1.44,0,0,1-1.51.27,1.92,1.92,0,0,1-.7-1.38Z" transform="translate(1 -0.55)"/><path class="cls-32" d="M236.35,191.19a5,5,0,0,0,.42.83,1.08,1.08,0,0,0,.25.29.55.55,0,0,0,.26,0,4,4,0,0,0,.83-.12,2,2,0,0,0,.9-.19l0,0a1.39,1.39,0,0,1-.83.48,2.24,2.24,0,0,1-1,.17.71.71,0,0,1-.46-.17,1.23,1.23,0,0,1-.26-.42,2.59,2.59,0,0,1-.22-.95Z" transform="translate(1 -0.55)"/><path class="cls-22" d="M186,169.88l5.72-28.53c.27-2.22-3.75-7.54-5.69-8.65-5.34-3.06-11.93-3.5-18-2.25-19.62,4.08-11.67,38.77,8.61,33.11" transform="translate(1 -0.55)"/><path class="cls-30" d="M170.9,149.82a.51.51,0,0,1-.52.53c-1.24,0-4.1-.26-4.5,3s2.71,5.12,4.59,5.22c.54,0,1.79.14,2.15.54,1.13,1.23,1.66,3.91,2.53,7.25a9.49,9.49,0,0,1-3.88,10.76s19.34,9.51,19.16,0c0,0-1.53-17.54-1.44-17.63,1.51-1.51,7.38-2.16,3.69-14.66-3.41-11.58-11.91-10.76-14.07-10.38C176.79,134.73,170.46,135.12,170.9,149.82Z" transform="translate(1 -0.55)"/><path class="cls-22" d="M186.18,133.36s-6.76,18.84-16,19.06C170.22,152.42,164.15,131.2,186.18,133.36Z" transform="translate(1 -0.55)"/><path class="cls-32" d="M167.28,154.26s1.95-4.1,4.42,1.4" transform="translate(1 -0.55)"/><path class="cls-31" d="M181.65,149.83a2.91,2.91,0,1,1-2.84,3A2.9,2.9,0,0,1,181.65,149.83Z" transform="translate(1 -0.55)"/><path class="cls-31" d="M193.76,150.91a2.91,2.91,0,0,1-1-5.35S194,148.78,193.76,150.91Z" transform="translate(1 -0.55)"/><path class="cls-4" d="M191.32,149.42l-4.43,2.2s2.16,1.58,3.33.72S191.32,149.42,191.32,149.42Z" transform="translate(1 -0.55)"/><path class="cls-32" d="M187.92,146.2l.7,3.16,1.54-.68a.41.41,0,0,0,.09-.7Z" transform="translate(1 -0.55)"/><path class="cls-33" d="M182.24,145c-.39.54-.16-1.33.47-1.77a1.31,1.31,0,0,1,1.82.21A4.05,4.05,0,0,0,182.24,145Z" transform="translate(1 -0.55)"/><path class="cls-33" d="M190.59,141.85c.64.18-.71-1.14-1.47-1.08a1.3,1.3,0,0,0-1.29,1.29A4.08,4.08,0,0,1,190.59,141.85Z" transform="translate(1 -0.55)"/><path class="cls-33" d="M184.79,147.34c.22.53.6.87.86.77s.29-.62.07-1.15-.59-.87-.85-.77S184.58,146.81,184.79,147.34Z" transform="translate(1 -0.55)"/><path class="cls-33" d="M188.9,145.39c.2.5.57.83.81.73s.28-.59.08-1.09-.57-.84-.82-.74S188.69,144.88,188.9,145.39Z" transform="translate(1 -0.55)"/><path class="cls-32" d="M189,159.44a46.63,46.63,0,0,1-8.31.87C177.9,160.13,189.62,166.39,189,159.44Z" transform="translate(1 -0.55)"/><path class="cls-11" d="M174.48,158.6a2.5,2.5,0,1,1-2.5-2.5A2.49,2.49,0,0,1,174.48,158.6Z" transform="translate(1 -0.55)"/><path class="cls-11" d="M174.48,163.59a2.5,2.5,0,1,1-2.5-2.5A2.49,2.49,0,0,1,174.48,163.59Z" transform="translate(1 -0.55)"/><path class="cls-34" d="M177.65,412.8l-1.14,16.92s3.43,10.07,6.61,6.17a31.31,31.31,0,0,1,6.33-6l1.05-15.78Z" transform="translate(1 -0.55)"/><path class="cls-30" d="M182.7,415.11l.55,20.64s-10.07,1.52-6.33-5.23l.06-19Z" transform="translate(1 -0.55)"/><path class="cls-34" d="M139.59,414.92l-4.72,15.14s-3.6,3.15-4.89,3.07c-2.36-.15-3.6-4.22-3.6-4.22l-.39-14Z" transform="translate(1 -0.55)"/><path class="cls-30" d="M132.79,410.87l-3.31,25.05s-6.77,1.79-3-4.95l-.83-19.27Z" transform="translate(1 -0.55)"/><path class="cls-11" d="M190.5,429.85l12.71,10.31c.65.48.19,1.29-.74,1.3l-18.76.15a1.08,1.08,0,0,1-1-.51l-1.42-2.9c-.41-.84-1.22-.9-1.14,0l-.7,2.8c0,.45-4.45.33-4.49-.08a80.62,80.62,0,0,1,.72-12.9.93.93,0,0,1,.84-.65h0a1.27,1.27,0,0,1,1,.29c1.26,1.22,5.31,4.91,7.47,4.16a15.49,15.49,0,0,0,3.9-1.91A1.34,1.34,0,0,1,190.5,429.85Z" transform="translate(1 -0.55)"/><path class="cls-11" d="M126.2,428.39,119,440.48a2.34,2.34,0,0,0,1.05,3.4c2.25,1.35,4.1,4,5.52,4.07,2.56.07,6.55-2.63,8.88-3.65,1.56-.68,2.78-1.68,2.59-3l-1.8-12.13c0-.15-.28-.2-.41-.08l-2.77,2.5c-.9.82-3.36.71-4-.27-.44-.7-1.46-3-1.46-3A.28.28,0,0,0,126.2,428.39Z" transform="translate(1 -0.55)"/><path class="cls-22" d="M165.84,225.58c-4.53,8.93-9.53,17.92-13.13,30.6-4,14.17-26.55,136.31-28.27,162.28,4.5,1.08,14.12,1.15,17,1,9-25.92,33-112.54,36.91-128.87.6-2.51,4.48-2,4.18.61-2.21,18.64-7.17,96-8.83,126.27,2.36,1.2,17.89.67,20.62.33,3-32,25.57-153,1.83-192.21C185.25,224.08,182.64,225.08,165.84,225.58Z" transform="translate(1 -0.55)"/><path class="cls-35" d="M194.54,226.92a181.76,181.76,0,0,1,10.52,60.39c0,33.78-14.44,130.48-14.44,130.48" transform="translate(1 -0.55)"/><line class="cls-35" x1="129.1" y1="417.57" x2="168.5" y2="225.69"/><path class="cls-36" d="M197,227.18l-46.53,37.09S155.59,241,166,225.91Z" transform="translate(1 -0.55)"/><path class="cls-5" d="M190.29,173.33c.83,1,12.68,20.9,12.3,28.42s-6.06,24-5.65,25.16c0,0,.33,1.83-31.59-.11-1.13-12.72-4.9-40.05-1.56-49.44a52.42,52.42,0,0,0,11.53-6S191.06,180.91,190.29,173.33Z" transform="translate(1 -0.55)"/><g class="cls-9"><path class="cls-5" d="M166,177.68a44.48,44.48,0,0,0-4.43,4.78c-3.35,9.39,2.64,31.62,3.77,44.34,14.44.88,22.26,1,26.52.84Q178.37,203,166,177.68Z" transform="translate(1 -0.55)"/></g><path class="cls-4" d="M213,233.41l-31.27,38.7-25.06-20.25,19.06-20.11-.1-1.18a5,5,0,0,1,1.1-3.53h0l7-8.61a6.77,6.77,0,0,1,9.52-1Z" transform="translate(1 -0.55)"/><path class="cls-11" d="M212.33,230.41l-31.26,38.7L156,248.87l19.05-20.12-.09-1.18a5,5,0,0,1,1.09-3.53h0l6.95-8.6a6.78,6.78,0,0,1,9.53-1Z" transform="translate(1 -0.55)"/><path class="cls-30" d="M160.91,217.49c5.27,6.8,25.6,25.69,27.06,26.66a24.6,24.6,0,0,0,7.81,2.9,4.43,4.43,0,0,1,2.31,1.69,8.29,8.29,0,0,0,1.12.95,1.28,1.28,0,0,1-.59,2.21h0c-1.11-.76-3.6-2.51-3.1-2.07,2.81,2.51,6.11,6,4.84,6.85-.62.41-5.27,4.95-9.8,3.18-.87-.34-21.45-10.76-45.33-30.45a9.08,9.08,0,0,1-3.09-8.89c3-14,18.11-48.26,26.75-42.94C177,182.58,160.91,217.49,160.91,217.49Z" transform="translate(1 -0.55)"/><path class="cls-5" d="M182.87,239.62c-6.77-6.26-18.2-17.27-22-22.13,0,0,19-32.83,8-39.91-10.2-6.54-24.86,28.71-27.82,42.68-.7,3.31,1.05,7.5,3.66,9.64,11.48,9.47,22.13,17.53,30.26,22.62C177.43,248.63,180.44,243.51,182.87,239.62Z" transform="translate(1 -0.55)"/><path class="cls-37" d="M429.24,421c3.9-6.13,10.16-9.5,18-9.5H461A22,22,0,0,1,479,420.91Z" transform="translate(1 -0.55)"/><path class="cls-38" d="M425.22,440v-6.53a22,22,0,0,1,22-22H461a22,22,0,0,1,22,22V440" transform="translate(1 -0.55)"/><circle class="cls-37" cx="424.49" cy="432.67" r="7.31" transform="translate(-180.62 426.33) rotate(-45)"/><circle class="cls-4" cx="425.49" cy="432.12" r="3.51"/><line class="cls-39" x1="455.46" y1="355.36" x2="455.46" y2="410.19"/><path class="cls-3" d="M464,411.47H445a6.59,6.59,0,0,1,6.58-6.58h5.85a6.59,6.59,0,0,1,6.58,6.58Z" transform="translate(1 -0.55)"/><circle class="cls-37" cx="482.24" cy="432.67" r="7.31" transform="translate(-61.95 82.08) rotate(-9.2)"/><path class="cls-4" d="M486.11,432.67a3.51,3.51,0,1,0-3.5,3.51A3.51,3.51,0,0,0,486.11,432.67Z" transform="translate(1 -0.55)"/><path class="cls-3" d="M493.08,236.71l-35.48-1.32L429,342.92l-12.11,4c-4,0,4.32,5.23,4.32,9.19H427l62.33,0a10.41,10.41,0,0,0,10.23-8.43l16-82.37A23.94,23.94,0,0,0,493.08,236.71Z" transform="translate(1 -0.55)"/><path class="cls-40" d="M491.5,348.63l-63.6-2.19,12.46-97.6a15.6,15.6,0,0,1,16.05-13.36l31.83,1.23a23.94,23.94,0,0,1,22.42,28.67Z" transform="translate(1 -0.55)"/><line class="cls-41" x1="496.69" y1="225.95" x2="494.08" y2="236.16"/><line class="cls-41" x1="473.66" y1="225.95" x2="471.05" y2="236.16"/><path class="cls-3" d="M502.84,228.18h-45.2l9.68-28h41a5,5,0,0,1,4.75,6.66l-6.45,18.67A4,4,0,0,1,502.84,228.18Z" transform="translate(1 -0.55)"/><path class="cls-42" d="M497.84,227.84H452.63l9.68-28h41a5,5,0,0,1,4.74,6.66l-6.45,18.68A4,4,0,0,1,497.84,227.84Z" transform="translate(1 -0.55)"/><ellipse class="cls-29" cx="352.57" cy="441.18" rx="40.57" ry="1.66"/><path class="cls-43" d="M360.61,425.88l4.92-11.75h16.63l-1.91,12.25h0c-4.91,5.63-11.88,10.45-17,5Z" transform="translate(1 -0.55)"/><path class="cls-44" d="M380.75,424.46s2.39,17.92.42,18.08l-46.4.37s3.24-8.23,12.17-9.86c11.61-2.12,13.94-8.36,13.94-8.36s3.24,4,4.53,5.2a7.72,7.72,0,0,0,10.92-.58Z" transform="translate(1 -0.55)"/><path class="cls-22" d="M480.59,316.24h0a32.82,32.82,0,0,1-32.66,33H412.36c-2.07,0-3.26,2.39-5.92,7.72,0,0-24.2,63.26-24.61,63.26,0,0-20.83.33-20.93.1l14.85-81.81a23.32,23.32,0,0,1,1.89-5.95c6.25-13.07,16.77-14.38,25.14-14.54Z" transform="translate(1 -0.55)"/><path class="cls-45" d="M459.94,317.19s3.22,19.93-15.43,19.29c-10.36-.36-21.94-.78-34.75-.49-9.1.2-14.3,6.65-18.18,18.36l-20.56,66" transform="translate(1 -0.55)"/><polygon class="cls-43" points="402.07 425.32 403 413.35 421.12 414.99 421.71 425.82 412.56 436.3 402.07 425.32"/><path class="cls-11" d="M421.21,424.46s2.38,17.92.42,18.08l-46.4.37s3.22-8.34,12.16-9.86c13.51-2.3,12.39-8.55,12.39-8.55l6.93,6.13a6.65,6.65,0,0,0,9.32-.49Z" transform="translate(1 -0.55)"/><path class="cls-5" d="M496.11,316.24h0a32.82,32.82,0,0,1-32.66,33H427.88a3.18,3.18,0,0,0-3.05,4l-2.89,65.95a.63.63,0,0,1-.61.8H409c-.25,0-7.51.55-7.61.32L391.73,336c-.26-12,3.4-16.61,11.31-18Z" transform="translate(1 -0.55)"/><path class="cls-45" d="M475.46,317.19s3.22,19.93-15.43,19.29c-10.36-.36-27.08-.12-39.89.16a13.9,13.9,0,0,0-13.05,17.71l4.66,65.12" transform="translate(1 -0.55)"/><path class="cls-43" d="M372.81,246.76l-9.73-15.06,7.56-7.93s-3.5-10-3.13-11.61c.8-3.62,18.1,25.4,18.1,25.4l12.6,12.52-15.1,14.69Z" transform="translate(1 -0.55)"/><path class="cls-46" d="M378.18,226.36l-3.91,1.91a3.26,3.26,0,0,0-1.36.92,1.34,1.34,0,0,0,0,1.5,2.27,2.27,0,0,0,1.4.91,15,15,0,0,0,2,.37,20.42,20.42,0,0,0,4.28.12c.53-.05.54-.88,0-.84a19.35,19.35,0,0,1-3.57,0,18,18,0,0,1-1.79-.27,2.94,2.94,0,0,1-1.45-.51c-.95-.88,1-1.5,1.56-1.77l3.25-1.59c.49-.24.06-1-.41-.72Z" transform="translate(1 -0.55)"/><path class="cls-46" d="M370.52,224.31a26.11,26.11,0,0,1,2.65,4.31.43.43,0,0,0,.57.15.42.42,0,0,0,.15-.57,26.11,26.11,0,0,0-2.65-4.31.43.43,0,0,0-.57-.15.41.41,0,0,0-.15.57Z" transform="translate(1 -0.55)"/><path class="cls-46" d="M374,231.47a.57.57,0,0,1-.35.59,1,1,0,0,1-.84,0,5,5,0,0,1-1.65-1.37,15,15,0,0,1-2.47-3.67c-.23-.48-.95-.06-.72.42a15.39,15.39,0,0,0,3.26,4.5,2.8,2.8,0,0,0,2.35,1,1.49,1.49,0,0,0,1.23-1.71c-.12-.52-.92-.3-.81.22Z" transform="translate(1 -0.55)"/><path class="cls-46" d="M372.26,232.51a5.55,5.55,0,0,1-.9,2.49c-.51.67-1.66-.48-2-.88a20.31,20.31,0,0,1-1.59-2.1L366,229.5c-.3-.44-1,0-.71.42l2.13,3a11.18,11.18,0,0,0,1.92,2.3c.7.57,1.81,1.24,2.58.43a4,4,0,0,0,.73-1.29,6.72,6.72,0,0,0,.45-1.65c.08-.52-.72-.75-.8-.22Z" transform="translate(1 -0.55)"/><path class="cls-46" d="M369.16,234.88a1.72,1.72,0,0,1-3.09.85.42.42,0,0,0-.58,0,.41.41,0,0,0,0,.59A2.53,2.53,0,0,0,370,235.1a.44.44,0,0,0-.29-.51.42.42,0,0,0-.51.29Z" transform="translate(1 -0.55)"/><path class="cls-11" d="M431.59,314.74s12.09-83.31,15.17-88.5c0,0-7.15-3.79-16.68,16.26s-10.88,25.85-10.88,25.85l-21-21.54-17.14,18,38.13,49.57,11.19,1.2" transform="translate(1 -0.55)"/><path class="cls-11" d="M478.78,220.89s22.46,7.16,25.29,29.19S494,328.6,494,328.6s-13.73-5.82-19.39-7.38A76.07,76.07,0,0,0,454,318.7l-24.7-.44L438,243.57c1.31-5.62,2-13.69,7.13-16.92l8.64-5.22,17.1-4.4Z" transform="translate(1 -0.55)"/><path class="cls-47" d="M428.53,314c6.52-13,58-84.26,57.07-89.91,6.86,4,16.67,12,18.47,26,2.84,22-10.07,78.52-10.07,78.52s-13.73-5.82-19.39-7.38A76.07,76.07,0,0,0,454,318.7l-28-.22C425.32,317.83,428.21,314.62,428.53,314Z" transform="translate(1 -0.55)"/><path class="cls-43" d="M454.93,296.6l-20,5.71S415.76,308,410.45,317l45.71-1.22Z" transform="translate(1 -0.55)"/><path class="cls-11" d="M477.37,222.33c5.09-3.23,24.49,7.55,28.69,28.3,4.27,22.25-3.27,66.45-10.55,69.12S457,319,457,319s-1.48-19.68-2.45-25.71l24.9-.81S473.76,262.11,477.37,222.33Z" transform="translate(1 -0.55)"/><path class="cls-43" d="M468.25,200.64l3.28,15.57-6,6.8c-9.31,10.05-10.61,3.4-12.35,2.56l1.19-18.27,8.68-3.46Z" transform="translate(1 -0.55)"/><path class="cls-48" d="M463.06,203.84l-8.68,4.8s-.93,8.39,1.6,8.66c2.12.22,9.42-6.57,8.67-11.73" transform="translate(1 -0.55)"/><path class="cls-22" d="M468.31,202.74s1.17-6.46-.3-4.65l-3.89-14.48a31.32,31.32,0,0,1-4.83,4.44c-2.38,1.65-8,.73-9.45.08s-1.17-7.28-1.17-7.28S439,175.53,446,168.38c6.48-4.82,22.78,5.52,22.78,5.52s5.63-1.42,6.07,5.71c0,0,5.48-1.33-3.08,18.62" transform="translate(1 -0.55)"/><path class="cls-43" d="M448.5,180.51c-2.91,21.86-2.1,28.36-.06,30.05,2.95,2.44,8.28,1,10.88,0,4.27-1.62,7.28-6.15,8.21-7.49.46-.67,5.84.44,5.11-4.67-.53-3.77-2.54-2.56-3.55-1.67a.55.55,0,0,1-.89-.24c-.76-2.22-2.22-11.16-4-13.32-4.44-5.34-8-.3-11.09.2-4.4.72-3.27-1.78-4.4-2.68Z" transform="translate(1 -0.55)"/><path class="cls-4" d="M447.13,199.11s1.65.89,5.77.69c0,0-2.34,2.83-3.93,2.19S447.13,199.11,447.13,199.11Z" transform="translate(1 -0.55)"/><path class="cls-46" d="M471.85,198l-3,2S470.18,194.9,471.85,198Z" transform="translate(1 -0.55)"/><path class="cls-49" d="M451.5,194.25c0,.61.19,1.11.5,1.13s.57-.47.6-1.08-.2-1.12-.5-1.13S451.52,193.64,451.5,194.25Z" transform="translate(1 -0.55)"/><path class="cls-49" d="M447.92,193.55c0,.61.2,1.12.51,1.13s.57-.47.6-1.08-.2-1.12-.5-1.13S448,192.94,447.92,193.55Z" transform="translate(1 -0.55)"/><path class="cls-49" d="M456.84,190.79c.8.6-.37-2-1.47-2.31a2,2,0,0,0-2.51,1.12A6.12,6.12,0,0,1,456.84,190.79Z" transform="translate(1 -0.55)"/><path class="cls-49" d="M447.44,189.06a6.32,6.32,0,0,1,2,.15,2,2,0,0,0-2-1.66" transform="translate(1 -0.55)"/><path class="cls-46" d="M449.62,193.59l-1.89,4.61a.12.12,0,0,0,.09.17l2,.23a.12.12,0,0,0,.13-.12l-.09-4.84A.11.11,0,0,0,449.62,193.59Z" transform="translate(1 -0.55)"/><path class="cls-37" d="M573.16,425.1c4-6.25,10.34-9.68,18.29-9.68h14A22.38,22.38,0,0,1,623.88,425Z" transform="translate(1 -0.55)"/><path class="cls-50" d="M569.06,444.46v-6.65a22.4,22.4,0,0,1,22.39-22.39h14a22.4,22.4,0,0,1,22.39,22.39v6.65" transform="translate(1 -0.55)"/><circle class="cls-37" cx="568.32" cy="437.01" r="7.44" transform="translate(-141.56 529.31) rotate(-45)"/><path class="cls-4" d="M571.89,437a3.57,3.57,0,1,0-3.57,3.57A3.57,3.57,0,0,0,571.89,437Z" transform="translate(1 -0.55)"/><line class="cls-51" x1="599.84" y1="358.29" x2="599.84" y2="414.13"/><path class="cls-3" d="M608.52,415.42H589.17a6.69,6.69,0,0,1,6.7-6.7h6a6.7,6.7,0,0,1,6.7,6.7Z" transform="translate(1 -0.55)"/><circle class="cls-37" cx="627.13" cy="437.01" r="7.44" transform="translate(-124.33 570.89) rotate(-45)"/><path class="cls-4" d="M631.08,437a3.58,3.58,0,1,0-3.58,3.57A3.57,3.57,0,0,0,631.08,437Z" transform="translate(1 -0.55)"/><path class="cls-3" d="M638.17,237.44,602,236.1,572.9,345.61l-12.34,4.11c-4,0,4.41,5.32,4.41,9.35h5.85l63.48,0a10.58,10.58,0,0,0,10.41-8.58L661,266.64A24.38,24.38,0,0,0,638.17,237.44Z" transform="translate(1 -0.55)"/><path class="cls-40" d="M636.56,351.43l-64.77-2.24,12.69-99.39a15.88,15.88,0,0,1,16.35-13.61l32.41,1.25a24.39,24.39,0,0,1,22.83,29.2Z" transform="translate(1 -0.55)"/><line class="cls-52" x1="641.83" y1="226.5" x2="639.17" y2="236.89"/><line class="cls-52" x1="618.37" y1="226.5" x2="615.72" y2="236.89"/><path class="cls-3" d="M648.11,228.75h-46l9.86-28.55h41.77a5.12,5.12,0,0,1,4.84,6.78L652,226A4.08,4.08,0,0,1,648.11,228.75Z" transform="translate(1 -0.55)"/><path class="cls-42" d="M643,228.41H597l9.86-28.55h41.77a5.12,5.12,0,0,1,4.84,6.78l-6.57,19A4.08,4.08,0,0,1,643,228.41Z" transform="translate(1 -0.55)"/><path class="cls-29" d="M578.36,451.38c0-1.15-35.85-2-53.67-2s-32.27.93-32.27,2.08,14.45,2.07,32.27,2.07S578.36,452.52,578.36,451.38Z" transform="translate(1 -0.55)"/><path class="cls-53" d="M537.46,410.12c-1.44,17.29,3.25,25.49,1.66,29.73s-29.09,9.21-27.2,8.37c5.1-2.29,13.75-10.94,13.75-10.94A189.27,189.27,0,0,0,524,415.33Z" transform="translate(1 -0.55)"/><path class="cls-44" d="M523.74,427.13l25.58-1.69-4.22-77.18s59.52,4.21,62.56-10.34-.5-37.29-.5-37.29H580.82l-1.91,7.68s-54.19-1-57.91,8.46S514.89,354.07,523.74,427.13Z" transform="translate(1 -0.55)"/><path class="cls-45" d="M593.31,302.39c0,1.16,12.44,20.6-1.56,24.1s-56.75-2.72-59.47,5.44,1.3,94.4,1.3,94.4" transform="translate(1 -0.55)"/><path class="cls-53" d="M603,302.2s-45.47,12.58-62,24.09,18.75,109.12,18.75,109.12A164.06,164.06,0,0,1,546.93,448c-1.56,1.36,16.89-3.34,21.23-4.63,3.68-1.09,5.3.08,2.23-11.66-4.35-16.65-7.85-91-8.57-92.77s59.25,11.43,58.58-5S603,302.2,603,302.2Z" transform="translate(1 -0.55)"/><path class="cls-11" d="M617,295.69s14.15,27.35,9.7,41.68c-6.68,21.52-63.24,14.34-63.24,14.34l19.74,66.63-28.77,8.79S521.81,336,530.72,322.6c7-10.56,36.54-10.88,40.28-12.06,5.35-1.68,6-15.93,6-15.93Z" transform="translate(1 -0.55)"/><path class="cls-45" d="M602.64,297c.38,1.16,14.77,29.15-1.17,33.43s-53.26-1.95-55.59,6.22,17.41,87.73,17.41,87.73" transform="translate(1 -0.55)"/><path class="cls-4" d="M552.2,443s-.89,5.54,5.1,2.22,14-12,14-12l3,13.76a1.88,1.88,0,0,1-1.94,2.28h0a1.88,1.88,0,0,1-1.68-1.32l-1.34-4.34-.73,2.85a5.41,5.41,0,0,1-4.33,4l-18.49,3.17a3,3,0,0,1-2.48-5.23Z" transform="translate(1 -0.55)"/><path class="cls-4" d="M520.1,442.31s-1.26,5.47,4.94,2.57,14.76-11,14.76-11l2.06,13.94a1.87,1.87,0,0,1-2.1,2.13h0a1.88,1.88,0,0,1-1.58-1.43l-1-4.42-.93,2.79a5.39,5.39,0,0,1-4.59,3.68L513,452.49a3,3,0,0,1-2.12-5.39Z" transform="translate(1 -0.55)"/><path class="cls-54" d="M622.93,212.4c1.34-4.62,1.42-7.61.59-14.4s-6.42-7.15-6.42-7.15c-6.2-1.8-19.05-6.81-24.19,1.82-1.27,2.13-5.65,10.25-2,14.09,0,0,2.35,14.06,13.11,20.35C608.07,229.46,620.88,219.38,622.93,212.4Z" transform="translate(1 -0.55)"/><path class="cls-55" d="M600.57,221.43a6.44,6.44,0,1,0-7.12,5.7A6.44,6.44,0,0,0,600.57,221.43Z" transform="translate(1 -0.55)"/><path class="cls-53" d="M615.35,208.44c.09.31.08,1.29.37,1.17,1.21-.52,4.08-1.66,5.63,1.56s-3.41,7.89-5.82,5.56c-1.07,3.5-3.58,5.14-3.8,5.71-.66,1.75,1.61,15.77,1.44,19.82-.23,5.21-10,15.11-10,15.11s-9-.08-8-6.75c0,0,3.92-23.68,2.73-24-5.1-.71-9.37-5.34-7.42-17.54,1.42-8.88,1.32-3.44,7.62-12.5C603.8,198.27,594.8,208.83,615.35,208.44Z" transform="translate(1 -0.55)"/><path class="cls-56" d="M597.84,226.58s5.75-.47,7.35-1.74C605.19,224.84,598.62,231.92,597.84,226.58Z" transform="translate(1 -0.55)"/><path class="cls-57" d="M619.38,254.48" transform="translate(1 -0.55)"/><path class="cls-53" d="M613.44,249l-10.93-5A12.29,12.29,0,0,0,589,246.22l-19.82,18.65c-.79-7.31-2.45-17.77-5.79-34.43l1.08-12.58s-.76-2.22-2.39.4-1.64,3.43-1.64,3.43a44.31,44.31,0,0,1-7-6.87c-1.38-1.75-2.82-5.44-3.27-6.1-1.47-2.13-1.47-.33-1.47.49s.16,2.13.16,2.13-2-3.93-2.45-3a2.5,2.5,0,0,0,.23,1.42c-.52-.8-1-1.31-1.31-1.14-.78.38,1.13,7.24,3.53,9.53.46.44.15.8-.44.55-1.74-.77-4.78-5.68-5.45-5.23-.86.57,4.42,10.27,5,11.11,1.63,2.29,5.6,9.43,5.6,9.43s-4.89,54.23,6,62.35c5.51,4.12,8,2.13,9.13-1.68C582.34,284.23,612.56,249.91,613.44,249Z" transform="translate(1 -0.55)"/><path class="cls-5" d="M602.47,256.67a5,5,0,0,1-1.38-.51l-18.63-3.82-13.32,12.53c-.72-6.58-.86-15.89-3.58-29.81-4,4.14-9.12,8.6-12.82,13-.66,16.66-.46,42.88,6.83,48.33,5.51,4.12,8.48,4.16,12.47.34,9.53-7.34,23.79-28.3,33.85-39.36Z" transform="translate(1 -0.55)"/><path class="cls-22" d="M602.47,256.67a5,5,0,0,1-1.38-.51l-11.59-2.37c-11.11,13.39-20.67,27.91-29.94,42.61h0c5.51,4.12,8.48,4.16,12.47.34,9.53-7.34,23.79-28.3,33.85-39.36Z" transform="translate(1 -0.55)"/><path class="cls-58" d="M559.54,221.34a6.34,6.34,0,0,0-3,4.93c0,.48.7.47.73,0a5.54,5.54,0,0,1,2.69-4.29.37.37,0,0,0-.38-.64Z" transform="translate(1 -0.55)"/><path class="cls-58" d="M548.77,211.09A10,10,0,0,0,553,216.9c.4.25.77-.38.37-.64a9.24,9.24,0,0,1-3.92-5.36.37.37,0,0,0-.71.19Z" transform="translate(1 -0.55)"/><path class="cls-58" d="M546.24,210a36.67,36.67,0,0,0,2,4.47,7.86,7.86,0,0,0,2.59,3.27.37.37,0,0,0,.37-.64,7.37,7.37,0,0,1-2.39-3.13,35.51,35.51,0,0,1-1.89-4.17c-.17-.44-.88-.25-.71.2Z" transform="translate(1 -0.55)"/><path class="cls-58" d="M550.91,218.21a10,10,0,0,1,3-1.41.37.37,0,0,0-.2-.71,10.83,10.83,0,0,0-3.13,1.48.37.37,0,0,0,.38.64Z" transform="translate(1 -0.55)"/><path class="cls-5" d="M629.93,247.75a149.34,149.34,0,0,0-14.11-7.17C615.65,237.52,610,246,603,245c-3.65-.53-3.44-.21-4.41-3.11,0,0-19.58,18.76-21.31,27.37-1.63,8.14-5.53,38.59-5.53,41.78l55.41-1.2S633.54,258.7,629.93,247.75Z" transform="translate(1 -0.55)"/><path class="cls-22" d="M629.93,247.75,572.55,305.2l50,.45S631,261.45,629.93,247.75Z" transform="translate(1 -0.55)"/><path class="cls-53" d="M559.37,310.49s41.47.7,60.81.38,17.48-20.34,17.13-27.95c-.37-8.25,1.68-30.32-6-34.69a9.39,9.39,0,0,0-2.5-1.24l0-.1c-2.35-.8-10.53-5.18-10.53-5.18-.11,3.63,1.83,15.63,1.91,22.51,0,9.9-4,27.29-5.46,28.78-5.91,5.91-22.41,7.13-32.46,7.3,0,0-10.64-5.67-11.55-5.22s6.11,5.44,6.11,5.44-16.77-5.89-18.13-4.08,11.11,5.22,10,6.12-10.87-3.85-12-1.81,11.11,5.44,11.11,5.44-10.88-2.72-11.33-.68,10.86,3.93,10.86,3.93S559.83,306.87,559.37,310.49Z" transform="translate(1 -0.55)"/><path class="cls-5" d="M637.31,282.92c-.26-5.69.64-17.94-1.31-26.43-5.31,2.05-10.58,4.2-15.86,6.34,0,.48,0,.94,0,1.39,0,9.9-4,27.29-5.46,28.78-3.87,3.88-12.31,5.74-20.49,6.6.46,2.2,1,4.32,1.31,6.15s.64,3.45,1,5.17c8.78.05,17.4.05,23.68-.05C639.53,310.55,637.66,290.53,637.31,282.92Z" transform="translate(1 -0.55)"/><path class="cls-58" d="M616.07,213.18c2.2-4.9,3.89-.92,3.89-.92Z" transform="translate(1 -0.55)"/><path class="cls-59" d="M602.91,214.28a3,3,0,1,0,3.55,2.3A3,3,0,0,0,602.91,214.28Z" transform="translate(1 -0.55)"/><path class="cls-59" d="M591.06,220.51a3,3,0,0,0,1.72-3.37c-.23-1.09-1.64-1.88-2.63-2.19A14.67,14.67,0,0,0,591.06,220.51Z" transform="translate(1 -0.55)"/><path class="cls-4" d="M591.93,217.62H597s-1.27,2.45-2.74,2.2S591.93,217.62,591.93,217.62Z" transform="translate(1 -0.55)"/><path class="cls-58" d="M595.16,210.82l.29,5.69-1.73,0C593.4,216.47,595.16,210.82,595.16,210.82Z" transform="translate(1 -0.55)"/><path d="M600.32,208.79c.58.36-.37-1.34-1.15-1.5s-1.89,0-1.85.6S598.93,207.93,600.32,208.79Z" transform="translate(1 -0.55)"/><path d="M590.92,210c-.54.43.22-1.37,1-1.61s1.82-.19,1.75.72C593.57,209.85,592.2,209,590.92,210Z" transform="translate(1 -0.55)"/><path d="M598.16,213.07c0,.59-.21,1.07-.5,1.07s-.52-.47-.53-1.06.22-1.07.51-1.07S598.16,212.48,598.16,213.07Z" transform="translate(1 -0.55)"/><path d="M593.2,212.92c0,.57-.2,1-.48,1s-.49-.45-.5-1,.21-1,.48-1S593.2,212.36,593.2,212.92Z" transform="translate(1 -0.55)"/><path class="cls-60" d="M617.8,241.74" transform="translate(1 -0.55)"/><path class="cls-56" d="M612.61,193c-1.21-1.29-6.65-3.32-4-11.9a10.23,10.23,0,0,1,1.21-3.43,5,5,0,0,1,4.79-1.58,9.47,9.47,0,0,1,4.59,2.49,12.53,12.53,0,0,1,4.14,6.66,7.8,7.8,0,0,1-2.14,7.32,5.72,5.72,0,0,1-7.3.29" transform="translate(1 -0.55)"/><circle class="cls-55" cx="619.73" cy="221.28" r="6.45"/><rect class="cls-56" x="401.44" y="310.57" width="45.28" height="5.31" transform="translate(849.15 625.9) rotate(180)"/><polygon class="cls-5" points="447.71 310.02 418.13 310.02 420.45 315.33 447.71 315.33 447.71 310.02"/><polygon class="cls-5" points="345.83 315.33 417.2 315.33 399.97 266.11 328.6 266.11 345.83 315.33"/><path class="cls-56" d="M367.71,292.66a4.48,4.48,0,1,1,4.48,4.48A4.48,4.48,0,0,1,367.71,292.66Z" transform="translate(1 -0.55)"/><rect class="cls-56" x="562.01" y="310.52" width="45.63" height="5.35" transform="translate(1170.64 625.84) rotate(180)"/><polygon class="cls-61" points="608.64 309.96 578.82 309.96 581.16 315.32 608.64 315.32 608.64 309.96"/><polygon class="cls-4" points="505.96 315.32 577.88 315.32 560.52 265.71 488.6 265.71 505.96 315.32"/><path class="cls-56" d="M528,292.46a4.52,4.52,0,1,1,4.52,4.52A4.51,4.51,0,0,1,528,292.46Z" transform="translate(1 -0.55)"/><ellipse class="cls-29" cx="274.63" cy="450.66" rx="13.18" ry="1.49"/><ellipse class="cls-29" cx="657.05" cy="450.66" rx="13.18" ry="1.49"/><path class="cls-4" d="M282.17,452h0a3.39,3.39,0,0,1-3.34-3.33l13.76-117h15.08l-22.16,117A3.4,3.4,0,0,1,282.17,452Z" transform="translate(1 -0.55)"/><path class="cls-22" d="M297.53,339.86c2.65-2.68,5.35-5.5,8.15-8.2H292.59l-1.79,15.21C293,344.51,295.25,342.16,297.53,339.86Z" transform="translate(1 -0.55)"/><path class="cls-4" d="M664.14,452h0a3.39,3.39,0,0,0,3.34-3.33l-13.76-117H638.63l22.17,117A3.39,3.39,0,0,0,664.14,452Z" transform="translate(1 -0.55)"/><path class="cls-22" d="M655.45,346.38l-1.73-14.72H639.27Q647.64,338.73,655.45,346.38Z" transform="translate(1 -0.55)"/><path class="cls-4" d="M667.69,333.29H281.53a5,5,0,0,1-4.95-5h0a5,5,0,0,1,4.95-4.95H667.69a5,5,0,0,1,4.95,4.95h0A5,5,0,0,1,667.69,333.29Z" transform="translate(1 -0.55)"/><rect class="cls-22" x="262.78" y="315.81" width="425.65" height="10.64" rx="5.32"/></g></g></svg>