<svg id="_ëîé_1" data-name="‘ëîé_1" xmlns="http://www.w3.org/2000/svg" viewBox="0 0 3200 2000"><defs><style>.cls-1{fill:#fff;}.cls-2{fill:#dceaff;opacity:0.5;}.cls-3{fill:#dfebfa;}.cls-4{fill:#afcdfb;}.cls-5{fill:#cee1fd;}.cls-6{fill:#9fc1f4;}.cls-7{fill:#ff9843;}.cls-8{fill:#ffc48a;}.cls-9{fill:#77a4e5;}.cls-10{fill:#f5fbff;}.cls-11{fill:#bdd1f9;}.cls-12{fill:#f99746;}.cls-13{fill:#ffb27d;}.cls-14{fill:#233862;}.cls-15{fill:#a9453d;}.cls-16{fill:#ed975d;}.cls-17{fill:#2a4e96;}.cls-18{fill:#5f9aa8;}.cls-19{fill:#1e3d70;}.cls-20{fill:#ed7d2b;}.cls-21{opacity:0.6;}.cls-22{fill:#163560;}.cls-23{fill:#dfebfd;}.cls-24{fill:#f9ddbf;}.cls-25{fill:#f2ccaa;}.cls-26{fill:#1b3051;}.cls-27{fill:#1e3c68;}.cls-28{fill:#2b478b;}.cls-29{fill:#2e3552;}</style></defs><rect class="cls-1" width="3200" height="2000"/><path class="cls-2" d="M2982.9,1727.84v0l-.68,1.21c-1.61,2.89-3.29,5.84-5,8.79l-2617.77-.79s-2.55-2.84-7.11-8.29c-.26-.3-.52-.62-.79-1a981,981,0,0,1-62.78-85.23l0,0c-73.1-110.57-174.4-306.37-157.35-523.68a595.48,595.48,0,0,1,46-187.74C259.17,739,503.13,609.53,722.9,606.92c85.07-1,166.52,17,233.53,57.74,11.88,7.22,26.83,12.8,44.21,16.6a274,274,0,0,0,48.81,5.78c142.73,5,374.87-75.41,512.55-277.77,73.11-107.47,185.35-177.81,314.36-214.45q9-2.55,18.14-4.89a793.93,793.93,0,0,1,90.15-17.55q8.28-1.12,16.63-2.08c136.13-15.8,281.93.54,415.67,45.71q26.41,8.91,52.17,19.34c251.67,101.92,447.46,310,430.25,600.62q-1,17.22-3.06,34.86a675.44,675.44,0,0,1-11.54,68.51q-4.56,20.6-10.47,41.66C2770.57,1349.37,3185.24,1366,2982.9,1727.84Z"/><path class="cls-3" d="M2982.9,1727.84v0l-2037.6.21,17.57-609V953.65h76.21V824.43h152V934.11h46.43V731.26h10.1V717.08h1.81v14.18h36.67V717.08H1288v14.18h51.9V717.08h1.83v14.18h32.68V717.08h1.79v14.18h13.43V920.62h51.32V890l60.52.27V840.63h12.17v-9.81h1.62v9.81H1562v0h9.35v-9.83h1.6v9.83h11.28v98.68h72v36.32h40.06V954.57h37.15V870.84H1752V831.78h2.8v39.06h44.39V797.63h4.36v73.21h29.37v-1h0v-9.29h0v-8.8h0V837.1h0v-9.34h0V813.12h0v-9.33h0V789.15h0v-10.1h0V764.43h0V751.57h0V737h0v-9.7h8.75v-11h1.4v11h64.84v-11h1.39v11h11.84v76.54l8.32,0v0h-.06V789.15h.06v-10.1h-.06V764.43h.06V754.37h-.06V739.73h.06v0h78.63v0h13.51l2.11,1.17v97.6h14.46V824.43h166V934.11h50.68V731.26h11V717.08h2v14.18h40V717.08h2v14.18h56.67V717.08h2v14.18h35.67V717.08h2v14.18h14.66V920.62h56V890l66.05.27V840.64h13.3v-9.82h1.77v9.82H2619v-9.83h1.75v9.83h12.31v98.69h78.63v36.31h43.73V954.57H2796V870.83h20.22V831.78h3.05v39.05h48.46v-73.2h4.76v73.2h23.82a675.44,675.44,0,0,1-11.54,68.51q-4.56,20.6-10.47,41.66C2770.57,1349.37,3185.24,1366,2982.9,1727.84Z"/><path class="cls-4" d="M2469.11,235.35V1727.83h-52.17V216Q2443.37,224.92,2469.11,235.35Z"/><path class="cls-5" d="M1000.64,681.26V1728.78H352.34c-.26-.3-.52-.62-.79-1a981,981,0,0,1-62.78-85.23l0,0c-73.1-110.57-174.4-306.37-157.35-523.68a595.48,595.48,0,0,1,46-187.74C259.17,739,503.13,609.53,722.9,606.92c84.28.93,164.6,19.12,231.3,57.74C966.68,671.88,982.38,677.46,1000.64,681.26Z"/><path class="cls-6" d="M2001.28,170.3V354.1c0,14.33-3.5,26-7.77,26h-1.11c-4.27,0-7.75-11.69-7.75-26V172.38Q1992.93,171.26,2001.28,170.3Z"/><path class="cls-7" d="M1988.63,335.9c-60.58,0-109.68,51.93-109.68,116h219.36C2098.31,387.83,2049.2,335.9,1988.63,335.9Z"/><path class="cls-8" d="M1997.37,337.32a45,45,0,0,0-9.64-1.05c-39.46,0-71.46,51.76-71.46,115.61h19.27C1935.54,393.31,1962.46,344.93,1997.37,337.32Z"/><path class="cls-9" d="M2711,1556.78s-29.19-34.06-1.8-55.69c0,0,20-12.11,36.32-11.12,0,0-23.12,38.76-15.64,42.61s22.64-45,22.64-45,45.53-4.41,60.17,2.63c0,0-38.91,31.85-30.72,33.75s50.24-29.37,50.24-29.37,42.37,7.21,40.11,33.06-16.86,33.83-23.28,33.14-43.95-15-44.77-9.75,21.78,22.44,37.6,23.24c0,0-29.87,33-49.73,23.44s-21.54-24.58-33.92-30.24-22.94-5.63-17.83.13,27.51,11.37,34.58,23.89,13.43,21-7.11,17.87-53.93-18.12-55.4-35.33Z"/><path class="cls-9" d="M2851.46,1528.3s-115.09-4.44-140.5,28.48c0,0-5.62,16.83-22.92,32.16l-2.7,7.35s19.95-21,27.08-22.3C2712.42,1574,2701.26,1533.21,2851.46,1528.3Z"/><path class="cls-9" d="M2688,1588.94s-24.7,18.27-26.42,50.91l4.49.4s7.89-33.75,22.14-47S2688,1588.94,2688,1588.94Z"/><path class="cls-9" d="M2608.9,1514s46.44-26,24.77-61.29c0,0-17.34-21.67-35.91-27.24,0,0,9.91,52.62,0,53.86s-6.81-59.43-6.81-59.43-48.91-23.53-68.1-21.67c0,0,30.34,51.39,20.43,50.15s-44-53.24-44-53.24-50.14-9.29-58.19,20.43,4.95,44.57,12.38,46.43,55.1,1.24,53.86,7.43-33.43,16.09-51.38,10.52c0,0,19.81,48.91,45.81,46.43s34-18.57,50.15-19.81,27.86,3.1,19.81,7.43-35.29,1.42-48.29,12.47-23.53,17.87.62,22.82,67.48,1.86,76.15-16.72Z"/><path class="cls-9" d="M2464,1424.8s130,42.1,144.86,89.15c0,0-.61,21,12.39,45.2v9.28s-13.62-31.57-21.05-35.91C2600.24,1532.52,2629.33,1491.66,2464,1424.8Z"/><path class="cls-9" d="M2621.29,1559.15s20,30.44,8.62,67.5l-5.16-1.38s5-40.82-5.49-61.35S2621.29,1559.15,2621.29,1559.15Z"/><path class="cls-6" d="M2682.77,1478.09s-61.2-34.27-32.64-80.79c0,0,22.85-28.56,47.33-35.91,0,0-13.05,69.37,0,71s9-78.34,9-78.34,64.47-31,89.77-28.56c0,0-40,67.73-26.93,66.1s57.94-70.18,57.94-70.18,66.1-12.25,76.71,26.93-6.53,58.75-16.32,61.2-72.63,1.63-71,9.79,44.07,21.22,67.73,13.88c0,0-26.11,64.47-60.38,61.2s-44.89-24.48-66.11-26.11-36.72,4.08-26.11,9.79,46.51,1.87,63.65,16.44,31,23.55-.81,30.08-89,2.45-100.38-22Z"/><path class="cls-6" d="M2873.74,1360.58s-171.38,55.49-191,117.51c0,0,.82,27.75-16.32,59.58v12.24s18-41.62,27.75-47.34C2694.2,1502.57,2655.84,1448.71,2873.74,1360.58Z"/><path class="cls-6" d="M2666.45,1537.67s-26.43,40.13-11.36,89l6.8-1.82s-6.6-53.81,7.23-80.88S2666.45,1537.67,2666.45,1537.67Z"/><path class="cls-6" d="M2680.71,1732.6a119.89,119.89,0,0,0,119.89-119.9H2560.82A119.9,119.9,0,0,0,2680.71,1732.6Z"/><path class="cls-4" d="M2710.21,1731.68a120,120,0,0,1-134.78-119h29.79A119.91,119.91,0,0,0,2710.21,1731.68Z"/><rect class="cls-6" x="2556.88" y="1612.7" width="246.45" height="3.68"/><path class="cls-9" d="M2122.56,1726.7l-117.81-489,8.23-19.25,116.71,508.18a2.07,2.07,0,0,1-2,2.54h-2A3.25,3.25,0,0,1,2122.56,1726.7Z"/><path class="cls-9" d="M1590.87,1729.19h0a3.92,3.92,0,0,1-3.87-4.56l34.7-210.32h14.87l-41.38,211.33A4.4,4.4,0,0,1,1590.87,1729.19Z"/><path class="cls-9" d="M1923.73,1729.19h0a3.92,3.92,0,0,1-3.87-4.56l34.7-210.32h14.87l-41.38,211.33A4.39,4.39,0,0,1,1923.73,1729.19Z"/><polygon class="cls-10" points="2004.44 1514.75 1590.04 1514.75 1675.89 976.5 2090.3 976.5 2004.44 1514.75"/><rect class="cls-9" x="1559.51" y="1510.65" width="475.94" height="15.83"/><path class="cls-11" d="M1840,1089.12a87.58,87.58,0,0,1-1.86,12.53c-8.64,38.47-42.89,67.94-81.6,68-42.82.07-74.89-35.87-71.62-80.27s40.64-80.46,83.46-80.54a72.14,72.14,0,0,1,25.29,4.46,69.4,69.4,0,0,1,28.4,19.68,72.3,72.3,0,0,1,7.77,10.83,70.16,70.16,0,0,1,3.6,7,76.25,76.25,0,0,1,6.09,21.52,81.45,81.45,0,0,1,.69,11.77C1840.2,1085.73,1840.13,1087.42,1840,1089.12Z"/><path class="cls-1" d="M1833.45,1050.77l-71,38.48s29.29-51.57,41.31-71.25a69.85,69.85,0,0,1,18.3,15,72.3,72.3,0,0,1,7.77,10.83A70.16,70.16,0,0,1,1833.45,1050.77Z"/><path class="cls-12" d="M1840.82,1041,1776,1076.19s26.75-47.11,37.73-65.09a63.69,63.69,0,0,1,16.72,13.7,66.67,66.67,0,0,1,10.38,16.24Z"/><path class="cls-11" d="M1971.44,1473.84l-341.09,0,34.53-196.8,341.1,0Zm-338.33-2,336.27,0L2003.22,1279,1667,1279Z"/><path class="cls-12" d="M1951.1,1446.85l-302.5,0s53.66-28.78,68.38-27.27,35.87,13.16,49.48,13.61,28.33-40.39,43.48-38.46,20.84,38,28.68,34.52,31.39-5.06,45,0,33.32-16.08,45.24-15.41S1951.1,1446.85,1951.1,1446.85Z"/><polygon class="cls-12" points="1721.34 1389.01 1663.56 1389 1664.1 1385.94 1721.87 1385.94 1721.34 1389.01"/><polygon class="cls-12" points="1720.19 1395.55 1662.41 1395.55 1662.95 1392.48 1720.73 1392.49 1720.19 1395.55"/><path class="cls-11" d="M1665.91,1348.18l302.5,0s-43.56-28.78-58.81-27.28-40.49,13.16-54.25,13.61-14.16-40.4-30-38.47-34.2,38-40.8,34.52-29.61-5.07-45,0-27.67-16.08-39.83-15.42S1665.91,1348.18,1665.91,1348.18Z"/><polygon class="cls-11" points="1737.66 1295.98 1679.88 1295.98 1680.42 1292.92 1738.2 1292.92 1737.66 1295.98"/><polygon class="cls-11" points="1736.51 1302.53 1678.73 1302.53 1679.27 1299.46 1737.05 1299.46 1736.51 1302.53"/><polygon class="cls-11" points="1685.52 1249.56 1672.25 1249.56 1683.78 1187.39 1697.05 1187.39 1685.52 1249.56"/><polygon class="cls-11" points="1703.59 1249.56 1690.32 1249.56 1699.26 1201.4 1712.52 1201.4 1703.59 1249.56"/><polygon class="cls-11" points="1721.67 1249.56 1708.4 1249.56 1717.71 1199.34 1730.98 1199.34 1721.67 1249.56"/><polygon class="cls-11" points="1739.74 1249.56 1726.47 1249.56 1733.56 1211.36 1746.83 1211.36 1739.74 1249.56"/><polygon class="cls-11" points="1757.82 1249.56 1744.55 1249.56 1752.15 1208.58 1765.42 1208.58 1757.82 1249.56"/><polygon class="cls-11" points="1775.89 1249.56 1762.62 1249.56 1768.52 1217.78 1781.78 1217.78 1775.89 1249.56"/><polygon class="cls-12" points="1863.01 1249.56 1849.74 1249.56 1861.27 1187.39 1874.54 1187.39 1863.01 1249.56"/><polygon class="cls-12" points="1881.08 1249.56 1867.82 1249.56 1876.75 1201.4 1890.02 1201.4 1881.08 1249.56"/><polygon class="cls-12" points="1899.16 1249.56 1885.89 1249.56 1895.2 1199.34 1908.47 1199.34 1899.16 1249.56"/><polygon class="cls-12" points="1917.23 1249.56 1903.96 1249.56 1911.05 1211.36 1924.32 1211.36 1917.23 1249.56"/><polygon class="cls-12" points="1935.31 1249.56 1922.04 1249.56 1929.64 1208.58 1942.91 1208.58 1935.31 1249.56"/><polygon class="cls-12" points="1953.38 1249.56 1940.11 1249.56 1946.01 1217.78 1959.28 1217.78 1953.38 1249.56"/><polygon class="cls-11" points="1926.89 1046.6 1883.7 1046.6 1884.81 1040.68 1928 1040.68 1926.89 1046.6"/><polygon class="cls-11" points="1979.88 1046.6 1932.18 1046.6 1933.3 1040.68 1980.99 1040.68 1979.88 1046.6"/><polygon class="cls-11" points="2013.87 1046.6 1983.46 1046.6 1984.57 1040.68 2014.98 1040.68 2013.87 1046.6"/><polygon class="cls-11" points="2042.25 1046.6 2018.79 1046.6 2019.9 1040.68 2043.36 1040.68 2042.25 1046.6"/><polygon class="cls-11" points="1922.15 1071.85 1878.96 1071.85 1880.07 1065.93 1923.26 1065.93 1922.15 1071.85"/><polygon class="cls-11" points="1975.13 1071.85 1927.44 1071.85 1928.56 1065.93 1976.25 1065.93 1975.13 1071.85"/><polygon class="cls-11" points="2009.13 1071.85 1978.72 1071.85 1979.83 1065.93 2010.24 1065.93 2009.13 1071.85"/><polygon class="cls-11" points="2037.51 1071.85 2014.05 1071.85 2015.16 1065.93 2038.62 1065.93 2037.51 1071.85"/><polygon class="cls-11" points="1952.56 1032.8 1886.29 1032.8 1887.4 1026.88 1953.67 1026.88 1952.56 1032.8"/><polygon class="cls-11" points="1997.07 1032.8 1958.87 1032.8 1959.98 1026.88 1998.18 1026.88 1997.07 1032.8"/><polygon class="cls-11" points="2044.88 1032.8 2002.46 1032.8 2003.57 1026.88 2045.99 1026.88 2044.88 1032.8"/><polygon class="cls-11" points="1947.52 1059.64 1881.25 1059.64 1882.36 1053.72 1948.63 1053.72 1947.52 1059.64"/><polygon class="cls-11" points="1992.03 1059.64 1953.83 1059.64 1954.94 1053.72 1993.14 1053.72 1992.03 1059.64"/><polygon class="cls-11" points="2039.84 1059.64 1997.42 1059.64 1998.53 1053.72 2040.95 1053.72 2039.84 1059.64"/><polygon class="cls-11" points="1917.41 1097.09 1874.22 1097.09 1875.33 1091.17 1918.52 1091.17 1917.41 1097.09"/><polygon class="cls-11" points="1970.39 1097.09 1922.7 1097.09 1923.82 1091.17 1971.51 1091.17 1970.39 1097.09"/><polygon class="cls-11" points="2004.39 1097.09 1973.98 1097.09 1975.09 1091.17 2005.5 1091.17 2004.39 1097.09"/><polygon class="cls-11" points="2032.77 1097.09 2009.31 1097.09 2010.42 1091.17 2033.88 1091.17 2032.77 1097.09"/><polygon class="cls-11" points="1942.78 1084.88 1876.51 1084.88 1877.62 1078.97 1943.89 1078.97 1942.78 1084.88"/><polygon class="cls-11" points="1987.29 1084.88 1949.09 1084.88 1950.2 1078.97 1988.4 1078.97 1987.29 1084.88"/><polygon class="cls-11" points="2035.1 1084.88 1992.67 1084.88 1993.79 1078.97 2036.21 1078.97 2035.1 1084.88"/><polygon class="cls-11" points="1912.97 1120.76 1869.77 1120.76 1870.88 1114.84 1914.08 1114.84 1912.97 1120.76"/><polygon class="cls-11" points="1965.95 1120.76 1918.26 1120.76 1919.37 1114.84 1967.06 1114.84 1965.95 1120.76"/><polygon class="cls-11" points="1999.94 1120.76 1969.54 1120.76 1970.65 1114.84 2001.05 1114.84 1999.94 1120.76"/><polygon class="cls-11" points="2028.33 1120.76 2004.87 1120.76 2005.98 1114.84 2029.44 1114.84 2028.33 1120.76"/><polygon class="cls-11" points="1938.33 1108.55 1872.07 1108.55 1873.18 1102.63 1939.44 1102.63 1938.33 1108.55"/><polygon class="cls-11" points="1982.84 1108.55 1944.64 1108.55 1945.76 1102.63 1983.95 1102.63 1982.84 1108.55"/><polygon class="cls-11" points="2030.65 1108.55 1988.23 1108.55 1989.34 1102.63 2031.76 1102.63 2030.65 1108.55"/><polygon class="cls-11" points="1814.67 1196.63 1793.53 1196.63 1794.08 1193.74 1815.22 1193.74 1814.67 1196.63"/><polygon class="cls-11" points="1840.61 1196.63 1817.27 1196.63 1817.81 1193.74 1841.15 1193.74 1840.61 1196.63"/><polygon class="cls-11" points="1812.35 1208.99 1791.21 1208.99 1791.76 1206.1 1812.9 1206.1 1812.35 1208.99"/><polygon class="cls-11" points="1838.29 1208.99 1814.94 1208.99 1815.49 1206.1 1838.83 1206.1 1838.29 1208.99"/><polygon class="cls-11" points="1827.24 1189.88 1794.8 1189.88 1795.35 1186.98 1827.78 1186.98 1827.24 1189.88"/><polygon class="cls-11" points="1849.02 1189.88 1830.33 1189.88 1830.87 1186.98 1849.57 1186.98 1849.02 1189.88"/><polygon class="cls-11" points="1824.77 1203.02 1792.34 1203.02 1792.88 1200.12 1825.32 1200.12 1824.77 1203.02"/><polygon class="cls-11" points="1846.56 1203.02 1827.86 1203.02 1828.4 1200.12 1847.1 1200.12 1846.56 1203.02"/><polygon class="cls-11" points="1984.02 1196.63 1962.88 1196.63 1963.43 1193.74 1984.57 1193.74 1984.02 1196.63"/><polygon class="cls-11" points="2009.96 1196.63 1986.61 1196.63 1987.16 1193.74 2010.5 1193.74 2009.96 1196.63"/><polygon class="cls-11" points="1981.7 1208.99 1960.56 1208.99 1961.11 1206.1 1982.25 1206.1 1981.7 1208.99"/><polygon class="cls-11" points="2007.64 1208.99 1984.29 1208.99 1984.84 1206.1 2008.18 1206.1 2007.64 1208.99"/><polygon class="cls-11" points="1996.59 1189.88 1964.15 1189.88 1964.69 1186.98 1997.13 1186.98 1996.59 1189.88"/><polygon class="cls-11" points="2018.37 1189.88 1999.68 1189.88 2000.22 1186.98 2018.92 1186.98 2018.37 1189.88"/><polygon class="cls-11" points="1994.12 1203.02 1961.68 1203.02 1962.23 1200.12 1994.66 1200.12 1994.12 1203.02"/><polygon class="cls-11" points="2015.9 1203.02 1997.21 1203.02 1997.75 1200.12 2016.45 1200.12 2015.9 1203.02"/><path class="cls-13" d="M2096.5,1721.21c-.75,10.12-15,10.23-31.22,8.35s-11.89,2.22-34.57,2.53-30.5-7.18-31.6-10.42c-1-2.87,10-5.29,21.63-8.14,1.47-.35,3-.72,4.42-1.1,13.18-3.35,21.91-13.21,33.18-21.82,10.68-8.16,24.45-37.68,24.45-37.68l31-1.4s-13,26.47-17.94,37.87c-2.89,6.72-1.66,15-.41,21.29A39.94,39.94,0,0,1,2096.5,1721.21Z"/><path class="cls-14" d="M2065.28,1729.56c-16.2-1.88-11.89,2.22-34.57,2.53s-30.5-7.18-31.6-10.42c-1-2.87,10-5.29,21.63-8.14l.14.22a63.67,63.67,0,0,0,33.28,6c15.23-1.53,30.76-7.88,41.26-9a39.94,39.94,0,0,1,1.08,10.52C2095.75,1731.33,2081.48,1731.44,2065.28,1729.56Z"/><path class="cls-13" d="M2310.48,1723.31c-.73,10.12-15,10.24-31.21,8.38s-11.89,2.23-34.57,2.57-30.5-7.15-31.6-10.39c-1-2.88,9.94-5.31,21.62-8.16l4.42-1.1c13.17-3.37,21.89-13.24,33.15-21.86,10.67-8.17,0-56.53,0-56.53l34.08-3.31s-1.63,40.71-1.61,59.22c0,7.31,3.37,14.33,4.63,20.66A39.94,39.94,0,0,1,2310.48,1723.31Z"/><path class="cls-14" d="M2279.27,1731.69c-16.2-1.86-11.89,2.23-34.57,2.57s-30.5-7.15-31.6-10.39c-1-2.88,9.94-5.31,21.62-8.16l.14.21a63.62,63.62,0,0,0,33.29,5.93c15.22-1.54,30.74-7.91,41.25-9.06a39.94,39.94,0,0,1,1.08,10.52C2309.75,1733.43,2295.47,1733.55,2279.27,1731.69Z"/><path class="cls-15" d="M2211,887.55c-5.87-24.13,2.63-35.36,10.31-41.35,3.64-8.88,7.79-15.28,12-17.69,7.74-4.41,17-4.89,23.51-4.5-1.67-1.73-5-2.36-5-2.36,4-.59,13,3.4,13,3.4,56-21.58,64.79,60.87,63.62,80s-1,41.71,28.12,56.8c55.58,28.8-18.48,137.32-18.48,137.32,1.42-15.48-70-97.17-107.27-121.64-9.07-13.35-12.29-36.94-12.53-38.8,1.56,18.71,4.76,29.2,7.62,35.11C2209.05,958.24,2206.53,920.7,2211,887.55Z"/><path class="cls-13" d="M2233.15,978.78c-.19.09,18,9.53,31.66,5.78,12.86-3.5,21.27-20.18,21.09-20.22-5.45-1.08-7-8.56-6.9-40.73l-2.46.49-41.41,8.2s.95,13,1,25.3C2236.13,967.91,2235.51,977.68,2233.15,978.78Z"/><path class="cls-16" d="M2235.13,932.3s.95,13,1,25.3c23.17-.65,35.42-21.79,40.44-33.5Z"/><path class="cls-17" d="M2066.68,1669.34a10.16,10.16,0,0,0,9.21,13.23l16.17.76,17.12.52a13.73,13.73,0,0,0,11.07-5.06c13.66-16.75,55.71-72.61,81.22-153.76.72-2.28,1.47-4.58,2.27-6.91,16.85-49.12,51.77-110.77,70.17-166.57,2.93-8.89,5.56-17.26,7.92-25.17.75-2.54,1.49-5,2.19-7.48,13.56-47.12,17.49-78.06,21.11-111.12l-132.88,1.07S2144.27,1426.28,2066.68,1669.34Z"/><path class="cls-1" d="M2190.85,1132.49c.33,63.24-9.28,90.36-9.28,90.36s56.9,28.91,124.52,7.63c.79-.25,48.37-13.72,48.37-13.72-1.13-2.56-10.53-44.87-11.63-47.22-14.28-30.66-18.17-43.53-19.86-53-3.14-17.6-3.21-35.81-1.65-53a425.23,425.23,0,0,1,16.4-83.19c-18.42-4.2-35.68-11.56-54.85-18.75-4.41,5.49-17.9,11.24-29.6,11-13.47-.29-17.83-6.06-17.14-12.35-14.35,8-25.8,15.53-25.8,15.53-12.2,21.19-36.94,41.77-38.74,74.27C2171.15,1058.08,2190.84,1130.72,2190.85,1132.49Z"/><path class="cls-18" d="M2305.13,1139.54c5.81,8.22,16.94,58.19,44.65,64.47-14.28-35.61-25.12-51.23-26.81-62.18-3.14-20.43-3.21-41.58-1.65-61.53-9.27-16.26-16.19-27.4-16.19-27.4-.73-2.63-14.74-46-19.23-7.23S2298.64,1130.35,2305.13,1139.54Z"/><path class="cls-13" d="M2227.4,943.92s54.81.9,54.85-33.24,7.14-57-27.86-59-41.81,11-44.59,22.4S2213.14,942.8,2227.4,943.92Z"/><path class="cls-15" d="M2229.43,850.8s15,40.06,38,46,33-.25,33-.25-17.67-14-21.33-38.53C2279.16,858,2240.75,831.73,2229.43,850.8Z"/><path class="cls-15" d="M2233.15,854.05s-11.21,8.94-13.94,17.64-4,26.59-9.18,26c0,0-11.31-27.22,1.4-42.63C2224.9,838.71,2233.15,854.05,2233.15,854.05Z"/><polygon class="cls-13" points="2141.15 1176.38 2115.26 1255.32 2130.02 1261.24 2172.83 1191.5 2141.15 1176.38"/><path class="cls-12" d="M2211,971.17s-30.53,12.11-39.36,31-22.22,145.57-27.54,158.58-9.34,23.31-9.34,23.31,15.39,13,30.87,13.92S2211,971.17,2211,971.17Z"/><path class="cls-12" d="M2236.13,960.29s-31.71,78.34-32.64,94.2-3.73,259.29-3.73,259.29,1.86,11.19-19.59,6.52-27.05-9.32-27.05-9.32,20.52-150.16,14.93-202.4S2211,971.17,2211,971.17Z"/><path class="cls-19" d="M2092.06,1683.33l18.58.56a10.69,10.69,0,0,0,8.62-3.89c12.49-15.12,56-71.74,82.21-155,.72-2.28,1.47-4.58,2.27-6.91,16.85-49.12,51.77-110.77,70.17-166.57,2.93-8.89,5.56-17.26,7.92-25.17.75-2.54,1.49-5,2.19-7.48l-19.57-14.85s-58.75,95.13-76.94,184.66C2171.71,1566.48,2108.44,1660.05,2092.06,1683.33Z"/><path class="cls-17" d="M2262.41,1497.05c-.32,41.19,1.63,133,6.65,177.87a8.11,8.11,0,0,0,8.06,7.2H2291c5.84,0,10.21,0,13.12-.08a5.33,5.33,0,0,0,5.14-4.31c13.79-70.16,23.66-128.45,30.88-178.82,6-42.15,11.42-78.3,15.55-109.41,4.16-31.31,7.05-57.53,8.08-79.68q.24-5.23.35-10.18c.06-3.31.08-6.52.06-9.65l-114.82-11.19C2250.8,1355.08,2262.6,1471.74,2262.41,1497.05Z"/><path class="cls-19" d="M2291,1682.12q7.88,0,12.18-.07a6.48,6.48,0,0,0,6.26-5.22c13.69-69.76,23.51-127.77,30.7-177.92,6-42.15,11.42-78.3,15.55-109.41,4.16-31.31,7.05-57.53,8.08-79.68l-42.13,24.78s26.89,9.49,16.63,81.3S2305.27,1672,2291,1682.12Z"/><path class="cls-12" d="M2285.56,1309.11s8.09,29.22,36.07,25.49,67.77-20.52,67.77-20.52-12-37.78-26.82-87.42c-18-60.09-40.29-137.56-50.79-186.42-2.95-13.7-5-25.13-5.71-33.32l-23.21-45s-34.61,77.69-36.48,97.27S2285.56,1309.11,2285.56,1309.11Z"/><path class="cls-13" d="M2313.5,1056.23l-30.63-94.35c.08,0,38.69,11.49,58.12,21.3,0,0,12.14,15.66,19.65,51.77,0,0,7.93,86.69-9.79,118.4,0,0-56,11.2-145.5-19.58v-20.52s97.94,5.13,118,7.46Z"/><path class="cls-20" d="M2286.8,1100.19c1.25,31.71,8.72,93.27,75.24,126.22.18.09.36.18.54.25-18-60.09-40.29-137.56-50.79-186.42C2299.57,1058.5,2286.12,1082.73,2286.8,1100.19Z"/><path class="cls-12" d="M2282.87,961.88s56.79,4,70.47,34.47,18,131.82.62,161.67c0,0-24,6.82-66.36-1.1l-1.57-.3s-13.52-33.11-1.4-39.64c0,0,35.75,1.86,32-10S2282.87,961.88,2282.87,961.88Z"/><path class="cls-15" d="M2140.47,1125.93l1.67,5.37,93.19-29a3.54,3.54,0,0,0,.63-3.29,2.62,2.62,0,0,0-2.3-2.08Z"/><polygon class="cls-15" points="2133.73 1131.01 2140.47 1125.93 2142.14 1131.3 2133.73 1131.01"/><path class="cls-13" d="M2118.94,1253.16s-23.65,13.06-26.76,23-1,30.79,2.78,30.48,9.36-22.4,12.47-24,7.46-6.22,7.46-2.8-3.11,9.64-1.55,10.58,6.53-8.71,9.95-10.58,4.86-17.25,8.18-21.38S2118.94,1253.16,2118.94,1253.16Z"/><path class="cls-13" d="M2205.35,1113.25s-21.14-13-30-11-31.47,18.37-20.6,21.92,19.68-.17,23.86,2.4,7.27,7.28,26.75,7.22S2205.35,1113.25,2205.35,1113.25Z"/><g class="cls-21"><path class="cls-9" d="M1181.41,1729.16h-.35a3.65,3.65,0,0,1-3.66-3.74l5.55-240.61,16.35-1.91-13.94,242.53A4,4,0,0,1,1181.41,1729.16Z"/><path class="cls-9" d="M1086.12,1729.16h-.35a3.65,3.65,0,0,1-3.66-3.74l5.55-240.61,16.35-1.91-13.94,242.53A4,4,0,0,1,1086.12,1729.16Z"/><path class="cls-9" d="M1349.06,1729.16h.35a3.65,3.65,0,0,0,3.66-3.74l-5.55-240.61-16.35-1.91,13.94,242.53A4,4,0,0,0,1349.06,1729.16Z"/><path class="cls-9" d="M1075.28,1469.89V1305a52.53,52.53,0,0,1,52.53-52.53H1246.6a52.53,52.53,0,0,1,52.53,52.53v171.17Z"/><path class="cls-9" d="M1075.28,1469.89h245.13a0,0,0,0,1,0,0v26a0,0,0,0,1,0,0H1091.06a15.77,15.77,0,0,1-15.77-15.77v-10.26A0,0,0,0,1,1075.28,1469.89Z"/><rect class="cls-9" x="1162.72" y="1469.89" width="196.84" height="26.03" rx="11.66"/></g><path class="cls-13" d="M1477.71,1633.22c1.66,8.29,13.47,6.91,26.67,3.68s10.06.61,28.84-1.47,24.48-9.08,25-11.87c.51-2.48-8.77-3.35-18.72-4.5-1.26-.14-2.51-.3-3.77-.45-11.24-1.41-19.47-8.66-29.68-14.62-9.67-5.64-24.1-28.63-24.1-28.63l-25.76,2s13.52,20.53,18.75,29.46c3.07,5.25,2.91,12.19,2.53,17.55A33.34,33.34,0,0,0,1477.71,1633.22Z"/><path class="cls-14" d="M1504.38,1636.9c13.2-3.22,10.06.61,28.84-1.47s24.48-9.08,25-11.87c.51-2.48-8.77-3.35-18.72-4.5l-.1.19a52.88,52.88,0,0,1-26.89,8.36c-12.75.31-26.24-3.34-35-3.2a33.34,33.34,0,0,0,.19,8.81C1479.37,1641.51,1491.18,1640.13,1504.38,1636.9Z"/><path class="cls-13" d="M1256.35,1670.29c-5.12,6.73,3.73,14.67,14.88,22.43s6.2,8,20.18,20.66,23,12.35,25.48,10.93c2.2-1.26-3.29-8.79-9-17-.73-1-1.44-2.08-2.16-3.12-6.38-9.36-6.38-20.33-8.67-31.93-2.16-11,15.77-51.35,15.77-51.35l-28.81-3.63s-3.77,24.38-7,34.21c-1.91,5.78-9.91,9.59-14.18,12.84A33.11,33.11,0,0,0,1256.35,1670.29Z"/><path class="cls-14" d="M1271.23,1692.72c11.15,7.77,6.2,8,20.18,20.66s23,12.35,25.48,10.93c2.2-1.26-3.29-8.79-9-17l-.21.06a53,53,0,0,1-24.06-14.64c-8.66-9.35-14.86-21.89-20.78-28.4a33.11,33.11,0,0,0-6.48,6C1251.23,1677,1260.08,1685,1271.23,1692.72Z"/><path class="cls-22" d="M1374,1463.92l-26.32,70.82-34.36,92.47a55.62,55.62,0,0,1-18.25-1.67c-8.22-2.38-17.65-8.59-17.65-8.59s9.54-99.29,27.34-156.28c4.56-14.63,9.67-26.46,15.31-33.13C1347.69,1394.94,1374,1463.92,1374,1463.92Z"/><path class="cls-17" d="M1347.27,1351.45c-17.24-5.56-69.2-2.24-118.59,7.43l-7.57-13.24-106.7-8.33s-35.21,78.08-15.93,127.83c2.83,7.31,8.46,12,18.06,12.16h1.56l84.12,0c53.07,0,112.3-36.48,120-38,12.54-2.51,17.56,22.58,30.1,48.92s117.9,116.65,117.9,116.65,16.2.16,22.89-2.35c7.19-2.7,9.82-6.2,9.82-6.2S1386.16,1364,1347.27,1351.45Z"/><path class="cls-14" d="M1183.74,1022.67c-15-3.58-35.41.62-38.79,1-40.52,4.73-49.58,67.68-46.57,85.28,5.56,32.45-10,41.59-28.63,67.54-37.28,52-11.53,94.88,18.83,105.5,18.21,6.37,43-11,43-11,.46.17,64.43-60.9,96.08-90.57C1280.87,1158.53,1222,1031.78,1183.74,1022.67Z"/><path class="cls-13" d="M1192.42,1171.07c.19.06-16.5,11-30.1,8.67-12.79-2.15-26.33-18.84-26.16-18.9,5.17-1.57,9.74-7.61,6.51-38.74l2.43.23,40.89,3.92s.35,12.71,1.51,24.6C1188.47,1160.83,1190,1170.23,1192.42,1171.07Z"/><path class="cls-16" d="M1186,1126.25s.35,12.71,1.51,24.6c-22.49,1.61-36.4-17.66-42.4-28.52Z"/><path class="cls-13" d="M1194.6,1136.76s-53,6.19-56.33-26.87-12.44-54.52,21.25-59.87,41.55,6.6,45.35,17.36S1208.3,1134.29,1194.6,1136.76Z"/><path class="cls-14" d="M1198.55,1050.4S1173,1087,1151.24,1095s-32,3-32,3a89.94,89.94,0,0,0,13.78-33.9,16.21,16.21,0,0,1,10.57-12.55C1159.17,1046.07,1189.21,1037.74,1198.55,1050.4Z"/><path class="cls-14" d="M1177.4,1053.1s13.68,7.81,19.14,14.8c5.27,6.74,10.91,24.65,10.09,32.54,0,0,8.62-37.6-5.18-51.28C1186.82,1034.65,1177.4,1053.1,1177.4,1053.1Z"/><path class="cls-1" d="M1233.16,1258.77c-1.6,107-.44,84.67-12.15,94.82-2.82,2.45-10.75,3.9-21.19,4.59-32.81,2.18-90.5-3.23-92.7-9.29-7.57-21-2.22-27.51-8.54-59.63-.66-3.42-1.47-7.12-2.43-11.15-5.26-22.06-10.39-29.57,8.29-65,17-32.11,35.24-57.76,36.82-56.82,44.7,26.53,47.61,3.82,47.61,3.82S1233.94,1206.57,1233.16,1258.77Z"/><path class="cls-17" d="M1347.71,1534.74l-35.14,96.32s-12.62,4.11-21.82,2.78a27.38,27.38,0,0,1-14.5-6.48s10.74-109.7,28.54-166.69Z"/><path class="cls-1" d="M1188.87,1160.08s46,7.8,51.39,27.6,44.9,128.92,44.9,128.92-31.09,11.49-41.9.69-37.58-100.21-37.58-100.21Z"/><path class="cls-23" d="M1199.82,1358.18c-32.81,2.18-90.5-3.23-92.7-9.29-7.57-21-2.22-27.51-8.54-59.63l15.4-35s-2.19,40.11,12.45,53.16,59.93,25.2,67,36.11C1196.91,1348.72,1199.17,1354,1199.82,1358.18Z"/><path class="cls-13" d="M1202.5,1335.34s9.77,8.43,12.55,9.12a7.77,7.77,0,0,0,4.36,0l-7.12-8.34Z"/><path class="cls-13" d="M1198.62,1325.41l24.75,6.39s-.64,1.76-3.44,2.19-10.32-.71-10.32-.71Z"/><path class="cls-13" d="M1156.66,1339.05s35.33-15.72,42-13.64,23.64,11.08,26.31,14.87-13.93-.47-19.11-.79c-3.36-.21-11.15,4.39-15,6.62-16.28,9.35-27.58,8.51-27.58,8.51Z"/><path class="cls-1" d="M1141.26,1156.27s-50,9.38-59.24,23.23c-20.2,30.23-63.21,155.47-39.13,172.26,27.13,18.92,123.45,5,123.45,5s3.2-15-1.25-22.23-76.94-19-80.28-22.3,33-51.71,29.17-61C1101.56,1221.56,1141.26,1156.27,1141.26,1156.27Z"/><path class="cls-13" d="M1338.85,1333.71s35,9.45,38.57,14.88,10.64,22,10.34,26.36-9.85-8.57-13.42-11.87c-2.32-2.14-10.71-3.39-14.84-4.06-10.39-1.69-15.41-6.45-19.3-8.82a10.57,10.57,0,0,0-5.79-1.29Z"/><path class="cls-13" d="M1374.37,1358.1s2.12,11.91,3.74,14a7.32,7.32,0,0,0,3.15,2.62l-.25-10.28Z"/><path class="cls-13" d="M1377.42,1348.59l14.23,19.27s-1.51.9-3.81-.44-7.08-6.61-7.08-6.61Z"/><path class="cls-13" d="M1340.2,1350.2s3.24,7.87,9.71,10.69,11.23,7.07,12.27,5.54-4.9-9.55-4.9-9.55Z"/><path class="cls-1" d="M1275.87,1290.8l73.57,46.51s-7.73,10.33-10.31,11.28c-13.62,5-74.88.21-95.87-31.3Z"/><path class="cls-24" d="M1246.72,1341.34c4.34,0,47.52-3,47.52-3s-1.25,7.65,1.42,11.75l-42.07,8.05-8.65-2.54Z"/><path class="cls-12" d="M1174.7,1348.28l72-6.94s-2.53,13.33,6.87,16.81l-79.4,5.81S1167.79,1355,1174.7,1348.28Z"/><path class="cls-12" d="M1294.12,1339.3l-48.67,3.75s.36-1.68,1.27-1.71,48.35-3.46,48.35-3.46l-.17,1.33Z"/><polygon class="cls-12" points="1253.59 1358.15 1296.45 1350 1296.06 1348.89 1250.37 1357.64 1253.59 1358.15"/><path class="cls-9" d="M754.77,1728.78h-.39a4.08,4.08,0,0,1-4.06-4.18l6.16-268.66,18.15-2.13-15.48,270.81A4.4,4.4,0,0,1,754.77,1728.78Z"/><path class="cls-9" d="M649,1728.78h-.39a4.08,4.08,0,0,1-4.06-4.18l6.16-268.66,18.15-2.13-15.48,270.81A4.4,4.4,0,0,1,649,1728.78Z"/><path class="cls-9" d="M940.88,1728.78h.39a4.09,4.09,0,0,0,4.07-4.18l-6.17-268.66L921,1453.81l15.48,270.81A4.4,4.4,0,0,0,940.88,1728.78Z"/><path class="cls-9" d="M637,1439.28v-184.1a58.48,58.48,0,0,1,58.31-58.65H827.14a58.48,58.48,0,0,1,58.31,58.65v191.13Z"/><path class="cls-9" d="M637,1439.28H909.08a0,0,0,0,1,0,0v29.06a0,0,0,0,1,0,0H654.52A17.56,17.56,0,0,1,637,1450.78v-11.5A0,0,0,0,1,637,1439.28Z"/><rect class="cls-9" x="734.02" y="1439.28" width="218.51" height="29.06" rx="12.98"/><path class="cls-24" d="M836,1128.53s-11,9.39-13.43,33.74c-1.82,18.49,11,162,20.65,173.44,27.16,32.09,61.19,18.53,74.53,23.4l12.57-11.3s-44.22-32.63-47.58-43.28C869.79,1263.54,877.82,1144,836,1128.53Z"/><path class="cls-22" d="M828.08,1011.45s.75-26.32-34-31.49-44.32,2.95-50.22,11.81-17,45-15.86,59.4,40.7,32.18,40.06,40.58S828.08,1011.45,828.08,1011.45Z"/><path class="cls-13" d="M989.11,1706.07c-1.12,8.89,11,11.51,25.12,12.75s9.74,4,29,8.31,27.21-.83,28.7-3.44c1.34-2.32-7.54-6.35-17-10.88-1.19-.56-2.39-1.15-3.58-1.73-10.63-5.23-16.34-15.32-24.44-24.77-7.68-9-14.27-37-14.27-37l-26.13-6.69s6.51,25.23,8.7,36c1.29,6.32-1.19,13.25-3.36,18.51A35.7,35.7,0,0,0,989.11,1706.07Z"/><path class="cls-14" d="M1014.23,1718.82c14.12,1.24,9.74,4,29,8.31s27.21-.83,28.7-3.44c1.34-2.32-7.54-6.35-17-10.88l-.16.16a54.26,54.26,0,0,1-29.36-.72c-12.7-4-24.81-12.27-33.56-15.11a35.7,35.7,0,0,0-2.74,8.93C988,1715,1000.12,1717.58,1014.23,1718.82Z"/><path class="cls-20" d="M793.48,1343.37s174.68,18.12,203.48,44.87,23.66,275.86,23.66,275.86c-4.48,4.65-7.79,4.54-14.87,4-6.8-.54-20.66-6.38-20.66-6.38s-37.41-122.33-37.87-150.65-6.39-76.39-18.27-79.23-153.3,13-168.8-31.64,10.24-81.42,10.24-81.42Z"/><path class="cls-24" d="M711.88,1388.31c7.54,5,21,12.82,43.63,13.63,40.47,1.47,91-3.35,100.9-12.74,2.58-2.42,3.84-6.44,4.2-11.53,1.09-15.53-6.32-41.08-11.31-62.22-3.23-13.73-5.43-25.6-3.63-31.66,5.49-18.47,22.55-56.09,24-68.45s-13.28-78.61-33.68-86.81-99.14,0-99.14,0c-30.76,6.24-32,71.82-21.84,127.64.27,1.44.54,2.87.81,4.28C726.91,1317.13,690.85,1374.22,711.88,1388.31Z"/><path class="cls-13" d="M813.6,1140.59c-.56,3.6-10.4,9.43-31.45,3.89-20.16-5.32-22.58-11.89-22.58-16.22,0-5.14,8.77-12,8.65-43.64l2.42.48,40.66,8.05s-.93,12.79-.95,24.85C810.32,1128.12,814.52,1134.61,813.6,1140.59Z"/><path class="cls-16" d="M811.3,1093.15s-.93,12.79-.95,24.85c-22.76-.64-34.78-21.4-39.71-32.9Z"/><path class="cls-13" d="M818.9,1104.56s-53.83.89-53.87-32.64-7-56,27.36-58,41.06,10.8,43.79,22S832.9,1103.47,818.9,1104.56Z"/><path class="cls-22" d="M816.9,1013.12s-14.73,39.33-37.35,45.15-32.43-.24-32.43-.24,17.35-13.79,21-37.85C768.07,1020.18,805.79,994.39,816.9,1013.12Z"/><path class="cls-22" d="M813.25,1016.31s11,8.78,13.69,17.32,3.89,26.12,9,25.52c0,0,11.1-26.74-1.38-41.86C821.35,1001.25,813.25,1016.31,813.25,1016.31Z"/><path class="cls-13" d="M857.92,1713.38c-.13,9,12.21,10.17,26.37,9.77s10.13,2.88,29.73,4.92,26.94-4,28.14-6.73c1.06-2.45-8.21-5.43-18.1-8.84l-3.74-1.31c-11.15-4-18-13.34-27.05-21.8-8.62-8,10.41-46.78,10.41-46.78l-24.94-12.34s-4.73,27.67-10.82,51.89c-1.57,6.25-6.7,16.56-8.27,22A35.72,35.72,0,0,0,857.92,1713.38Z"/><path class="cls-25" d="M713,1381.64c7.54,5,19.94,19.49,42.55,20.3,37.32-8.49,79.82-18.37,105.1-24.27,1.09-15.53-6.32-41.08-11.31-62.22-29.47,9-73.33-21.66-88.08-33.78-15.49-12.73-15-55.14-15-55.14L715,1256.17c.27,1.44.54,2.87.81,4.28C726.91,1317.13,691.93,1367.55,713,1381.64Z"/><path class="cls-14" d="M884.29,1723.15c14.17-.39,10.13,2.88,29.73,4.92s26.94-4,28.14-6.73c1.06-2.45-8.21-5.43-18.1-8.84l-.14.17a54.33,54.33,0,0,1-29.25,2.67c-13.06-2.53-26-9.33-35-11.15a35.72,35.72,0,0,0-1.73,9.19C857.79,1722.35,870.13,1723.55,884.29,1723.15Z"/><path class="cls-12" d="M755.79,1354c44.35-1.27,176.81,9.31,202.26,28.49,31.32,23.62-58.16,279-58.16,279s-10.39,1-13.68.63c-14.21-1.61-20-5.94-20-5.94s.35-150.31,10.8-179.07c9.66-26.56,15.58-36,3.48-37.55s-163.16,17.68-175.77-27.92c-9.85-35.62,4.7-68.59,4.7-68.59S714.87,1355.19,755.79,1354Z"/><path class="cls-24" d="M736.87,1128.53s-30.8,2.61-33.2,27c-1.82,18.49-15.22,149.64-5.57,161,27.15,32.09,117.7,38.9,131,43.77l3.67-15.18s-96.67-48.7-95.19-59.77S766.42,1124.15,736.87,1128.53Z"/><path class="cls-22" d="M760.66,993.2s2.21-14.05-17.27-17.67-19.85,37.75-21.93,47.73,3.11,16,10.54,16.55S760.66,993.2,760.66,993.2Z"/><path class="cls-13" d="M833.85,1344.46s27.53-7.79,34.09-6,29,16.7,25.86,20.74-22.95-2.42-32.06-1.19-16.15,5.71-22.71,4.74a76,76,0,0,1-13.41-3.55Z"/><path class="cls-13" d="M833.85,1344.46s13.47-6.92,17.3-10.86a1.07,1.07,0,0,1,1.67.2c1,1.62,2,4.74-2.74,7.85C843.28,1346.12,833.85,1344.46,833.85,1344.46Z"/><path class="cls-13" d="M930.33,1347.81s28.57,1.57,34.18,5.42,22,25.21,17.74,28-20.93-9.74-29.94-11.54-17.13.17-23-2.88a75.14,75.14,0,0,1-11.53-7.71Z"/><path class="cls-26" d="M734.08,1731.13H617.85c-5.6-6.83-3.54-32-2.69-40.22.18-1.66.29-2.62.29-2.62s39.7-31.75,45.15-7.44c.16.77.37,1.51.59,2.24,6.87,22.74,37.68,33.08,55.47,36C728.22,1720.92,732.5,1726.93,734.08,1731.13Z"/><path class="cls-14" d="M416.92,1353.44c4.19,0,199.1,36.59,231.34,76.5,16.11,19.94,18.5,250.18,18.5,250.18s-19.92,24.71-63,10.36c0,0-31.55-157.53-29.22-205.31.65-13.21-133.17-1.91-157.66-8.25s-84.34-59.62-71.15-85.57S416.92,1353.44,416.92,1353.44Z"/><path class="cls-13" d="M558,1342.62s12.48,10.76,25.27,13.8c7.3,1.74,14.36,3.72,18.57,5.65,11.57,5.31,33.53,29,31.48,31.38-6.54,7.56-32.91-12.13-38-10.74s8.28,12.83,3,15.94c-2.76,1.63-8-8.26-12.83-9.65-6.58-1.88-11-11.82-12.92-12.5-3.83-1.32-19.85-15.68-19.85-15.68Z"/><path class="cls-27" d="M785.45,1731.13H669.22c-5.59-6.83-3.53-32-2.69-40.22.18-1.66.3-2.62.3-2.62s39.69-31.75,45.14-7.44c.17.77.37,1.51.59,2.24,6.87,22.74,37.68,33.08,55.47,36C779.6,1720.92,783.87,1726.93,785.45,1731.13Z"/><path class="cls-28" d="M474.35,1353.44c4.2,0,199.11,36.59,231.35,76.5,16.1,19.94,18.5,250.18,18.5,250.18s-19.93,24.71-63,10.36c0,0-31.55-157.53-29.22-205.31.64-13.21-133.17-1.91-157.67-8.25S390,1417.3,403.2,1391.35,474.35,1353.44,474.35,1353.44Z"/><path class="cls-13" d="M462.15,1116.58c-14-1.16-28.72-4.9-41.42-9-15.89-5.15-28.69-12.69-20.44-27.2,7.6-13.38,19.91-43.27,19.08-68l29.55,23.82L469,1052.32a239.49,239.49,0,0,1-2.28,26.26c-.4,3-.87,6.33-1.42,9.85a7.16,7.16,0,0,0,3.3,7.19l.45.28C479,1102.17,473.9,1117.55,462.15,1116.58Z"/><path class="cls-16" d="M469,1048.39s1,3.46-.74,16.25c-17.9-2.92-34.63-17.2-34.63-17.2,9.11-2.5,12.43-12.35,19.22-11.43Z"/><path class="cls-13" d="M485.55,1051.3s-68.84,11.44-75.31-31.54-19.7-70.46,24-79.58,54.71,6,60.35,19.82S503.3,1047.22,485.55,1051.3Z"/><path class="cls-28" d="M504.71,941c3,10.35-5,22.95-18.24,27.1-19.71,6.17-15.36,30.35-24.23,30s-12.45-13.9-20.37-3.06c-6.76,9.25,5.62,20.22,4.77,25.29-1.46,8.71-15.1,26.53-27.4,25.63S384,986.65,388.55,968.58s23-37.13,40.42-39.76,41.6,4.89,47.19,4.89S503.11,935.38,504.71,941Z"/><path class="cls-1" d="M521.79,1340.55c-1.16,9.92-3.25,16.67-6.53,18.86-10.26,6.88-23.87,15.42-39.06,23.89-53.85,30-127.58,59-142.58,8.26C316,1332,327.58,1220,344.85,1150.5c9.95-40,37.46-82.08,56-82,31.69.06,77.24,8.42,95.64,53.79,7.12,17.58,17.58,78.49,22.92,134.28C522.65,1289.77,524,1321.19,521.79,1340.55Z"/><path class="cls-23" d="M397.71,1068.85l7.17-16.17s63.62,6.48,74.41,43C479.29,1095.71,430.12,1069.63,397.71,1068.85Z"/><path class="cls-23" d="M521.79,1340.55c-1.16,9.92-3.25,16.67-6.53,18.86-10.26,6.88-23.87,15.42-39.06,23.89-15.85-9.64-48.38-32.63-56-59.72-9.95-35.43-3-79-3-79Z"/><path class="cls-1" d="M410.61,1123.36s5.52,152.25,14.18,182.35c14.76,51.34,149.42,69.62,149.42,69.62s7.94-9,4.39-23.93c0,0-80.5-63.45-82.86-75.53s17.54-93.94-5.19-123.7S425.89,1096.61,410.61,1123.36Z"/><path class="cls-9" d="M241.8,1729.68h-.45a6,6,0,0,1-6.08-6.44l24.19-241.59,21.11,1.88-34.74,242.89A3.93,3.93,0,0,1,241.8,1729.68Z"/><path class="cls-9" d="M366.31,1729.68h-.44a6,6,0,0,1-6.09-6.44L384,1481.64l21.11,1.88-34.74,242.89A3.92,3.92,0,0,1,366.31,1729.68Z"/><path class="cls-9" d="M600.06,1729.68h.45a6,6,0,0,0,6.08-6.44L582.4,1481.64l-21.11,1.88L596,1726.41A3.93,3.93,0,0,0,600.06,1729.68Z"/><path class="cls-9" d="M248.63,1447.42l-23-201.79c-3-29.07,6.72-57.55,48.68-59.75l73.83-4.5c43.75-1.8,63.5,34.61,69,62.65l43.83,221.8Z"/><path class="cls-9" d="M261,1446.5H588.61a12,12,0,0,1,12,12v26.71a0,0,0,0,1,0,0H261a12,12,0,0,1-12-12v-14.74A12,12,0,0,1,261,1446.5Z" transform="translate(849.58 2931.67) rotate(180)"/><path class="cls-9" d="M258.3,1446.5H451.75a9.29,9.29,0,0,1,9.29,9.29v29.38a0,0,0,0,1,0,0H258.3a9.29,9.29,0,0,1-9.29-9.29v-20.08A9.29,9.29,0,0,1,258.3,1446.5Z" transform="translate(710.05 2931.67) rotate(180)"/><rect class="cls-29" x="145.77" y="1728.07" width="2924.73" height="11.98" rx="4.12"/><rect class="cls-9" x="644.92" y="706.07" width="132.36" height="128.41" rx="9.47"/><rect class="cls-23" x="650.66" y="711.64" width="120.89" height="117.28" rx="8.65"/><circle class="cls-9" cx="711.1" cy="723.35" r="2.74"/><path class="cls-9" d="M730.48,727.23a2.74,2.74,0,1,1,1.07,3.73A2.76,2.76,0,0,1,730.48,727.23Z"/><path class="cls-9" d="M749.44,742.29a2.74,2.74,0,1,1-.82,3.79A2.74,2.74,0,0,1,749.44,742.29Z"/><path class="cls-9" d="M758.83,765.59a2.75,2.75,0,1,1-2.75,2.75A2.75,2.75,0,0,1,758.83,765.59Z"/><circle class="cls-9" cx="752.09" cy="794.58" r="2.74"/><path class="cls-9" d="M736.81,809.9a2.74,2.74,0,1,1-3.87,0A2.73,2.73,0,0,1,736.81,809.9Z"/><circle class="cls-9" cx="711.1" cy="818.8" r="2.74"/><path class="cls-9" d="M691.63,727.23a2.74,2.74,0,1,0-1.06,3.73A2.74,2.74,0,0,0,691.63,727.23Z"/><path class="cls-9" d="M672.68,742.29a2.74,2.74,0,1,0,.82,3.79A2.74,2.74,0,0,0,672.68,742.29Z"/><path class="cls-9" d="M663.29,765.59a2.75,2.75,0,1,0,2.74,2.75A2.75,2.75,0,0,0,663.29,765.59Z"/><circle class="cls-9" cx="670.02" cy="794.58" r="2.74"/><path class="cls-9" d="M685.3,809.9a2.74,2.74,0,1,0,3.88,0A2.75,2.75,0,0,0,685.3,809.9Z"/><path class="cls-9" d="M710.36,768.34a2.75,2.75,0,1,1,2.74,2.74A2.75,2.75,0,0,1,710.36,768.34Z"/><rect class="cls-9" x="712.73" y="734.08" width="0.75" height="34.25"/><rect class="cls-9" x="710.3" y="760.04" width="23.08" height="2.25" transform="translate(-315.95 608.13) rotate(-38.13)"/></svg>